<?xml version="1.0" encoding="UTF-8" standalone="no"?>
<svg
   width="820"
   height="900"
   viewBox="0 0 820 900"
   fill="none"
   version="1.1"
   id="svg131"
   sodipodi:docname="3этаж.svg"
   inkscape:version="1.4.2 (f4327f4, 2025-05-13)"
   xmlns:inkscape="http://www.inkscape.org/namespaces/inkscape"
   xmlns:sodipodi="http://sodipodi.sourceforge.net/DTD/sodipodi-0.dtd"
   xmlns="http://www.w3.org/2000/svg"
   xmlns:svg="http://www.w3.org/2000/svg">
  <sodipodi:namedview
     id="namedview131"
     pagecolor="#ffffff"
     bordercolor="#000000"
     borderopacity="0.25"
     inkscape:showpageshadow="2"
     inkscape:pageopacity="0.0"
     inkscape:pagecheckerboard="0"
     inkscape:deskcolor="#d1d1d1"
     inkscape:zoom="1.2966667"
     inkscape:cx="286.50386"
     inkscape:cy="596.52956"
     inkscape:window-width="2560"
     inkscape:window-height="1369"
     inkscape:window-x="-8"
     inkscape:window-y="-8"
     inkscape:window-maximized="1"
     inkscape:current-layer="g131" />
  <g
     clip-path="url(#clip0_9_2)"
     id="g131">
    <rect
       width="820"
       height="900"
       fill="#ffffff"
       id="rect1"
       x="0"
       y="-900"
       transform="scale(1,-1)" />
    <path
       d="M401.5 647V711H399V647H401.5Z"
       fill="black"
       id="path1" />
    <line
       x1="365"
       y1="538.75"
       x2="437"
       y2="538.75"
       stroke="#1A1A1A"
       stroke-width="2.5"
       id="line1" />
    <path
       d="M220 140H365V90H435V140H580V540H435V640H760V830H60V640H365V540H220V140Z"
       stroke="#1A1A1A"
       stroke-width="5"
       stroke-linecap="square"
       id="path2" />
    <path
       d="M365 140V540"
       stroke="#1A1A1A"
       stroke-width="2.5"
       stroke-linecap="square"
       id="path3" />
    <path
       d="M435 140V540"
       stroke="#1A1A1A"
       stroke-width="2.5"
       stroke-linecap="square"
       id="path4" />
    <path
       d="M220 250H365"
       stroke="#1A1A1A"
       stroke-width="2.5"
       stroke-linecap="square"
       id="path5" />
    <path
       d="M 220.98671,323 H 364.44547"
       stroke="#1a1a1a"
       stroke-width="2.5"
       stroke-linecap="square"
       id="path6" />
    <path
       d="M 220.98121,487 H 363.80157"
       stroke="#1a1a1a"
       stroke-width="2.5"
       stroke-linecap="square"
       id="path7" />
    <path
       d="M435 250H580"
       stroke="#1A1A1A"
       stroke-width="2.5"
       stroke-linecap="square"
       id="path8" />
    <path
       d="m 435.25257,323 h 145"
       stroke="#1a1a1a"
       stroke-width="2.5"
       stroke-linecap="square"
       id="path9" />
    <path
       d="M435 487H580"
       stroke="#1A1A1A"
       stroke-width="2.5"
       stroke-linecap="square"
       id="path10" />
    <path
       d="M180 710H400"
       stroke="#1A1A1A"
       stroke-width="2.5"
       stroke-linecap="square"
       id="path11" />
    <path
       d="M448 710H620"
       stroke="#1A1A1A"
       stroke-width="2.5"
       stroke-linecap="square"
       id="path12" />
    <path
       d="M60 750H760"
       stroke="#1A1A1A"
       stroke-width="2.5"
       stroke-linecap="square"
       id="path13" />
    <path
       d="M220 640V710"
       stroke="#1A1A1A"
       stroke-width="2.5"
       stroke-linecap="square"
       id="path14" />
    <path
       d="M287 640V710"
       stroke="#1A1A1A"
       stroke-width="2.5"
       stroke-linecap="square"
       id="path15" />
    <path
       d="M162 710V750"
       stroke="#1A1A1A"
       stroke-width="2.5"
       stroke-linecap="square"
       id="path16" />
    <path
       d="M205 750V830"
       stroke="#1A1A1A"
       stroke-width="2.5"
       stroke-linecap="square"
       id="path17" />
    <path
       d="M302 750V830"
       stroke="#1A1A1A"
       stroke-width="2.5"
       stroke-linecap="square"
       id="path18" />
    <path
       d="M435 750V830"
       stroke="#1A1A1A"
       stroke-width="2.5"
       stroke-linecap="square"
       id="path19" />
    <path
       d="M514 640V710"
       stroke="#1A1A1A"
       stroke-width="2.5"
       stroke-linecap="square"
       id="path20" />
    <path
       d="M620 710H760"
       stroke="#1A1A1A"
       stroke-width="2.5"
       stroke-linecap="square"
       id="path21" />
    <path
       d="M722 828.5L736.5 806V749"
       stroke="#1A1A1A"
       stroke-width="1.5"
       id="path22" />
    <path
       d="M365 221V241"
       stroke="#FCFCFC"
       stroke-width="7"
       id="path23" />
    <path
       d="M365 275V295"
       stroke="#FCFCFC"
       stroke-width="7"
       id="path24" />
    <path
       d="M323.004 260.995H343.004"
       stroke="#FCFCFC"
       stroke-width="7"
       id="path25" />
    <path
       d="M323 334H343"
       stroke="#FCFCFC"
       stroke-width="7"
       id="path26" />
    <path
       d="M366 411V431"
       stroke="#FCFCFC"
       stroke-width="7"
       id="path27" />
    <path
       d="M365 505V525"
       stroke="#FCFCFC"
       stroke-width="7"
       id="path28" />
    <path
       d="M435 221V241"
       stroke="#FCFCFC"
       stroke-width="7"
       id="path29" />
    <path
       d="M435 275V295"
       stroke="#FCFCFC"
       stroke-width="7"
       id="path30" />
    <path
       d="M435 411V431"
       stroke="#FCFCFC"
       stroke-width="7"
       id="path31" />
    <path
       d="M435 505V525"
       stroke="#FCFCFC"
       stroke-width="7"
       id="path32" />
    <path
       d="M304 709H319"
       stroke="#FCFCFC"
       stroke-width="7"
       id="path33" />
    <path
       d="M162 721V736"
       stroke="#FCFCFC"
       stroke-width="7"
       id="path34" />
    <path
       d="M179 750H194"
       stroke="#FCFCFC"
       stroke-width="7"
       id="path35" />
    <path
       d="M235 751H250"
       stroke="#FCFCFC"
       stroke-width="7"
       id="path36" />
    <path
       d="M316 750H331"
       stroke="#FCFCFC"
       stroke-width="7"
       id="path37" />
    <path
       d="M475 711H490"
       stroke="#FCFCFC"
       stroke-width="7"
       id="path38" />
    <path
       d="M400 700V685"
       stroke="#FCFCFC"
       stroke-width="7"
       id="path39" />
    <path
       d="M630 710H645"
       stroke="#FCFCFC"
       stroke-width="7"
       id="path40" />
    <path
       d="M520 750H535"
       stroke="#FCFCFC"
       stroke-width="7"
       id="path41" />
    <path
       d="M630 750H645"
       stroke="#FCFCFC"
       stroke-width="7"
       id="path42" />
    <path
       d="M181 710H196"
       stroke="#FCFCFC"
       stroke-width="7"
       id="path43" />
    <path
       d="M410 550L390 550"
       stroke="#FCFCFC"
       stroke-width="9"
       id="path44" />
    <path
       d="M365 95H435M365 101H435M365 107H435M365 113H435M365 119H435M365 125H435M365 131H435"
       stroke="#1A1A1A"
       stroke-width="1.5"
       id="path45" />
    <path
       d="M253 640V710"
       stroke="#1A1A1A"
       stroke-width="2.5"
       stroke-linecap="square"
       id="path46" />
    <path
       d="M254 645H286M254 651H286M254 657H286M254 663H286M254 669H286M254 675H286M254 681H286M254 687H286M254 693H286M254 699H286M254 705H286"
       stroke="#1A1A1A"
       stroke-width="1.5"
       id="path47" />
    <path
       d="M545 640V710"
       stroke="#1A1A1A"
       stroke-width="2.5"
       stroke-linecap="square"
       id="path48" />
    <path
       d="M514 645H544M514 651H544M514 657H544M514 663H544M514 669H544M514 675H544M514 681H544M514 687H544M514 693H544M514 699H544M514 705H544"
       stroke="#1A1A1A"
       stroke-width="1.5"
       id="path49" />
    <path
       d="M546 645H576M546 651H576M546 657H576M546 663H576M546 669H576M546 675H576M546 681H576M546 687H576M546 693H576M546 699H576M546 705H576"
       stroke="#1A1A1A"
       stroke-width="1.5"
       id="path50" />
    <path
       d="M221 645H253M221 651H253M221 657H253M221 663H253M221 669H253M221 675H253M221 681H253M221 687H253M221 693H253M221 699H253M221 705H253"
       stroke="#1A1A1A"
       stroke-width="1.5"
       id="path51" />
    <path
       d="M223 180H217V210H223V180Z"
       fill="#FCFCFC"
       stroke="#1A1A1A"
       stroke-width="1.5"
       id="path52" />
    <path
       d="M220 180V210"
       stroke="#1A1A1A"
       id="path53" />
    <path
       d="M223 270H217V300H223V270Z"
       fill="#FCFCFC"
       stroke="#1A1A1A"
       stroke-width="1.5"
       id="path54" />
    <path
       d="M220 270V300"
       stroke="#1A1A1A"
       id="path55" />
    <path
       d="M223 385H217V415H223V385Z"
       fill="#FCFCFC"
       stroke="#1A1A1A"
       stroke-width="1.5"
       id="path56" />
    <path
       d="M220 385V415"
       stroke="#1A1A1A"
       id="path57" />
    <path
       d="m 223,498.17638 h -6 v 30 h 6 z"
       fill="#fcfcfc"
       stroke="#1a1a1a"
       stroke-width="1.5"
       id="path58" />
    <path
       d="m 220,498.17638 v 30"
       stroke="#1a1a1a"
       id="path59" />
    <path
       d="M60 660V690"
       stroke="#1A1A1A"
       id="path60" />
    <path
       d="M60 715V745"
       stroke="#1A1A1A"
       id="path61" />
    <path
       d="M583 180H577V210H583V180Z"
       fill="#FCFCFC"
       stroke="#1A1A1A"
       stroke-width="1.5"
       id="path62" />
    <path
       d="M580 180V210"
       stroke="#1A1A1A"
       id="path63" />
    <path
       d="M583 270H577V300H583V270Z"
       fill="#FCFCFC"
       stroke="#1A1A1A"
       stroke-width="1.5"
       id="path64" />
    <path
       d="M580 270V300"
       stroke="#1A1A1A"
       id="path65" />
    <path
       d="M583 385H577V415H583V385Z"
       fill="#FCFCFC"
       stroke="#1A1A1A"
       stroke-width="1.5"
       id="path66" />
    <path
       d="M580 385V415"
       stroke="#1A1A1A"
       id="path67" />
    <path
       d="m 583,497.63105 h -6 v 30 h 6 z"
       fill="#fcfcfc"
       stroke="#1a1a1a"
       stroke-width="1.5"
       id="path68" />
    <path
       d="m 580,497.63105 v 30"
       stroke="#1a1a1a"
       id="path69" />
    <path
       d="M760 660V690"
       stroke="#1A1A1A"
       id="path70" />
    <path
       d="M760 775V805"
       stroke="#1A1A1A"
       id="path71" />
    <path
       d="M135 637H105V643H135V637Z"
       fill="#FCFCFC"
       stroke="#1A1A1A"
       stroke-width="1.5"
       id="path72" />
    <path
       d="M105 640H135"
       stroke="#1A1A1A"
       id="path73" />
    <path
       d="M215 637H185V643H215V637Z"
       fill="#FCFCFC"
       stroke="#1A1A1A"
       stroke-width="1.5"
       id="path74" />
    <path
       d="M185 640H215"
       stroke="#1A1A1A"
       id="path75" />
    <path
       d="M498 637H468V643H498V637Z"
       fill="#FCFCFC"
       stroke="#1A1A1A"
       stroke-width="1.5"
       id="path76" />
    <path
       d="M468 640H498"
       stroke="#1A1A1A"
       id="path77" />
    <path
       d="M390 638H368V642H390V638Z"
       fill="#FCFCFC"
       stroke="#1A1A1A"
       stroke-width="1.5"
       id="path78" />
    <path
       d="M368 640H390"
       stroke="#1A1A1A"
       id="path79" />
    <path
       d="M675 637H645V643H675V637Z"
       fill="#FCFCFC"
       stroke="#1A1A1A"
       stroke-width="1.5"
       id="path80" />
    <path
       d="M645 640H675"
       stroke="#1A1A1A"
       id="path81" />
    <path
       d="M735 637H705V643H735V637Z"
       fill="#FCFCFC"
       stroke="#1A1A1A"
       stroke-width="1.5"
       id="path82" />
    <path
       d="M705 640H735"
       stroke="#1A1A1A"
       id="path83" />
    <path
       d="M115 827H85V833H115V827Z"
       fill="#FCFCFC"
       stroke="#1A1A1A"
       stroke-width="1.5"
       id="path84" />
    <path
       d="M85 830H115"
       stroke="#1A1A1A"
       id="path85" />
    <path
       d="M175 827H145V833H175V827Z"
       fill="#FCFCFC"
       stroke="#1A1A1A"
       stroke-width="1.5"
       id="path86" />
    <path
       d="M145 830H175"
       stroke="#1A1A1A"
       id="path87" />
    <path
       d="M260 827H230V833H260V827Z"
       fill="#FCFCFC"
       stroke="#1A1A1A"
       stroke-width="1.5"
       id="path88" />
    <path
       d="M230 830H260"
       stroke="#1A1A1A"
       id="path89" />
    <path
       d="M355 827H325V833H355V827Z"
       fill="#FCFCFC"
       stroke="#1A1A1A"
       stroke-width="1.5"
       id="path90" />
    <path
       d="M325 830H355"
       stroke="#1A1A1A"
       id="path91" />
    <path
       d="M482 827H452V833H482V827Z"
       fill="#FCFCFC"
       stroke="#1A1A1A"
       stroke-width="1.5"
       id="path92" />
    <path
       d="M452 830H482"
       stroke="#1A1A1A"
       id="path93" />
    <path
       d="M545 827H515V833H545V827Z"
       fill="#FCFCFC"
       stroke="#1A1A1A"
       stroke-width="1.5"
       id="path94" />
    <path
       d="M515 830H545"
       stroke="#1A1A1A"
       id="path95" />
    <path
       d="M633 827H603V833H633V827Z"
       fill="#FCFCFC"
       stroke="#1A1A1A"
       stroke-width="1.5"
       id="path96" />
    <path
       d="M603 830H633"
       stroke="#1A1A1A"
       id="path97" />
    <path
       d="M691 827H661V833H691V827Z"
       fill="#FCFCFC"
       stroke="#1A1A1A"
       stroke-width="1.5"
       id="path98" />
    <path
       d="M661 830H691"
       stroke="#1A1A1A"
       id="path99" />
    <path
       d="M362 577V607H368V577H362Z"
       fill="#FCFCFC"
       stroke="#1A1A1A"
       stroke-width="1.5"
       id="path100" />
    <path
       d="M365 607V577"
       stroke="#1A1A1A"
       id="path101" />
    <path
       d="M432 577V607H438V577H432Z"
       fill="#FCFCFC"
       stroke="#1A1A1A"
       stroke-width="1.5"
       id="path102" />
    <path
       d="M435 607V577"
       stroke="#1A1A1A"
       id="path103" />
    <path
       d="M372.573 45.179C371.618 45.179 370.768 45.0149 370.022 44.6868C369.281 44.3544 368.695 43.8984 368.264 43.3189C367.838 42.7351 367.619 42.0618 367.606 41.299H370.393C370.41 41.6186 370.514 41.8999 370.706 42.1428C370.902 42.3814 371.162 42.5668 371.486 42.6989C371.81 42.831 372.174 42.897 372.579 42.897C373.001 42.897 373.374 42.8224 373.698 42.6733C374.022 42.5241 374.275 42.3175 374.458 42.0533C374.642 41.7891 374.733 41.4844 374.733 41.1392C374.733 40.7898 374.635 40.4808 374.439 40.2124C374.247 39.9396 373.97 39.7266 373.608 39.5732C373.25 39.4197 372.824 39.343 372.33 39.343H371.109V37.3104H372.33C372.747 37.3104 373.116 37.2379 373.436 37.093C373.759 36.9482 374.011 36.7479 374.19 36.4922C374.369 36.2322 374.458 35.9297 374.458 35.5845C374.458 35.2564 374.38 34.9688 374.222 34.7216C374.068 34.4702 373.851 34.2741 373.57 34.1335C373.293 33.9929 372.969 33.9226 372.598 33.9226C372.223 33.9226 371.88 33.9908 371.569 34.1271C371.258 34.2592 371.009 34.4489 370.821 34.696C370.634 34.9432 370.534 35.233 370.521 35.5653H367.868C367.881 34.8111 368.096 34.1463 368.514 33.571C368.931 32.9957 369.494 32.5462 370.201 32.2223C370.913 31.8942 371.716 31.7301 372.611 31.7301C373.514 31.7301 374.305 31.8942 374.983 32.2223C375.66 32.5504 376.186 32.9936 376.561 33.5518C376.941 34.1058 377.128 34.728 377.124 35.4183C377.128 36.1513 376.9 36.7628 376.44 37.2528C375.984 37.7429 375.389 38.054 374.657 38.1861V38.2884C375.62 38.4119 376.353 38.7464 376.855 39.2919C377.362 39.8331 377.614 40.5107 377.61 41.3246C377.614 42.0703 377.399 42.733 376.964 43.3125C376.534 43.892 375.939 44.348 375.181 44.6804C374.422 45.0128 373.553 45.179 372.573 45.179ZM391.587 37.2145C391.281 37.2145 391.008 37.2741 390.769 37.3935C390.531 37.5128 390.343 37.679 390.207 37.892C390.075 38.1009 390.009 38.348 390.009 38.6335H387.56C387.56 38.1009 387.663 37.6151 387.867 37.1761C388.072 36.733 388.357 36.3516 388.724 36.032C389.09 35.7081 389.516 35.4588 390.002 35.2841C390.492 35.1094 391.021 35.022 391.587 35.022C392.576 35.022 393.407 35.2436 394.08 35.6868C394.758 36.1257 395.269 36.7202 395.614 37.4702C395.964 38.2159 396.139 39.0533 396.139 39.9822V40.2188C396.139 41.152 395.966 41.9936 395.621 42.7436C395.276 43.4936 394.764 44.0881 394.087 44.527C393.413 44.9616 392.58 45.179 391.587 45.179C390.795 45.179 390.096 45.0234 389.491 44.7124C388.886 44.397 388.413 43.9517 388.072 43.3764C387.731 42.7969 387.56 42.1087 387.56 41.3118H390.009C390.009 41.6143 390.073 41.8913 390.2 42.1428C390.328 42.3942 390.509 42.5945 390.744 42.7436C390.982 42.8928 391.264 42.9695 391.587 42.9737C392.095 42.9695 392.489 42.8267 392.77 42.5455C393.055 42.2642 393.254 41.9126 393.364 41.4908C393.479 41.0646 393.537 40.6406 393.537 40.2188V39.9822C393.537 39.5178 393.477 39.0746 393.358 38.6527C393.243 38.2308 393.043 37.8857 392.757 37.6172C392.476 37.3487 392.086 37.2145 391.587 37.2145ZM394.323 39.2855V40.8963H390.852V39.2855H394.323ZM396.973 37.3232V35.1818H405.87V37.3232H402.706V45H400.111V37.3232H396.973ZM409.969 45.1854C409.343 45.1854 408.785 45.0767 408.295 44.8594C407.805 44.6378 407.417 44.3118 407.131 43.8814C406.85 43.4467 406.709 42.9055 406.709 42.2578C406.709 41.7124 406.81 41.2543 407.01 40.8835C407.21 40.5128 407.483 40.2145 407.828 39.9886C408.173 39.7628 408.565 39.5923 409.004 39.4773C409.447 39.3622 409.912 39.2812 410.398 39.2344C410.969 39.1747 411.429 39.1193 411.778 39.0682C412.128 39.0128 412.381 38.9318 412.539 38.8253C412.697 38.7187 412.775 38.5611 412.775 38.3523V38.3139C412.775 37.9091 412.648 37.5959 412.392 37.3743C412.141 37.1527 411.783 37.0419 411.318 37.0419C410.828 37.0419 410.438 37.1506 410.148 37.3679C409.859 37.581 409.667 37.8494 409.573 38.1733L407.055 37.9688C407.182 37.3722 407.434 36.8565 407.809 36.4219C408.184 35.983 408.668 35.6463 409.26 35.4119C409.856 35.1733 410.547 35.054 411.331 35.054C411.876 35.054 412.398 35.1179 412.897 35.2457C413.4 35.3736 413.845 35.5717 414.233 35.8402C414.625 36.1087 414.934 36.4538 415.16 36.8757C415.386 37.2933 415.498 37.794 415.498 38.3778V45H412.916V43.6385H412.839C412.682 43.9453 412.471 44.2159 412.207 44.4503C411.942 44.6804 411.625 44.8615 411.254 44.9936C410.883 45.1214 410.455 45.1854 409.969 45.1854ZM410.749 43.3061C411.15 43.3061 411.503 43.2273 411.81 43.0696C412.117 42.9077 412.358 42.6903 412.533 42.4176C412.707 42.1449 412.795 41.8359 412.795 41.4908V40.4489C412.709 40.5043 412.592 40.5554 412.443 40.6023C412.298 40.6449 412.134 40.6854 411.951 40.7237C411.768 40.7578 411.584 40.7898 411.401 40.8196C411.218 40.8452 411.052 40.8686 410.903 40.8899C410.583 40.9368 410.304 41.0114 410.065 41.1136C409.827 41.2159 409.641 41.3544 409.509 41.5291C409.377 41.6996 409.311 41.9126 409.311 42.1683C409.311 42.5391 409.445 42.8224 409.714 43.0185C409.986 43.2102 410.332 43.3061 410.749 43.3061ZM416.972 45L420.404 39.8928L416.991 35.1818H420.098L422.648 39.0234H423.07V35.1818H425.793V39.0234H426.202L428.752 35.1818H431.859L428.452 39.8928L431.878 45H428.701L426.176 41.1648H425.793V45H423.07V41.1648H422.686L420.149 45H416.972Z"
       fill="#1A1A1A"
       id="path104" />
    <path
       d="M281.794 206.199C280.733 206.199 279.788 206.017 278.96 205.652C278.136 205.283 277.485 204.776 277.007 204.132C276.533 203.483 276.289 202.735 276.275 201.888H279.372C279.391 202.243 279.507 202.555 279.72 202.825C279.938 203.09 280.226 203.296 280.586 203.443C280.946 203.59 281.351 203.663 281.801 203.663C282.27 203.663 282.684 203.58 283.044 203.415C283.404 203.249 283.685 203.019 283.889 202.726C284.092 202.432 284.194 202.094 284.194 201.71C284.194 201.322 284.085 200.979 283.868 200.68C283.654 200.377 283.347 200.141 282.944 199.97C282.547 199.8 282.073 199.714 281.524 199.714H280.167V197.456H281.524C281.988 197.456 282.397 197.375 282.752 197.214C283.112 197.054 283.392 196.831 283.591 196.547C283.789 196.258 283.889 195.922 283.889 195.538C283.889 195.174 283.801 194.854 283.626 194.58C283.456 194.3 283.214 194.082 282.902 193.926C282.594 193.77 282.234 193.692 281.822 193.692C281.405 193.692 281.024 193.768 280.679 193.919C280.333 194.066 280.056 194.277 279.848 194.551C279.639 194.826 279.528 195.148 279.514 195.517H276.566C276.581 194.679 276.82 193.94 277.284 193.301C277.748 192.662 278.373 192.162 279.159 191.803C279.949 191.438 280.842 191.256 281.836 191.256C282.84 191.256 283.718 191.438 284.471 191.803C285.224 192.167 285.809 192.66 286.225 193.28C286.647 193.895 286.855 194.587 286.85 195.354C286.855 196.168 286.602 196.848 286.091 197.392C285.584 197.937 284.923 198.282 284.109 198.429V198.543C285.179 198.68 285.993 199.052 286.552 199.658C287.116 200.259 287.395 201.012 287.39 201.916C287.395 202.745 287.156 203.481 286.673 204.125C286.195 204.769 285.534 205.276 284.691 205.645C283.849 206.014 282.883 206.199 281.794 206.199ZM295.929 191.455V206H292.854V194.374H292.768L289.438 196.462V193.734L293.038 191.455H295.929ZM299.166 203.443V201.021L305.238 191.455H307.326V194.807H306.091L302.262 200.865V200.979H310.892V203.443H299.166ZM306.147 206V202.705L306.204 201.632V191.455H309.088V206H306.147Z"
       fill="#1A1A1A"
       id="path105" />
    <path
       d="M280.979 292.199C279.919 292.199 278.974 292.017 278.145 291.652C277.322 291.283 276.671 290.776 276.192 290.132C275.719 289.483 275.475 288.735 275.461 287.888H278.557C278.576 288.243 278.692 288.555 278.905 288.825C279.123 289.09 279.412 289.296 279.772 289.443C280.132 289.59 280.537 289.663 280.986 289.663C281.455 289.663 281.869 289.58 282.229 289.415C282.589 289.249 282.871 289.019 283.074 288.726C283.278 288.432 283.38 288.094 283.38 287.71C283.38 287.322 283.271 286.979 283.053 286.68C282.84 286.377 282.532 286.141 282.13 285.97C281.732 285.8 281.259 285.714 280.709 285.714H279.353V283.456H280.709C281.173 283.456 281.583 283.375 281.938 283.214C282.298 283.054 282.577 282.831 282.776 282.547C282.975 282.258 283.074 281.922 283.074 281.538C283.074 281.174 282.987 280.854 282.812 280.58C282.641 280.3 282.4 280.082 282.087 279.926C281.779 279.77 281.42 279.692 281.008 279.692C280.591 279.692 280.21 279.768 279.864 279.919C279.519 280.066 279.242 280.277 279.033 280.551C278.825 280.826 278.714 281.148 278.699 281.517H275.752C275.766 280.679 276.005 279.94 276.469 279.301C276.933 278.662 277.558 278.162 278.344 277.803C279.135 277.438 280.028 277.256 281.022 277.256C282.026 277.256 282.904 277.438 283.657 277.803C284.41 278.167 284.994 278.66 285.411 279.28C285.832 279.895 286.041 280.587 286.036 281.354C286.041 282.168 285.787 282.848 285.276 283.392C284.769 283.937 284.109 284.282 283.295 284.429V284.543C284.365 284.68 285.179 285.052 285.738 285.658C286.301 286.259 286.581 287.012 286.576 287.916C286.581 288.745 286.341 289.481 285.858 290.125C285.38 290.769 284.72 291.276 283.877 291.645C283.034 292.014 282.068 292.199 280.979 292.199ZM295.115 277.455V292H292.039V280.374H291.954L288.623 282.462V279.734L292.224 277.455H295.115ZM303.948 292.199C302.887 292.199 301.943 292.017 301.114 291.652C300.29 291.283 299.639 290.776 299.161 290.132C298.688 289.483 298.444 288.735 298.43 287.888H301.526C301.545 288.243 301.661 288.555 301.874 288.825C302.092 289.09 302.381 289.296 302.741 289.443C303.1 289.59 303.505 289.663 303.955 289.663C304.424 289.663 304.838 289.58 305.198 289.415C305.558 289.249 305.84 289.019 306.043 288.726C306.247 288.432 306.349 288.094 306.349 287.71C306.349 287.322 306.24 286.979 306.022 286.68C305.809 286.377 305.501 286.141 305.099 285.97C304.701 285.8 304.227 285.714 303.678 285.714H302.322V283.456H303.678C304.142 283.456 304.552 283.375 304.907 283.214C305.267 283.054 305.546 282.831 305.745 282.547C305.944 282.258 306.043 281.922 306.043 281.538C306.043 281.174 305.956 280.854 305.78 280.58C305.61 280.3 305.368 280.082 305.056 279.926C304.748 279.77 304.388 279.692 303.976 279.692C303.56 279.692 303.179 279.768 302.833 279.919C302.487 280.066 302.21 280.277 302.002 280.551C301.794 280.826 301.682 281.148 301.668 281.517H298.721C298.735 280.679 298.974 279.94 299.438 279.301C299.902 278.662 300.527 278.162 301.313 277.803C302.104 277.438 302.996 277.256 303.991 277.256C304.994 277.256 305.873 277.438 306.626 277.803C307.378 278.167 307.963 278.66 308.38 279.28C308.801 279.895 309.01 280.587 309.005 281.354C309.01 282.168 308.756 282.848 308.245 283.392C307.738 283.937 307.078 284.282 306.263 284.429V284.543C307.333 284.68 308.148 285.052 308.706 285.658C309.27 286.259 309.549 287.012 309.545 287.916C309.549 288.745 309.31 289.481 308.827 290.125C308.349 290.769 307.689 291.276 306.846 291.645C306.003 292.014 305.037 292.199 303.948 292.199Z"
       fill="#1A1A1A"
       id="path106" />
    <path
       d="M280.772 399.199C279.712 399.199 278.767 399.017 277.938 398.652C277.115 398.283 276.463 397.776 275.985 397.132C275.512 396.483 275.268 395.735 275.254 394.888H278.35C278.369 395.243 278.485 395.555 278.698 395.825C278.916 396.09 279.205 396.296 279.565 396.443C279.925 396.59 280.329 396.663 280.779 396.663C281.248 396.663 281.662 396.58 282.022 396.415C282.382 396.249 282.664 396.019 282.867 395.726C283.071 395.432 283.173 395.094 283.173 394.71C283.173 394.322 283.064 393.979 282.846 393.68C282.633 393.377 282.325 393.141 281.923 392.97C281.525 392.8 281.052 392.714 280.502 392.714H279.146V390.456H280.502C280.966 390.456 281.376 390.375 281.731 390.214C282.091 390.054 282.37 389.831 282.569 389.547C282.768 389.258 282.867 388.922 282.867 388.538C282.867 388.174 282.78 387.854 282.605 387.58C282.434 387.3 282.193 387.082 281.88 386.926C281.572 386.77 281.213 386.692 280.801 386.692C280.384 386.692 280.003 386.768 279.657 386.919C279.311 387.066 279.035 387.277 278.826 387.551C278.618 387.826 278.507 388.148 278.492 388.517H275.545C275.559 387.679 275.798 386.94 276.262 386.301C276.726 385.662 277.351 385.162 278.137 384.803C278.928 384.438 279.82 384.256 280.815 384.256C281.819 384.256 282.697 384.438 283.45 384.803C284.203 385.167 284.787 385.66 285.204 386.28C285.625 386.895 285.834 387.587 285.829 388.354C285.834 389.168 285.58 389.848 285.069 390.392C284.562 390.937 283.902 391.282 283.088 391.429V391.543C284.158 391.68 284.972 392.052 285.531 392.658C286.094 393.259 286.374 394.012 286.369 394.916C286.374 395.745 286.134 396.481 285.651 397.125C285.173 397.769 284.513 398.276 283.67 398.645C282.827 399.014 281.861 399.199 280.772 399.199ZM294.907 384.455V399H291.832V387.374H291.747L288.416 389.462V386.734L292.017 384.455H294.907ZM298.365 399V396.784L303.542 391.99C303.982 391.564 304.352 391.18 304.65 390.839C304.953 390.499 305.183 390.165 305.339 389.838C305.495 389.507 305.573 389.149 305.573 388.766C305.573 388.339 305.476 387.973 305.282 387.665C305.088 387.352 304.823 387.113 304.487 386.947C304.151 386.777 303.769 386.692 303.343 386.692C302.898 386.692 302.51 386.782 302.178 386.962C301.847 387.142 301.591 387.4 301.411 387.736C301.231 388.072 301.142 388.472 301.142 388.936H298.222C298.222 387.984 298.438 387.158 298.869 386.457C299.3 385.757 299.903 385.214 300.68 384.831C301.456 384.447 302.351 384.256 303.365 384.256C304.406 384.256 305.313 384.44 306.085 384.81C306.861 385.174 307.465 385.681 307.896 386.33C308.327 386.978 308.542 387.722 308.542 388.56C308.542 389.109 308.433 389.651 308.215 390.186C308.002 390.721 307.621 391.315 307.072 391.969C306.523 392.617 305.749 393.396 304.749 394.305L302.626 396.386V396.486H308.734V399H298.365Z"
       fill="#1A1A1A"
       id="path107" />
    <path
       d="M278.678 520.199C277.618 520.199 276.673 520.017 275.845 519.652C275.021 519.283 274.37 518.776 273.892 518.132C273.418 517.483 273.174 516.735 273.16 515.888H276.257C276.276 516.243 276.392 516.555 276.605 516.825C276.822 517.09 277.111 517.296 277.471 517.443C277.831 517.59 278.236 517.663 278.686 517.663C279.154 517.663 279.569 517.58 279.928 517.415C280.288 517.249 280.57 517.019 280.774 516.726C280.977 516.432 281.079 516.094 281.079 515.71C281.079 515.322 280.97 514.979 280.752 514.68C280.539 514.377 280.231 514.141 279.829 513.97C279.431 513.8 278.958 513.714 278.409 513.714H277.052V511.456H278.409C278.873 511.456 279.282 511.375 279.637 511.214C279.997 511.054 280.276 510.831 280.475 510.547C280.674 510.258 280.774 509.922 280.774 509.538C280.774 509.174 280.686 508.854 280.511 508.58C280.34 508.3 280.099 508.082 279.786 507.926C279.479 507.77 279.119 507.692 278.707 507.692C278.29 507.692 277.909 507.768 277.563 507.919C277.218 508.066 276.941 508.277 276.732 508.551C276.524 508.826 276.413 509.148 276.399 509.517H273.451C273.465 508.679 273.704 507.94 274.169 507.301C274.633 506.662 275.258 506.162 276.044 505.803C276.834 505.438 277.727 505.256 278.721 505.256C279.725 505.256 280.603 505.438 281.356 505.803C282.109 506.167 282.694 506.66 283.11 507.28C283.532 507.895 283.74 508.587 283.735 509.354C283.74 510.168 283.487 510.848 282.975 511.392C282.469 511.937 281.808 512.282 280.994 512.429V512.543C282.064 512.68 282.878 513.052 283.437 513.658C284 514.259 284.28 515.012 284.275 515.916C284.28 516.745 284.041 517.481 283.558 518.125C283.079 518.769 282.419 519.276 281.576 519.645C280.733 520.014 279.767 520.199 278.678 520.199ZM292.814 505.455V520H289.738V508.374H289.653L286.322 510.462V507.734L289.923 505.455H292.814ZM302.599 505.455V520H299.524V508.374H299.438L296.107 510.462V507.734L299.708 505.455H302.599Z"
       fill="#1A1A1A"
       id="path108" />
    <path
       d="M499.626 206.199C498.565 206.199 497.621 206.017 496.792 205.652C495.968 205.283 495.317 204.776 494.839 204.132C494.365 203.483 494.121 202.735 494.107 201.888H497.204C497.223 202.243 497.339 202.555 497.552 202.825C497.77 203.09 498.058 203.296 498.418 203.443C498.778 203.59 499.183 203.663 499.633 203.663C500.102 203.663 500.516 203.58 500.876 203.415C501.236 203.249 501.517 203.019 501.721 202.726C501.924 202.432 502.026 202.094 502.026 201.71C502.026 201.322 501.917 200.979 501.7 200.68C501.487 200.377 501.179 200.141 500.776 199.97C500.379 199.8 499.905 199.714 499.356 199.714H497.999V197.456H499.356C499.82 197.456 500.229 197.375 500.585 197.214C500.944 197.054 501.224 196.831 501.423 196.547C501.621 196.258 501.721 195.922 501.721 195.538C501.721 195.174 501.633 194.854 501.458 194.58C501.288 194.3 501.046 194.082 500.734 193.926C500.426 193.77 500.066 193.692 499.654 193.692C499.237 193.692 498.856 193.768 498.511 193.919C498.165 194.066 497.888 194.277 497.68 194.551C497.471 194.826 497.36 195.148 497.346 195.517H494.398C494.413 194.679 494.652 193.94 495.116 193.301C495.58 192.662 496.205 192.162 496.991 191.803C497.781 191.438 498.674 191.256 499.668 191.256C500.672 191.256 501.55 191.438 502.303 191.803C503.056 192.167 503.641 192.66 504.058 193.28C504.479 193.895 504.687 194.587 504.683 195.354C504.687 196.168 504.434 196.848 503.923 197.392C503.416 197.937 502.755 198.282 501.941 198.429V198.543C503.011 198.68 503.826 199.052 504.384 199.658C504.948 200.259 505.227 201.012 505.222 201.916C505.227 202.745 504.988 203.481 504.505 204.125C504.027 204.769 503.366 205.276 502.523 205.645C501.681 206.014 500.715 206.199 499.626 206.199ZM513.761 191.455V206H510.686V194.374H510.6L507.27 196.462V193.734L510.87 191.455H513.761ZM522.531 206.199C521.527 206.199 520.632 206.014 519.846 205.645C519.065 205.276 518.444 204.767 517.985 204.118C517.526 203.469 517.287 202.726 517.268 201.888H520.251C520.284 202.451 520.521 202.908 520.961 203.259C521.401 203.609 521.924 203.784 522.531 203.784C523.013 203.784 523.44 203.678 523.809 203.464C524.183 203.247 524.474 202.946 524.683 202.562C524.896 202.174 525.002 201.729 525.002 201.227C525.002 200.716 524.893 200.266 524.675 199.878C524.462 199.49 524.166 199.187 523.788 198.969C523.409 198.751 522.976 198.64 522.488 198.635C522.062 198.635 521.647 198.723 521.245 198.898C520.847 199.073 520.537 199.312 520.315 199.615L517.58 199.125L518.269 191.455H527.161V193.969H520.805L520.428 197.612H520.513C520.769 197.252 521.155 196.954 521.671 196.717C522.187 196.481 522.765 196.362 523.404 196.362C524.28 196.362 525.061 196.568 525.748 196.98C526.434 197.392 526.977 197.958 527.374 198.678C527.772 199.393 527.969 200.216 527.964 201.149C527.969 202.129 527.741 203 527.282 203.763C526.827 204.52 526.191 205.117 525.371 205.553C524.557 205.983 523.61 206.199 522.531 206.199Z"
       fill="#1A1A1A"
       id="path109" />
    <path
       d="M496.969 292.199C495.909 292.199 494.964 292.017 494.136 291.652C493.312 291.283 492.661 290.776 492.183 290.132C491.709 289.483 491.465 288.735 491.451 287.888H494.548C494.567 288.243 494.683 288.555 494.896 288.825C495.113 289.09 495.402 289.296 495.762 289.443C496.122 289.59 496.527 289.663 496.977 289.663C497.445 289.663 497.86 289.58 498.219 289.415C498.579 289.249 498.861 289.019 499.065 288.726C499.268 288.432 499.37 288.094 499.37 287.71C499.37 287.322 499.261 286.979 499.043 286.68C498.83 286.377 498.522 286.141 498.12 285.97C497.722 285.8 497.249 285.714 496.7 285.714H495.343V283.456H496.7C497.164 283.456 497.573 283.375 497.928 283.214C498.288 283.054 498.567 282.831 498.766 282.547C498.965 282.258 499.065 281.922 499.065 281.538C499.065 281.174 498.977 280.854 498.802 280.58C498.631 280.3 498.39 280.082 498.077 279.926C497.77 279.77 497.41 279.692 496.998 279.692C496.581 279.692 496.2 279.768 495.854 279.919C495.509 280.066 495.232 280.277 495.023 280.551C494.815 280.826 494.704 281.148 494.69 281.517H491.742C491.756 280.679 491.996 279.94 492.46 279.301C492.924 278.662 493.549 278.162 494.335 277.803C495.125 277.438 496.018 277.256 497.012 277.256C498.016 277.256 498.894 277.438 499.647 277.803C500.4 278.167 500.985 278.66 501.401 279.28C501.823 279.895 502.031 280.587 502.026 281.354C502.031 282.168 501.778 282.848 501.266 283.392C500.76 283.937 500.099 284.282 499.285 284.429V284.543C500.355 284.68 501.169 285.052 501.728 285.658C502.291 286.259 502.571 287.012 502.566 287.916C502.571 288.745 502.332 289.481 501.849 290.125C501.371 290.769 500.71 291.276 499.867 291.645C499.024 292.014 498.058 292.199 496.969 292.199ZM511.105 277.455V292H508.029V280.374H507.944L504.613 282.462V279.734L508.214 277.455H511.105ZM520.144 292.199C519.396 292.194 518.674 292.069 517.978 291.822C517.287 291.576 516.666 291.176 516.117 290.622C515.568 290.068 515.132 289.334 514.81 288.42C514.493 287.507 514.335 286.384 514.335 285.054C514.339 283.832 514.479 282.741 514.754 281.78C515.033 280.814 515.431 279.995 515.947 279.322C516.468 278.65 517.09 278.139 517.815 277.788C518.539 277.433 519.351 277.256 520.251 277.256C521.221 277.256 522.078 277.445 522.822 277.824C523.565 278.198 524.162 278.707 524.612 279.351C525.066 279.995 525.341 280.717 525.435 281.517H522.403C522.284 281.01 522.036 280.613 521.657 280.324C521.278 280.035 520.809 279.891 520.251 279.891C519.304 279.891 518.584 280.303 518.092 281.126C517.604 281.95 517.355 283.07 517.346 284.486H517.445C517.663 284.055 517.957 283.688 518.326 283.385C518.7 283.077 519.124 282.843 519.597 282.682C520.076 282.516 520.58 282.433 521.11 282.433C521.972 282.433 522.739 282.637 523.411 283.044C524.084 283.446 524.614 284 525.002 284.706C525.39 285.411 525.585 286.219 525.585 287.128C525.585 288.113 525.355 288.989 524.896 289.756C524.441 290.523 523.804 291.124 522.985 291.56C522.171 291.991 521.224 292.204 520.144 292.199ZM520.13 289.784C520.603 289.784 521.027 289.67 521.401 289.443C521.775 289.216 522.069 288.908 522.282 288.52C522.495 288.132 522.602 287.696 522.602 287.213C522.602 286.73 522.495 286.297 522.282 285.913C522.074 285.53 521.785 285.224 521.415 284.997C521.046 284.77 520.625 284.656 520.151 284.656C519.796 284.656 519.467 284.723 519.164 284.855C518.866 284.988 518.603 285.172 518.376 285.409C518.153 285.646 517.978 285.92 517.85 286.233C517.722 286.541 517.658 286.87 517.658 287.22C517.658 287.689 517.765 288.117 517.978 288.506C518.196 288.894 518.489 289.204 518.859 289.436C519.233 289.668 519.656 289.784 520.13 289.784Z"
       fill="#1A1A1A"
       id="path110" />
    <path
       d="M496.624 399.199C495.563 399.199 494.619 399.017 493.79 398.652C492.966 398.283 492.315 397.776 491.837 397.132C491.363 396.483 491.119 395.735 491.105 394.888H494.202C494.221 395.243 494.337 395.555 494.55 395.825C494.768 396.09 495.057 396.296 495.416 396.443C495.776 396.59 496.181 396.663 496.631 396.663C497.1 396.663 497.514 396.58 497.874 396.415C498.234 396.249 498.515 396.019 498.719 395.726C498.923 395.432 499.024 395.094 499.024 394.71C499.024 394.322 498.915 393.979 498.698 393.68C498.485 393.377 498.177 393.141 497.774 392.97C497.377 392.8 496.903 392.714 496.354 392.714H494.997V390.456H496.354C496.818 390.456 497.227 390.375 497.583 390.214C497.942 390.054 498.222 389.831 498.421 389.547C498.619 389.258 498.719 388.922 498.719 388.538C498.719 388.174 498.631 387.854 498.456 387.58C498.286 387.3 498.044 387.082 497.732 386.926C497.424 386.77 497.064 386.692 496.652 386.692C496.235 386.692 495.854 386.768 495.509 386.919C495.163 387.066 494.886 387.277 494.678 387.551C494.469 387.826 494.358 388.148 494.344 388.517H491.396C491.411 387.679 491.65 386.94 492.114 386.301C492.578 385.662 493.203 385.162 493.989 384.803C494.78 384.438 495.672 384.256 496.666 384.256C497.67 384.256 498.548 384.438 499.301 384.803C500.054 385.167 500.639 385.66 501.056 386.28C501.477 386.895 501.685 387.587 501.681 388.354C501.685 389.168 501.432 389.848 500.921 390.392C500.414 390.937 499.753 391.282 498.939 391.429V391.543C500.009 391.68 500.824 392.052 501.382 392.658C501.946 393.259 502.225 394.012 502.22 394.916C502.225 395.745 501.986 396.481 501.503 397.125C501.025 397.769 500.364 398.276 499.521 398.645C498.679 399.014 497.713 399.199 496.624 399.199ZM510.759 384.455V399H507.684V387.374H507.599L504.268 389.462V386.734L507.868 384.455H510.759ZM514.791 399L520.821 387.068V386.969H513.797V384.455H524.003V387.004L517.966 399H514.791Z"
       fill="#1A1A1A"
       id="path111" />
    <path
       d="M126.977 674.199C125.917 674.199 124.972 674.017 124.143 673.652C123.32 673.283 122.669 672.776 122.19 672.132C121.717 671.483 121.473 670.735 121.459 669.888H124.555C124.574 670.243 124.69 670.555 124.903 670.825C125.121 671.09 125.41 671.296 125.77 671.443C126.13 671.59 126.535 671.663 126.984 671.663C127.453 671.663 127.867 671.58 128.227 671.415C128.587 671.249 128.869 671.019 129.072 670.726C129.276 670.432 129.378 670.094 129.378 669.71C129.378 669.322 129.269 668.979 129.051 668.68C128.838 668.377 128.53 668.141 128.128 667.97C127.73 667.8 127.257 667.714 126.707 667.714H125.351V665.456H126.707C127.171 665.456 127.581 665.375 127.936 665.214C128.296 665.054 128.575 664.831 128.774 664.547C128.973 664.258 129.072 663.922 129.072 663.538C129.072 663.174 128.985 662.854 128.81 662.58C128.639 662.3 128.398 662.082 128.085 661.926C127.777 661.77 127.418 661.692 127.006 661.692C126.589 661.692 126.208 661.768 125.862 661.919C125.517 662.066 125.24 662.277 125.031 662.551C124.823 662.826 124.712 663.148 124.697 663.517H121.75C121.764 662.679 122.003 661.94 122.467 661.301C122.931 660.662 123.556 660.162 124.342 659.803C125.133 659.438 126.026 659.256 127.02 659.256C128.024 659.256 128.902 659.438 129.655 659.803C130.408 660.167 130.992 660.66 131.409 661.28C131.83 661.895 132.039 662.587 132.034 663.354C132.039 664.168 131.786 664.848 131.274 665.392C130.768 665.937 130.107 666.282 129.293 666.429V666.543C130.363 666.68 131.177 667.052 131.736 667.658C132.299 668.259 132.579 669.012 132.574 669.916C132.579 670.745 132.339 671.481 131.857 672.125C131.378 672.769 130.718 673.276 129.875 673.645C129.032 674.014 128.066 674.199 126.977 674.199ZM140.488 674.32C139.266 674.315 138.215 674.014 137.334 673.418C136.458 672.821 135.783 671.957 135.31 670.825C134.841 669.694 134.609 668.332 134.614 666.741C134.614 665.155 134.848 663.804 135.317 662.686C135.791 661.569 136.465 660.719 137.341 660.136C138.222 659.549 139.271 659.256 140.488 659.256C141.704 659.256 142.751 659.549 143.627 660.136C144.507 660.723 145.185 661.576 145.658 662.693C146.132 663.806 146.366 665.155 146.361 666.741C146.361 668.337 146.124 669.701 145.651 670.832C145.182 671.964 144.51 672.828 143.634 673.425C142.758 674.021 141.709 674.32 140.488 674.32ZM140.488 671.77C141.321 671.77 141.986 671.351 142.483 670.513C142.98 669.675 143.227 668.418 143.222 666.741C143.222 665.638 143.108 664.72 142.881 663.986C142.658 663.252 142.341 662.7 141.929 662.331C141.522 661.962 141.042 661.777 140.488 661.777C139.659 661.777 138.996 662.191 138.499 663.02C138.002 663.848 137.751 665.089 137.746 666.741C137.746 667.859 137.857 668.792 138.08 669.54C138.307 670.283 138.627 670.842 139.039 671.216C139.451 671.585 139.934 671.77 140.488 671.77ZM153.817 659.256C154.565 659.256 155.285 659.381 155.976 659.632C156.672 659.883 157.292 660.283 157.837 660.832C158.386 661.382 158.819 662.111 159.136 663.02C159.458 663.924 159.622 665.035 159.626 666.351C159.626 667.587 159.487 668.69 159.207 669.661C158.933 670.626 158.537 671.448 158.021 672.125C157.505 672.802 156.883 673.318 156.153 673.673C155.424 674.024 154.61 674.199 153.71 674.199C152.74 674.199 151.883 674.012 151.139 673.638C150.396 673.259 149.797 672.745 149.342 672.097C148.893 671.443 148.62 670.709 148.526 669.895H151.558C151.677 670.425 151.925 670.837 152.304 671.131C152.683 671.42 153.152 671.564 153.71 671.564C154.657 671.564 155.377 671.152 155.869 670.328C156.362 669.5 156.61 668.366 156.615 666.926H156.516C156.298 667.352 156.004 667.719 155.635 668.027C155.266 668.33 154.842 668.564 154.364 668.73C153.89 668.896 153.386 668.979 152.851 668.979C151.994 668.979 151.229 668.777 150.557 668.375C149.884 667.973 149.354 667.419 148.966 666.713C148.578 666.008 148.384 665.203 148.384 664.298C148.379 663.323 148.604 662.454 149.058 661.692C149.513 660.929 150.147 660.333 150.962 659.902C151.781 659.466 152.732 659.251 153.817 659.256ZM153.838 661.67C153.36 661.67 152.934 661.784 152.56 662.011C152.19 662.239 151.897 662.544 151.679 662.928C151.466 663.311 151.362 663.74 151.366 664.213C151.366 664.691 151.471 665.122 151.679 665.506C151.892 665.884 152.181 666.187 152.545 666.415C152.915 666.637 153.336 666.749 153.81 666.749C154.165 666.749 154.494 666.682 154.797 666.55C155.1 666.417 155.363 666.235 155.585 666.003C155.813 665.766 155.99 665.494 156.118 665.186C156.246 664.878 156.31 664.552 156.31 664.206C156.305 663.747 156.196 663.325 155.983 662.942C155.77 662.558 155.476 662.25 155.102 662.018C154.728 661.786 154.307 661.67 153.838 661.67Z"
       fill="#1A1A1A"
       id="path112" />
    <path
       d="M304.614 666.455H308.406L312.412 676.227H312.583L316.588 666.455H320.381V681H317.398V671.533H317.277L313.513 680.929H311.482L307.718 671.497H307.597V681H304.614V666.455Z"
       fill="#1A1A1A"
       id="path113" />
    <path
       d="M470.96 675.199C469.899 675.199 468.954 675.017 468.126 674.652C467.302 674.283 466.651 673.776 466.173 673.132C465.699 672.483 465.455 671.735 465.441 670.888H468.538C468.557 671.243 468.673 671.555 468.886 671.825C469.104 672.09 469.392 672.296 469.752 672.443C470.112 672.59 470.517 672.663 470.967 672.663C471.436 672.663 471.85 672.58 472.21 672.415C472.57 672.249 472.851 672.019 473.055 671.726C473.258 671.432 473.36 671.094 473.36 670.71C473.36 670.322 473.251 669.979 473.034 669.68C472.82 669.377 472.513 669.141 472.11 668.97C471.713 668.8 471.239 668.714 470.69 668.714H469.333V666.456H470.69C471.154 666.456 471.563 666.375 471.919 666.214C472.278 666.054 472.558 665.831 472.757 665.547C472.955 665.258 473.055 664.922 473.055 664.538C473.055 664.174 472.967 663.854 472.792 663.58C472.622 663.3 472.38 663.082 472.068 662.926C471.76 662.77 471.4 662.692 470.988 662.692C470.571 662.692 470.19 662.768 469.845 662.919C469.499 663.066 469.222 663.277 469.014 663.551C468.805 663.826 468.694 664.148 468.68 664.517H465.732C465.747 663.679 465.986 662.94 466.45 662.301C466.914 661.662 467.539 661.162 468.325 660.803C469.115 660.438 470.008 660.256 471.002 660.256C472.006 660.256 472.884 660.438 473.637 660.803C474.39 661.167 474.975 661.66 475.392 662.28C475.813 662.895 476.021 663.587 476.017 664.354C476.021 665.168 475.768 665.848 475.257 666.392C474.75 666.937 474.089 667.282 473.275 667.429V667.543C474.345 667.68 475.16 668.052 475.718 668.658C476.282 669.259 476.561 670.012 476.556 670.916C476.561 671.745 476.322 672.481 475.839 673.125C475.361 673.769 474.7 674.276 473.857 674.645C473.015 675.014 472.049 675.199 470.96 675.199ZM485.095 660.455V675H482.02V663.374H481.934L478.604 665.462V662.734L482.204 660.455H485.095ZM493.978 675.199C492.884 675.199 491.911 675.021 491.059 674.666C490.212 674.306 489.546 673.816 489.063 673.196C488.58 672.576 488.339 671.873 488.339 671.087C488.339 670.481 488.476 669.924 488.751 669.418C489.03 668.906 489.409 668.482 489.887 668.146C490.365 667.805 490.901 667.588 491.492 667.493V667.393C490.716 667.237 490.086 666.861 489.603 666.264C489.12 665.663 488.879 664.964 488.879 664.169C488.879 663.416 489.099 662.746 489.539 662.159C489.98 661.567 490.583 661.103 491.35 660.767C492.122 660.426 492.998 660.256 493.978 660.256C494.958 660.256 495.832 660.426 496.599 660.767C497.371 661.108 497.977 661.574 498.417 662.166C498.857 662.753 499.08 663.421 499.085 664.169C499.08 664.969 498.834 665.668 498.346 666.264C497.858 666.861 497.233 667.237 496.471 667.393V667.493C497.053 667.588 497.581 667.805 498.055 668.146C498.533 668.482 498.912 668.906 499.191 669.418C499.475 669.924 499.62 670.481 499.624 671.087C499.62 671.873 499.376 672.576 498.893 673.196C498.41 673.816 497.742 674.306 496.89 674.666C496.043 675.021 495.072 675.199 493.978 675.199ZM493.978 672.94C494.466 672.94 494.892 672.853 495.257 672.678C495.621 672.498 495.905 672.251 496.109 671.939C496.317 671.622 496.421 671.257 496.421 670.845C496.421 670.424 496.315 670.052 496.102 669.73C495.889 669.403 495.6 669.148 495.235 668.963C494.871 668.774 494.452 668.679 493.978 668.679C493.509 668.679 493.09 668.774 492.721 668.963C492.352 669.148 492.061 669.403 491.847 669.73C491.639 670.052 491.535 670.424 491.535 670.845C491.535 671.257 491.637 671.622 491.84 671.939C492.044 672.251 492.33 672.498 492.7 672.678C493.069 672.853 493.495 672.94 493.978 672.94ZM493.978 666.442C494.385 666.442 494.748 666.359 495.065 666.193C495.382 666.027 495.631 665.798 495.811 665.504C495.99 665.211 496.08 664.872 496.08 664.489C496.08 664.11 495.99 663.778 495.811 663.494C495.631 663.205 495.384 662.981 495.072 662.82C494.759 662.654 494.395 662.571 493.978 662.571C493.566 662.571 493.202 662.654 492.884 662.82C492.567 662.981 492.319 663.205 492.139 663.494C491.963 663.778 491.876 664.11 491.876 664.489C491.876 664.872 491.966 665.211 492.146 665.504C492.326 665.798 492.574 666.027 492.892 666.193C493.209 666.359 493.571 666.442 493.978 666.442Z"
       fill="#1A1A1A"
       id="path114" />
    <path
       d="M651.686 682.199C650.626 682.199 649.681 682.017 648.852 681.652C648.029 681.283 647.378 680.776 646.899 680.132C646.426 679.483 646.182 678.735 646.168 677.888H649.264C649.283 678.243 649.399 678.555 649.612 678.825C649.83 679.09 650.119 679.296 650.479 679.443C650.839 679.59 651.244 679.663 651.693 679.663C652.162 679.663 652.576 679.58 652.936 679.415C653.296 679.249 653.578 679.019 653.781 678.726C653.985 678.432 654.087 678.094 654.087 677.71C654.087 677.322 653.978 676.979 653.76 676.68C653.547 676.377 653.239 676.141 652.837 675.97C652.439 675.8 651.966 675.714 651.416 675.714H650.06V673.456H651.416C651.88 673.456 652.29 673.375 652.645 673.214C653.005 673.054 653.284 672.831 653.483 672.547C653.682 672.258 653.781 671.922 653.781 671.538C653.781 671.174 653.694 670.854 653.519 670.58C653.348 670.3 653.107 670.082 652.794 669.926C652.486 669.77 652.127 669.692 651.715 669.692C651.298 669.692 650.917 669.768 650.571 669.919C650.226 670.066 649.949 670.277 649.74 670.551C649.532 670.826 649.421 671.148 649.406 671.517H646.459C646.473 670.679 646.712 669.94 647.176 669.301C647.64 668.662 648.265 668.162 649.051 667.803C649.842 667.438 650.735 667.256 651.729 667.256C652.733 667.256 653.611 667.438 654.364 667.803C655.117 668.167 655.701 668.66 656.118 669.28C656.539 669.895 656.748 670.587 656.743 671.354C656.748 672.168 656.494 672.848 655.983 673.392C655.477 673.937 654.816 674.282 654.002 674.429V674.543C655.072 674.68 655.886 675.052 656.445 675.658C657.008 676.259 657.288 677.012 657.283 677.916C657.288 678.745 657.048 679.481 656.566 680.125C656.087 680.769 655.427 681.276 654.584 681.645C653.741 682.014 652.775 682.199 651.686 682.199ZM665.197 682.32C663.975 682.315 662.924 682.014 662.043 681.418C661.167 680.821 660.492 679.957 660.019 678.825C659.55 677.694 659.318 676.332 659.323 674.741C659.323 673.155 659.557 671.804 660.026 670.686C660.5 669.569 661.174 668.719 662.05 668.136C662.931 667.549 663.98 667.256 665.197 667.256C666.413 667.256 667.46 667.549 668.336 668.136C669.216 668.723 669.894 669.576 670.367 670.693C670.84 671.806 671.075 673.155 671.07 674.741C671.07 676.337 670.833 677.701 670.36 678.832C669.891 679.964 669.219 680.828 668.343 681.425C667.467 682.021 666.418 682.32 665.197 682.32ZM665.197 679.77C666.03 679.77 666.695 679.351 667.192 678.513C667.689 677.675 667.936 676.418 667.931 674.741C667.931 673.638 667.817 672.72 667.59 671.986C667.367 671.252 667.05 670.7 666.638 670.331C666.231 669.962 665.751 669.777 665.197 669.777C664.368 669.777 663.705 670.191 663.208 671.02C662.711 671.848 662.46 673.089 662.455 674.741C662.455 675.859 662.566 676.792 662.789 677.54C663.016 678.283 663.336 678.842 663.748 679.216C664.16 679.585 664.643 679.77 665.197 679.77ZM679.591 667.455V682H676.516V670.374H676.431L673.1 672.462V669.734L676.7 667.455H679.591Z"
       fill="#1A1A1A"
       id="path115" />
    <path
       d="M103.968 737.199C102.907 737.199 101.962 737.017 101.134 736.652C100.31 736.283 99.6588 735.776 99.1806 735.132C98.7071 734.483 98.4632 733.735 98.449 732.888H101.546C101.565 733.243 101.681 733.555 101.894 733.825C102.111 734.09 102.4 734.296 102.76 734.443C103.12 734.59 103.525 734.663 103.975 734.663C104.443 734.663 104.858 734.58 105.218 734.415C105.577 734.249 105.859 734.019 106.063 733.726C106.266 733.432 106.368 733.094 106.368 732.71C106.368 732.322 106.259 731.979 106.041 731.68C105.828 731.377 105.521 731.141 105.118 730.97C104.72 730.8 104.247 730.714 103.698 730.714H102.341V728.456H103.698C104.162 728.456 104.571 728.375 104.926 728.214C105.286 728.054 105.566 727.831 105.764 727.547C105.963 727.258 106.063 726.922 106.063 726.538C106.063 726.174 105.975 725.854 105.8 725.58C105.629 725.3 105.388 725.082 105.075 724.926C104.768 724.77 104.408 724.692 103.996 724.692C103.579 724.692 103.198 724.768 102.852 724.919C102.507 725.066 102.23 725.277 102.021 725.551C101.813 725.826 101.702 726.148 101.688 726.517H98.7402C98.7544 725.679 98.9935 724.94 99.4576 724.301C99.9216 723.662 100.547 723.162 101.333 722.803C102.123 722.438 103.016 722.256 104.01 722.256C105.014 722.256 105.892 722.438 106.645 722.803C107.398 723.167 107.983 723.66 108.399 724.28C108.821 724.895 109.029 725.587 109.024 726.354C109.029 727.168 108.776 727.848 108.264 728.392C107.758 728.937 107.097 729.282 106.283 729.429V729.543C107.353 729.68 108.167 730.052 108.726 730.658C109.289 731.259 109.569 732.012 109.564 732.916C109.569 733.745 109.33 734.481 108.847 735.125C108.369 735.769 107.708 736.276 106.865 736.645C106.022 737.014 105.057 737.199 103.968 737.199ZM117.478 737.32C116.256 737.315 115.205 737.014 114.324 736.418C113.448 735.821 112.774 734.957 112.3 733.825C111.831 732.694 111.599 731.332 111.604 729.741C111.604 728.155 111.839 726.804 112.307 725.686C112.781 724.569 113.456 723.719 114.331 723.136C115.212 722.549 116.261 722.256 117.478 722.256C118.695 722.256 119.741 722.549 120.617 723.136C121.498 723.723 122.175 724.576 122.648 725.693C123.122 726.806 123.356 728.155 123.351 729.741C123.351 731.337 123.115 732.701 122.641 733.832C122.172 734.964 121.5 735.828 120.624 736.425C119.748 737.021 118.699 737.32 117.478 737.32ZM117.478 734.77C118.311 734.77 118.976 734.351 119.474 733.513C119.971 732.675 120.217 731.418 120.212 729.741C120.212 728.638 120.099 727.72 119.871 726.986C119.649 726.252 119.331 725.7 118.92 725.331C118.512 724.962 118.032 724.777 117.478 724.777C116.649 724.777 115.986 725.191 115.489 726.02C114.992 726.848 114.741 728.089 114.736 729.741C114.736 730.859 114.848 731.792 115.07 732.54C115.297 733.283 115.617 733.842 116.029 734.216C116.441 734.585 116.924 734.77 117.478 734.77ZM130.97 737.199C129.877 737.199 128.904 737.021 128.051 736.666C127.204 736.306 126.539 735.816 126.056 735.196C125.573 734.576 125.331 733.873 125.331 733.087C125.331 732.481 125.468 731.924 125.743 731.418C126.022 730.906 126.401 730.482 126.879 730.146C127.358 729.805 127.893 729.588 128.485 729.493V729.393C127.708 729.237 127.078 728.861 126.595 728.264C126.112 727.663 125.871 726.964 125.871 726.169C125.871 725.416 126.091 724.746 126.531 724.159C126.972 723.567 127.575 723.103 128.343 722.767C129.114 722.426 129.99 722.256 130.97 722.256C131.95 722.256 132.824 722.426 133.591 722.767C134.363 723.108 134.969 723.574 135.409 724.166C135.85 724.753 136.072 725.421 136.077 726.169C136.072 726.969 135.826 727.668 135.338 728.264C134.851 728.861 134.226 729.237 133.463 729.393V729.493C134.046 729.588 134.574 729.805 135.047 730.146C135.525 730.482 135.904 730.906 136.183 731.418C136.468 731.924 136.612 732.481 136.617 733.087C136.612 733.873 136.368 734.576 135.885 735.196C135.402 735.816 134.735 736.306 133.882 736.666C133.035 737.021 132.064 737.199 130.97 737.199ZM130.97 734.94C131.458 734.94 131.884 734.853 132.249 734.678C132.613 734.498 132.897 734.251 133.101 733.939C133.309 733.622 133.414 733.257 133.414 732.845C133.414 732.424 133.307 732.052 133.094 731.73C132.881 731.403 132.592 731.148 132.227 730.963C131.863 730.774 131.444 730.679 130.97 730.679C130.502 730.679 130.083 730.774 129.713 730.963C129.344 731.148 129.053 731.403 128.84 731.73C128.631 732.052 128.527 732.424 128.527 732.845C128.527 733.257 128.629 733.622 128.833 733.939C129.036 734.251 129.323 734.498 129.692 734.678C130.061 734.853 130.487 734.94 130.97 734.94ZM130.97 728.442C131.378 728.442 131.74 728.359 132.057 728.193C132.374 728.027 132.623 727.798 132.803 727.504C132.983 727.211 133.073 726.872 133.073 726.489C133.073 726.11 132.983 725.778 132.803 725.494C132.623 725.205 132.377 724.981 132.064 724.82C131.752 724.654 131.387 724.571 130.97 724.571C130.558 724.571 130.194 724.654 129.877 724.82C129.559 724.981 129.311 725.205 129.131 725.494C128.956 725.778 128.868 726.11 128.868 726.489C128.868 726.872 128.958 727.211 129.138 727.504C129.318 727.798 129.566 728.027 129.884 728.193C130.201 728.359 130.563 728.442 130.97 728.442Z"
       fill="#1A1A1A"
       id="path116" />
    <path
       d="M692.78 736.199C691.719 736.199 690.775 736.017 689.946 735.652C689.122 735.283 688.471 734.776 687.993 734.132C687.52 733.483 687.276 732.735 687.262 731.888H690.358C690.377 732.243 690.493 732.555 690.706 732.825C690.924 733.09 691.213 733.296 691.573 733.443C691.932 733.59 692.337 733.663 692.787 733.663C693.256 733.663 693.67 733.58 694.03 733.415C694.39 733.249 694.672 733.019 694.875 732.726C695.079 732.432 695.181 732.094 695.181 731.71C695.181 731.322 695.072 730.979 694.854 730.68C694.641 730.377 694.333 730.141 693.931 729.97C693.533 729.8 693.059 729.714 692.51 729.714H691.154V727.456H692.51C692.974 727.456 693.384 727.375 693.739 727.214C694.099 727.054 694.378 726.831 694.577 726.547C694.776 726.258 694.875 725.922 694.875 725.538C694.875 725.174 694.788 724.854 694.612 724.58C694.442 724.3 694.2 724.082 693.888 723.926C693.58 723.77 693.22 723.692 692.808 723.692C692.392 723.692 692.011 723.768 691.665 723.919C691.319 724.066 691.042 724.277 690.834 724.551C690.626 724.826 690.514 725.148 690.5 725.517H687.553C687.567 724.679 687.806 723.94 688.27 723.301C688.734 722.662 689.359 722.162 690.145 721.803C690.936 721.438 691.828 721.256 692.823 721.256C693.826 721.256 694.705 721.438 695.458 721.803C696.21 722.167 696.795 722.66 697.212 723.28C697.633 723.895 697.842 724.587 697.837 725.354C697.842 726.168 697.588 726.848 697.077 727.392C696.57 727.937 695.91 728.282 695.095 728.429V728.543C696.165 728.68 696.98 729.052 697.539 729.658C698.102 730.259 698.381 731.012 698.377 731.916C698.381 732.745 698.142 733.481 697.659 734.125C697.181 734.769 696.521 735.276 695.678 735.645C694.835 736.014 693.869 736.199 692.78 736.199ZM706.29 736.32C705.069 736.315 704.018 736.014 703.137 735.418C702.261 734.821 701.586 733.957 701.113 732.825C700.644 731.694 700.412 730.332 700.417 728.741C700.417 727.155 700.651 725.804 701.12 724.686C701.593 723.569 702.268 722.719 703.144 722.136C704.025 721.549 705.073 721.256 706.29 721.256C707.507 721.256 708.554 721.549 709.43 722.136C710.31 722.723 710.987 723.576 711.461 724.693C711.934 725.806 712.169 727.155 712.164 728.741C712.164 730.337 711.927 731.701 711.454 732.832C710.985 733.964 710.313 734.828 709.437 735.425C708.561 736.021 707.512 736.32 706.29 736.32ZM706.29 733.77C707.124 733.77 707.789 733.351 708.286 732.513C708.783 731.675 709.029 730.418 709.025 728.741C709.025 727.638 708.911 726.72 708.684 725.986C708.461 725.252 708.144 724.7 707.732 724.331C707.325 723.962 706.844 723.777 706.29 723.777C705.462 723.777 704.799 724.191 704.302 725.02C703.805 725.848 703.554 727.089 703.549 728.741C703.549 729.859 703.66 730.792 703.883 731.54C704.11 732.283 704.43 732.842 704.841 733.216C705.253 733.585 705.736 733.77 706.29 733.77ZM714.357 736V733.784L719.534 728.99C719.975 728.564 720.344 728.18 720.642 727.839C720.945 727.499 721.175 727.165 721.331 726.838C721.487 726.507 721.566 726.149 721.566 725.766C721.566 725.339 721.468 724.973 721.274 724.665C721.08 724.352 720.815 724.113 720.479 723.947C720.143 723.777 719.762 723.692 719.335 723.692C718.89 723.692 718.502 723.782 718.171 723.962C717.839 724.142 717.584 724.4 717.404 724.736C717.224 725.072 717.134 725.472 717.134 725.936H714.215C714.215 724.984 714.43 724.158 714.861 723.457C715.292 722.757 715.896 722.214 716.672 721.831C717.449 721.447 718.343 721.256 719.357 721.256C720.398 721.256 721.305 721.44 722.077 721.81C722.853 722.174 723.457 722.681 723.888 723.33C724.319 723.978 724.534 724.722 724.534 725.56C724.534 726.109 724.425 726.651 724.208 727.186C723.994 727.721 723.613 728.315 723.064 728.969C722.515 729.617 721.741 730.396 720.742 731.305L718.618 733.386V733.486H724.726V736H714.357Z"
       fill="#1A1A1A"
       id="path117" />
    <path
       d="M120.827 796.199C119.766 796.199 118.822 796.017 117.993 795.652C117.169 795.283 116.518 794.776 116.04 794.132C115.566 793.483 115.323 792.735 115.308 791.888H118.405C118.424 792.243 118.54 792.555 118.753 792.825C118.971 793.09 119.26 793.296 119.619 793.443C119.979 793.59 120.384 793.663 120.834 793.663C121.303 793.663 121.717 793.58 122.077 793.415C122.437 793.249 122.718 793.019 122.922 792.726C123.126 792.432 123.227 792.094 123.227 791.71C123.227 791.322 123.119 790.979 122.901 790.68C122.688 790.377 122.38 790.141 121.977 789.97C121.58 789.8 121.106 789.714 120.557 789.714H119.2V787.456H120.557C121.021 787.456 121.431 787.375 121.786 787.214C122.146 787.054 122.425 786.831 122.624 786.547C122.823 786.258 122.922 785.922 122.922 785.538C122.922 785.174 122.834 784.854 122.659 784.58C122.489 784.3 122.247 784.082 121.935 783.926C121.627 783.77 121.267 783.692 120.855 783.692C120.439 783.692 120.057 783.768 119.712 783.919C119.366 784.066 119.089 784.277 118.881 784.551C118.673 784.826 118.561 785.148 118.547 785.517H115.6C115.614 784.679 115.853 783.94 116.317 783.301C116.781 782.662 117.406 782.162 118.192 781.803C118.983 781.438 119.875 781.256 120.869 781.256C121.873 781.256 122.752 781.438 123.504 781.803C124.257 782.167 124.842 782.66 125.259 783.28C125.68 783.895 125.888 784.587 125.884 785.354C125.888 786.168 125.635 786.848 125.124 787.392C124.617 787.937 123.957 788.282 123.142 788.429V788.543C124.212 788.68 125.027 789.052 125.585 789.658C126.149 790.259 126.428 791.012 126.423 791.916C126.428 792.745 126.189 793.481 125.706 794.125C125.228 794.769 124.567 795.276 123.725 795.645C122.882 796.014 121.916 796.199 120.827 796.199ZM134.337 796.32C133.116 796.315 132.064 796.014 131.184 795.418C130.308 794.821 129.633 793.957 129.16 792.825C128.691 791.694 128.459 790.332 128.464 788.741C128.464 787.155 128.698 785.804 129.167 784.686C129.64 783.569 130.315 782.719 131.191 782.136C132.072 781.549 133.12 781.256 134.337 781.256C135.554 781.256 136.6 781.549 137.476 782.136C138.357 782.723 139.034 783.576 139.508 784.693C139.981 785.806 140.215 787.155 140.211 788.741C140.211 790.337 139.974 791.701 139.501 792.832C139.032 793.964 138.359 794.828 137.483 795.425C136.608 796.021 135.559 796.32 134.337 796.32ZM134.337 793.77C135.171 793.77 135.836 793.351 136.333 792.513C136.83 791.675 137.076 790.418 137.072 788.741C137.072 787.638 136.958 786.72 136.731 785.986C136.508 785.252 136.191 784.7 135.779 784.331C135.372 783.962 134.891 783.777 134.337 783.777C133.509 783.777 132.846 784.191 132.349 785.02C131.851 785.848 131.6 787.089 131.596 788.741C131.596 789.859 131.707 790.792 131.93 791.54C132.157 792.283 132.476 792.842 132.888 793.216C133.3 793.585 133.783 793.77 134.337 793.77ZM142.588 796L148.618 784.068V783.969H141.594V781.455H151.8V784.004L145.763 796H142.588Z"
       fill="#1A1A1A"
       id="path118" />
    <path
       d="M232.977 796.199C231.917 796.199 230.972 796.017 230.143 795.652C229.32 795.283 228.669 794.776 228.19 794.132C227.717 793.483 227.473 792.735 227.459 791.888H230.555C230.574 792.243 230.69 792.555 230.903 792.825C231.121 793.09 231.41 793.296 231.77 793.443C232.13 793.59 232.535 793.663 232.984 793.663C233.453 793.663 233.867 793.58 234.227 793.415C234.587 793.249 234.869 793.019 235.072 792.726C235.276 792.432 235.378 792.094 235.378 791.71C235.378 791.322 235.269 790.979 235.051 790.68C234.838 790.377 234.53 790.141 234.128 789.97C233.73 789.8 233.257 789.714 232.707 789.714H231.351V787.456H232.707C233.171 787.456 233.581 787.375 233.936 787.214C234.296 787.054 234.575 786.831 234.774 786.547C234.973 786.258 235.072 785.922 235.072 785.538C235.072 785.174 234.985 784.854 234.81 784.58C234.639 784.3 234.398 784.082 234.085 783.926C233.777 783.77 233.418 783.692 233.006 783.692C232.589 783.692 232.208 783.768 231.862 783.919C231.517 784.066 231.24 784.277 231.031 784.551C230.823 784.826 230.712 785.148 230.697 785.517H227.75C227.764 784.679 228.003 783.94 228.467 783.301C228.931 782.662 229.556 782.162 230.342 781.803C231.133 781.438 232.026 781.256 233.02 781.256C234.024 781.256 234.902 781.438 235.655 781.803C236.408 782.167 236.992 782.66 237.409 783.28C237.83 783.895 238.039 784.587 238.034 785.354C238.039 786.168 237.786 786.848 237.274 787.392C236.768 787.937 236.107 788.282 235.293 788.429V788.543C236.363 788.68 237.177 789.052 237.736 789.658C238.299 790.259 238.579 791.012 238.574 791.916C238.579 792.745 238.339 793.481 237.857 794.125C237.378 794.769 236.718 795.276 235.875 795.645C235.032 796.014 234.066 796.199 232.977 796.199ZM246.488 796.32C245.266 796.315 244.215 796.014 243.334 795.418C242.458 794.821 241.783 793.957 241.31 792.825C240.841 791.694 240.609 790.332 240.614 788.741C240.614 787.155 240.848 785.804 241.317 784.686C241.791 783.569 242.465 782.719 243.341 782.136C244.222 781.549 245.271 781.256 246.488 781.256C247.704 781.256 248.751 781.549 249.627 782.136C250.507 782.723 251.185 783.576 251.658 784.693C252.132 785.806 252.366 787.155 252.361 788.741C252.361 790.337 252.124 791.701 251.651 792.832C251.182 793.964 250.51 794.828 249.634 795.425C248.758 796.021 247.709 796.32 246.488 796.32ZM246.488 793.77C247.321 793.77 247.986 793.351 248.483 792.513C248.98 791.675 249.227 790.418 249.222 788.741C249.222 787.638 249.108 786.72 248.881 785.986C248.658 785.252 248.341 784.7 247.929 784.331C247.522 783.962 247.042 783.777 246.488 783.777C245.659 783.777 244.996 784.191 244.499 785.02C244.002 785.848 243.751 787.089 243.746 788.741C243.746 789.859 243.857 790.792 244.08 791.54C244.307 792.283 244.627 792.842 245.039 793.216C245.451 793.585 245.934 793.77 246.488 793.77ZM260.136 796.199C259.388 796.194 258.666 796.069 257.97 795.822C257.279 795.576 256.659 795.176 256.109 794.622C255.56 794.068 255.125 793.334 254.803 792.42C254.485 791.507 254.327 790.384 254.327 789.054C254.331 787.832 254.471 786.741 254.746 785.78C255.025 784.814 255.423 783.995 255.939 783.322C256.46 782.65 257.082 782.139 257.807 781.788C258.531 781.433 259.343 781.256 260.243 781.256C261.214 781.256 262.071 781.445 262.814 781.824C263.557 782.198 264.154 782.707 264.604 783.351C265.058 783.995 265.333 784.717 265.428 785.517H262.395C262.277 785.01 262.028 784.613 261.649 784.324C261.27 784.035 260.802 783.891 260.243 783.891C259.296 783.891 258.576 784.303 258.084 785.126C257.596 785.95 257.348 787.07 257.338 788.486H257.438C257.655 788.055 257.949 787.688 258.318 787.385C258.692 787.077 259.116 786.843 259.589 786.682C260.068 786.516 260.572 786.433 261.102 786.433C261.964 786.433 262.731 786.637 263.403 787.044C264.076 787.446 264.606 788 264.994 788.706C265.383 789.411 265.577 790.219 265.577 791.128C265.577 792.113 265.347 792.989 264.888 793.756C264.433 794.523 263.796 795.124 262.977 795.56C262.163 795.991 261.216 796.204 260.136 796.199ZM260.122 793.784C260.596 793.784 261.019 793.67 261.393 793.443C261.768 793.216 262.061 792.908 262.274 792.52C262.487 792.132 262.594 791.696 262.594 791.213C262.594 790.73 262.487 790.297 262.274 789.913C262.066 789.53 261.777 789.224 261.408 788.997C261.038 788.77 260.617 788.656 260.143 788.656C259.788 788.656 259.459 788.723 259.156 788.855C258.858 788.988 258.595 789.172 258.368 789.409C258.145 789.646 257.97 789.92 257.842 790.233C257.714 790.541 257.651 790.87 257.651 791.22C257.651 791.689 257.757 792.117 257.97 792.506C258.188 792.894 258.482 793.204 258.851 793.436C259.225 793.668 259.649 793.784 260.122 793.784Z"
       fill="#1A1A1A"
       id="path119" />
    <path
       d="M356.634 796.199C355.573 796.199 354.628 796.017 353.8 795.652C352.976 795.283 352.325 794.776 351.847 794.132C351.373 793.483 351.129 792.735 351.115 791.888H354.212C354.231 792.243 354.347 792.555 354.56 792.825C354.777 793.09 355.066 793.296 355.426 793.443C355.786 793.59 356.191 793.663 356.641 793.663C357.109 793.663 357.524 793.58 357.884 793.415C358.243 793.249 358.525 793.019 358.729 792.726C358.932 792.432 359.034 792.094 359.034 791.71C359.034 791.322 358.925 790.979 358.707 790.68C358.494 790.377 358.187 790.141 357.784 789.97C357.386 789.8 356.913 789.714 356.364 789.714H355.007V787.456H356.364C356.828 787.456 357.237 787.375 357.592 787.214C357.952 787.054 358.232 786.831 358.43 786.547C358.629 786.258 358.729 785.922 358.729 785.538C358.729 785.174 358.641 784.854 358.466 784.58C358.295 784.3 358.054 784.082 357.741 783.926C357.434 783.77 357.074 783.692 356.662 783.692C356.245 783.692 355.864 783.768 355.518 783.919C355.173 784.066 354.896 784.277 354.688 784.551C354.479 784.826 354.368 785.148 354.354 785.517H351.406C351.42 784.679 351.66 783.94 352.124 783.301C352.588 782.662 353.213 782.162 353.999 781.803C354.789 781.438 355.682 781.256 356.676 781.256C357.68 781.256 358.558 781.438 359.311 781.803C360.064 782.167 360.649 782.66 361.065 783.28C361.487 783.895 361.695 784.587 361.69 785.354C361.695 786.168 361.442 786.848 360.93 787.392C360.424 787.937 359.763 788.282 358.949 788.429V788.543C360.019 788.68 360.833 789.052 361.392 789.658C361.955 790.259 362.235 791.012 362.23 791.916C362.235 792.745 361.996 793.481 361.513 794.125C361.035 794.769 360.374 795.276 359.531 795.645C358.688 796.014 357.723 796.199 356.634 796.199ZM370.144 796.32C368.922 796.315 367.871 796.014 366.99 795.418C366.114 794.821 365.44 793.957 364.966 792.825C364.498 791.694 364.266 790.332 364.27 788.741C364.27 787.155 364.505 785.804 364.973 784.686C365.447 783.569 366.122 782.719 366.998 782.136C367.878 781.549 368.927 781.256 370.144 781.256C371.361 781.256 372.407 781.549 373.283 782.136C374.164 782.723 374.841 783.576 375.314 784.693C375.788 785.806 376.022 787.155 376.017 788.741C376.017 790.337 375.781 791.701 375.307 792.832C374.838 793.964 374.166 794.828 373.29 795.425C372.414 796.021 371.365 796.32 370.144 796.32ZM370.144 793.77C370.977 793.77 371.642 793.351 372.14 792.513C372.637 791.675 372.883 790.418 372.878 788.741C372.878 787.638 372.765 786.72 372.537 785.986C372.315 785.252 371.998 784.7 371.586 784.331C371.178 783.962 370.698 783.777 370.144 783.777C369.315 783.777 368.652 784.191 368.155 785.02C367.658 785.848 367.407 787.089 367.402 788.741C367.402 789.859 367.514 790.792 367.736 791.54C367.963 792.283 368.283 792.842 368.695 793.216C369.107 793.585 369.59 793.77 370.144 793.77ZM383.523 796.199C382.519 796.199 381.624 796.014 380.838 795.645C380.057 795.276 379.437 794.767 378.977 794.118C378.518 793.469 378.279 792.726 378.26 791.888H381.243C381.276 792.451 381.513 792.908 381.953 793.259C382.393 793.609 382.917 793.784 383.523 793.784C384.006 793.784 384.432 793.678 384.801 793.464C385.175 793.247 385.466 792.946 385.675 792.562C385.888 792.174 385.994 791.729 385.994 791.227C385.994 790.716 385.885 790.266 385.668 789.878C385.455 789.49 385.159 789.187 384.78 788.969C384.401 788.751 383.968 788.64 383.48 788.635C383.054 788.635 382.64 788.723 382.237 788.898C381.839 789.073 381.529 789.312 381.307 789.615L378.572 789.125L379.261 781.455H388.153V783.969H381.797L381.42 787.612H381.506C381.761 787.252 382.147 786.954 382.663 786.717C383.179 786.481 383.757 786.362 384.396 786.362C385.272 786.362 386.054 786.568 386.74 786.98C387.427 787.392 387.969 787.958 388.366 788.678C388.764 789.393 388.961 790.216 388.956 791.149C388.961 792.129 388.733 793 388.274 793.763C387.82 794.52 387.183 795.117 386.364 795.553C385.549 795.983 384.602 796.199 383.523 796.199Z"
       fill="#1A1A1A"
       id="path120" />
    <path
       d="M491.801 796.199C490.741 796.199 489.796 796.017 488.968 795.652C488.144 795.283 487.493 794.776 487.015 794.132C486.541 793.483 486.297 792.735 486.283 791.888H489.38C489.399 792.243 489.515 792.555 489.728 792.825C489.945 793.09 490.234 793.296 490.594 793.443C490.954 793.59 491.359 793.663 491.809 793.663C492.277 793.663 492.692 793.58 493.051 793.415C493.411 793.249 493.693 793.019 493.897 792.726C494.1 792.432 494.202 792.094 494.202 791.71C494.202 791.322 494.093 790.979 493.875 790.68C493.662 790.377 493.355 790.141 492.952 789.97C492.554 789.8 492.081 789.714 491.532 789.714H490.175V787.456H491.532C491.996 787.456 492.405 787.375 492.76 787.214C493.12 787.054 493.4 786.831 493.598 786.547C493.797 786.258 493.897 785.922 493.897 785.538C493.897 785.174 493.809 784.854 493.634 784.58C493.463 784.3 493.222 784.082 492.909 783.926C492.602 783.77 492.242 783.692 491.83 783.692C491.413 783.692 491.032 783.768 490.686 783.919C490.341 784.066 490.064 784.277 489.855 784.551C489.647 784.826 489.536 785.148 489.522 785.517H486.574C486.588 784.679 486.828 783.94 487.292 783.301C487.756 782.662 488.381 782.162 489.167 781.803C489.957 781.438 490.85 781.256 491.844 781.256C492.848 781.256 493.726 781.438 494.479 781.803C495.232 782.167 495.817 782.66 496.233 783.28C496.655 783.895 496.863 784.587 496.858 785.354C496.863 786.168 496.61 786.848 496.098 787.392C495.592 787.937 494.931 788.282 494.117 788.429V788.543C495.187 788.68 496.001 789.052 496.56 789.658C497.123 790.259 497.403 791.012 497.398 791.916C497.403 792.745 497.164 793.481 496.681 794.125C496.203 794.769 495.542 795.276 494.699 795.645C493.856 796.014 492.891 796.199 491.801 796.199ZM505.312 796.32C504.09 796.315 503.039 796.014 502.158 795.418C501.282 794.821 500.608 793.957 500.134 792.825C499.665 791.694 499.433 790.332 499.438 788.741C499.438 787.155 499.673 785.804 500.141 784.686C500.615 783.569 501.29 782.719 502.165 782.136C503.046 781.549 504.095 781.256 505.312 781.256C506.529 781.256 507.575 781.549 508.451 782.136C509.332 782.723 510.009 783.576 510.482 784.693C510.956 785.806 511.19 787.155 511.185 788.741C511.185 790.337 510.949 791.701 510.475 792.832C510.006 793.964 509.334 794.828 508.458 795.425C507.582 796.021 506.533 796.32 505.312 796.32ZM505.312 793.77C506.145 793.77 506.81 793.351 507.308 792.513C507.805 791.675 508.051 790.418 508.046 788.741C508.046 787.638 507.933 786.72 507.705 785.986C507.483 785.252 507.165 784.7 506.754 784.331C506.346 783.962 505.866 783.777 505.312 783.777C504.483 783.777 503.82 784.191 503.323 785.02C502.826 785.848 502.575 787.089 502.57 788.741C502.57 789.859 502.682 790.792 502.904 791.54C503.131 792.283 503.451 792.842 503.863 793.216C504.275 793.585 504.758 793.77 505.312 793.77ZM513.158 793.443V791.021L519.23 781.455H521.319V784.807H520.083L516.255 790.865V790.979H524.884V793.443H513.158ZM520.14 796V792.705L520.196 791.632V781.455H523.08V796H520.14Z"
       fill="#1A1A1A"
       id="path121" />
    <path
       d="M651.987 796.199C650.926 796.199 649.982 796.017 649.153 795.652C648.329 795.283 647.678 794.776 647.2 794.132C646.727 793.483 646.483 792.735 646.469 791.888H649.565C649.584 792.243 649.7 792.555 649.913 792.825C650.131 793.09 650.42 793.296 650.78 793.443C651.14 793.59 651.544 793.663 651.994 793.663C652.463 793.663 652.877 793.58 653.237 793.415C653.597 793.249 653.879 793.019 654.082 792.726C654.286 792.432 654.388 792.094 654.388 791.71C654.388 791.322 654.279 790.979 654.061 790.68C653.848 790.377 653.54 790.141 653.138 789.97C652.74 789.8 652.266 789.714 651.717 789.714H650.361V787.456H651.717C652.181 787.456 652.591 787.375 652.946 787.214C653.306 787.054 653.585 786.831 653.784 786.547C653.983 786.258 654.082 785.922 654.082 785.538C654.082 785.174 653.995 784.854 653.819 784.58C653.649 784.3 653.407 784.082 653.095 783.926C652.787 783.77 652.427 783.692 652.015 783.692C651.599 783.692 651.218 783.768 650.872 783.919C650.526 784.066 650.249 784.277 650.041 784.551C649.833 784.826 649.721 785.148 649.707 785.517H646.76C646.774 784.679 647.013 783.94 647.477 783.301C647.941 782.662 648.566 782.162 649.352 781.803C650.143 781.438 651.035 781.256 652.03 781.256C653.033 781.256 653.912 781.438 654.665 781.803C655.417 782.167 656.002 782.66 656.419 783.28C656.84 783.895 657.049 784.587 657.044 785.354C657.049 786.168 656.795 786.848 656.284 787.392C655.777 787.937 655.117 788.282 654.302 788.429V788.543C655.372 788.68 656.187 789.052 656.746 789.658C657.309 790.259 657.588 791.012 657.584 791.916C657.588 792.745 657.349 793.481 656.866 794.125C656.388 794.769 655.728 795.276 654.885 795.645C654.042 796.014 653.076 796.199 651.987 796.199ZM665.497 796.32C664.276 796.315 663.225 796.014 662.344 795.418C661.468 794.821 660.793 793.957 660.32 792.825C659.851 791.694 659.619 790.332 659.624 788.741C659.624 787.155 659.858 785.804 660.327 784.686C660.8 783.569 661.475 782.719 662.351 782.136C663.232 781.549 664.28 781.256 665.497 781.256C666.714 781.256 667.761 781.549 668.637 782.136C669.517 782.723 670.194 783.576 670.668 784.693C671.141 785.806 671.376 787.155 671.371 788.741C671.371 790.337 671.134 791.701 670.661 792.832C670.192 793.964 669.52 794.828 668.644 795.425C667.768 796.021 666.719 796.32 665.497 796.32ZM665.497 793.77C666.331 793.77 666.996 793.351 667.493 792.513C667.99 791.675 668.236 790.418 668.232 788.741C668.232 787.638 668.118 786.72 667.891 785.986C667.668 785.252 667.351 784.7 666.939 784.331C666.532 783.962 666.051 783.777 665.497 783.777C664.669 783.777 664.006 784.191 663.509 785.02C663.012 785.848 662.761 787.089 662.756 788.741C662.756 789.859 662.867 790.792 663.09 791.54C663.317 792.283 663.637 792.842 664.048 793.216C664.46 793.585 664.943 793.77 665.497 793.77ZM678.94 796.199C677.88 796.199 676.935 796.017 676.106 795.652C675.282 795.283 674.631 794.776 674.153 794.132C673.68 793.483 673.436 792.735 673.422 791.888H676.518C676.537 792.243 676.653 792.555 676.866 792.825C677.084 793.09 677.373 793.296 677.733 793.443C678.093 793.59 678.497 793.663 678.947 793.663C679.416 793.663 679.83 793.58 680.19 793.415C680.55 793.249 680.832 793.019 681.035 792.726C681.239 792.432 681.341 792.094 681.341 791.71C681.341 791.322 681.232 790.979 681.014 790.68C680.801 790.377 680.493 790.141 680.091 789.97C679.693 789.8 679.22 789.714 678.67 789.714H677.314V787.456H678.67C679.134 787.456 679.544 787.375 679.899 787.214C680.259 787.054 680.538 786.831 680.737 786.547C680.936 786.258 681.035 785.922 681.035 785.538C681.035 785.174 680.948 784.854 680.773 784.58C680.602 784.3 680.361 784.082 680.048 783.926C679.74 783.77 679.381 783.692 678.969 783.692C678.552 783.692 678.171 783.768 677.825 783.919C677.479 784.066 677.202 784.277 676.994 784.551C676.786 784.826 676.675 785.148 676.66 785.517H673.713C673.727 784.679 673.966 783.94 674.43 783.301C674.894 782.662 675.519 782.162 676.305 781.803C677.096 781.438 677.988 781.256 678.983 781.256C679.987 781.256 680.865 781.438 681.618 781.803C682.371 782.167 682.955 782.66 683.372 783.28C683.793 783.895 684.002 784.587 683.997 785.354C684.002 786.168 683.748 786.848 683.237 787.392C682.73 787.937 682.07 788.282 681.256 788.429V788.543C682.326 788.68 683.14 789.052 683.699 789.658C684.262 790.259 684.541 791.012 684.537 791.916C684.541 792.745 684.302 793.481 683.819 794.125C683.341 794.769 682.681 795.276 681.838 795.645C680.995 796.014 680.029 796.199 678.94 796.199Z"
       fill="#1A1A1A"
       id="path122" />
    <path
       d="M62.5 709.5L179 710"
       stroke="#1A1A1A"
       stroke-width="2.5"
       id="path123" />
    <path
       d="M337 640L337 711"
       stroke="#1A1A1A"
       stroke-width="2"
       id="path124" />
    <path
       d="M448 640L447.5 711"
       stroke="#1A1A1A"
       stroke-width="2"
       id="path125" />
    <path
       d="M666 710V750"
       stroke="#1A1A1A"
       stroke-width="2"
       id="path126" />
    <path
       d="M666 722V737"
       stroke="#FCFCFC"
       stroke-width="7"
       id="path127" />
    <path
       d="M577.5 641.5V710.5M576 749.5V828"
       stroke="#1A1A1A"
       stroke-width="2.5"
       id="path128" />
    <path
       d="M400.5 93V130.5"
       stroke="#1A1A1A"
       stroke-width="2.5"
       stroke-linecap="square"
       id="path129" />
    <path
       d="M736 772V757"
       stroke="#FCFCFC"
       stroke-width="7"
       id="path130" />
    <path
       d="M390 635H412V647H390V635Z"
       fill="#1A1A1A"
       id="path131" />
    <rect
       id="rect132"
       width="143.25192"
       height="107.96915"
       x="221.52956"
       y="141.70952"
       inkscape:label="rect314" />
    <rect
       id="rect133"
       width="142.86632"
       height="108.16196"
       x="435.73264"
       y="141.32391"
       inkscape:label="rect315" />
    <rect
       id="rect134"
       width="142.67352"
       height="71.915169"
       x="221.72237"
       y="250.25706"
       inkscape:label="rect313" />
    <rect
       id="rect135"
       width="142.67352"
       height="73.071976"
       x="435.15424"
       y="250.25706"
       inkscape:label="rect316" />
    <rect
       id="rect136"
       width="142.87556"
       height="162.77998"
       x="221.40259"
       y="323.37866"
       inkscape:label="rect312" />
    <rect
       id="rect137"
       width="142.05757"
       height="163.59798"
       x="435.17059"
       y="323.37866"
       inkscape:label="rect317" />
    <rect
       id="rect138"
       width="142.33023"
       height="50.170044"
       x="221.94791"
       y="487.79462"
       inkscape:label="rect311" />
    <rect
       id="rect139"
       width="159.23535"
       height="67.620491"
       x="60.53125"
       y="641.57672"
       inkscape:label="rect309" />
    <rect
       id="rect140"
       width="100.61275"
       height="39.263512"
       x="61.349239"
       y="710.28784"
       inkscape:label="rect308" />
    <rect
       id="rect141"
       width="142.60289"
       height="77.436371"
       x="61.894566"
       y="750.91467"
       inkscape:label="rect307" />
    <rect
       id="rect142"
       width="97.34079"
       height="77.981697"
       x="204.77013"
       y="750.64203"
       inkscape:label="rect306" />
    <rect
       id="rect143"
       width="132.78702"
       height="77.981697"
       x="301.83826"
       y="750.36938"
       inkscape:label="rect305" />
    <rect
       id="rect144"
       width="140.69426"
       height="78.254364"
       x="434.89795"
       y="750.64203"
       inkscape:label="rect304" />
    <rect
       id="rect145"
       width="183.22972"
       height="78.254364"
       x="575.86487"
       y="750.36938"
       inkscape:label="rect303" />
    <rect
       id="rect146"
       width="92.432854"
       height="38.718185"
       x="666.11639"
       y="710.56055"
       inkscape:label="rect302" />
    <rect
       id="rect147"
       width="181.04842"
       height="68.711151"
       x="577.7735"
       y="641.30402"
       inkscape:label="rect301" />
    <rect
       id="rect148"
       width="66.529839"
       height="67.893158"
       x="447.7131"
       y="641.57672"
       inkscape:label="rect318" />
    <rect
       id="rect149"
       width="50.170044"
       height="68.711151"
       x="286.84177"
       y="641.03137"
       inkscape:label="rect-wc-m" />
    <rect
       id="rect150"
       width="67.347832"
       height="69.256477"
       x="220.31194"
       y="641.30402"
       inkscape:label="rect-stairs-left" />
    <rect
       id="rect151"
       width="64.075874"
       height="68.711151"
       x="513.97028"
       y="641.30402"
       inkscape:label="rect-stairs-right" />
    <rect
       id="rect152"
       width="68.711151"
       height="40.899494"
       x="365.64145"
       y="90.524208"
       inkscape:label="rect-stairs-center" />
  </g>
  <defs
     id="defs131">
    <clipPath
       id="clip0_9_2">
      <rect
         width="820"
         height="900"
         fill="white"
         id="rect131" />
    </clipPath>
  </defs>
</svg>
