<?xml version="1.0" encoding="UTF-8" standalone="no"?>
<svg
   width="820"
   height="900"
   viewBox="0 0 820 900"
   fill="none"
   version="1.1"
   id="svg131"
   sodipodi:docname="4 этаж(с кабинетами).svg"
   inkscape:version="1.4.2 (f4327f4, 2025-05-13)"
   xmlns:inkscape="http://www.inkscape.org/namespaces/inkscape"
   xmlns:sodipodi="http://sodipodi.sourceforge.net/DTD/sodipodi-0.dtd"
   xmlns="http://www.w3.org/2000/svg"
   xmlns:svg="http://www.w3.org/2000/svg">
  <sodipodi:namedview
     id="namedview131"
     pagecolor="#ffffff"
     bordercolor="#000000"
     borderopacity="0.25"
     inkscape:showpageshadow="2"
     inkscape:pageopacity="0.0"
     inkscape:pagecheckerboard="0"
     inkscape:deskcolor="#d1d1d1"
     inkscape:zoom="1.8337636"
     inkscape:cx="378.18398"
     inkscape:cy="721.19439"
     inkscape:window-width="2560"
     inkscape:window-height="1369"
     inkscape:window-x="-8"
     inkscape:window-y="-8"
     inkscape:window-maximized="1"
     inkscape:current-layer="g131" />
  <g
     clip-path="url(#clip0_9_2)"
     id="g131">
    <rect
       width="820"
       height="900"
       fill="white"
       id="rect1" />
    <path
       d="M401.5 647V711H399V647H401.5Z"
       fill="black"
       id="path1" />
    <line
       x1="365"
       y1="538.75"
       x2="437"
       y2="538.75"
       stroke="#1A1A1A"
       stroke-width="2.5"
       id="line1" />
    <path
       d="M220 140H365V90H435V140H580V540H435V640H760V830H60V640H365V540H220V140Z"
       stroke="#1A1A1A"
       stroke-width="5"
       stroke-linecap="square"
       id="path2" />
    <path
       d="M365 140V540"
       stroke="#1A1A1A"
       stroke-width="2.5"
       stroke-linecap="square"
       id="path3" />
    <path
       d="M435 140V540"
       stroke="#1A1A1A"
       stroke-width="2.5"
       stroke-linecap="square"
       id="path4" />
    <path
       d="M220 250H365"
       stroke="#1A1A1A"
       stroke-width="2.5"
       stroke-linecap="square"
       id="path5" />
    <path
       d="M 220.98209,323 H 363.90477"
       stroke="#1a1a1a"
       stroke-width="2.5"
       stroke-linecap="square"
       id="path6" />
    <path
       d="M 220.98693,487 H 364.47065"
       stroke="#1a1a1a"
       stroke-width="2.5"
       stroke-linecap="square"
       id="path7" />
    <path
       d="M435 250H580"
       stroke="#1A1A1A"
       stroke-width="2.5"
       stroke-linecap="square"
       id="path8" />
    <path
       d="m 435.6142,322.86367 h 145"
       stroke="#1a1a1a"
       stroke-width="2.5"
       stroke-linecap="square"
       id="path9" />
    <path
       d="M435 487H580"
       stroke="#1A1A1A"
       stroke-width="2.5"
       stroke-linecap="square"
       id="path10" />
    <path
       d="M180 710H400"
       stroke="#1A1A1A"
       stroke-width="2.5"
       stroke-linecap="square"
       id="path11" />
    <path
       d="M448 710H620"
       stroke="#1A1A1A"
       stroke-width="2.5"
       stroke-linecap="square"
       id="path12" />
    <path
       d="M60 750H760"
       stroke="#1A1A1A"
       stroke-width="2.5"
       stroke-linecap="square"
       id="path13" />
    <path
       d="M220 640V710"
       stroke="#1A1A1A"
       stroke-width="2.5"
       stroke-linecap="square"
       id="path14" />
    <path
       d="M287 640V710"
       stroke="#1A1A1A"
       stroke-width="2.5"
       stroke-linecap="square"
       id="path15" />
    <path
       d="M162 710V750"
       stroke="#1A1A1A"
       stroke-width="2.5"
       stroke-linecap="square"
       id="path16" />
    <path
       d="M205 750V830"
       stroke="#1A1A1A"
       stroke-width="2.5"
       stroke-linecap="square"
       id="path17" />
    <path
       d="M302 750V830"
       stroke="#1A1A1A"
       stroke-width="2.5"
       stroke-linecap="square"
       id="path18" />
    <path
       d="M435 750V830"
       stroke="#1A1A1A"
       stroke-width="2.5"
       stroke-linecap="square"
       id="path19" />
    <path
       d="M514 640V710"
       stroke="#1A1A1A"
       stroke-width="2.5"
       stroke-linecap="square"
       id="path20" />
    <path
       d="M620 710H760"
       stroke="#1A1A1A"
       stroke-width="2.5"
       stroke-linecap="square"
       id="path21" />
    <path
       d="M722 828.5L736.5 806V749"
       stroke="#1A1A1A"
       stroke-width="1.5"
       id="path22" />
    <path
       d="M365 221V241"
       stroke="#FCFCFC"
       stroke-width="7"
       id="path23" />
    <path
       d="M365 275V295"
       stroke="#FCFCFC"
       stroke-width="7"
       id="path24" />
    <path
       d="M323.004 260.995H343.004"
       stroke="#FCFCFC"
       stroke-width="7"
       id="path25" />
    <path
       d="M366 411V431"
       stroke="#FCFCFC"
       stroke-width="7"
       id="path27" />
    <path
       d="M365 505V525"
       stroke="#FCFCFC"
       stroke-width="7"
       id="path28" />
    <path
       d="M435 221V241"
       stroke="#FCFCFC"
       stroke-width="7"
       id="path29" />
    <path
       d="M435 275V295"
       stroke="#FCFCFC"
       stroke-width="7"
       id="path30" />
    <path
       d="M435 411V431"
       stroke="#FCFCFC"
       stroke-width="7"
       id="path31" />
    <path
       d="M435 505V525"
       stroke="#FCFCFC"
       stroke-width="7"
       id="path32" />
    <path
       d="M304 709H319"
       stroke="#FCFCFC"
       stroke-width="7"
       id="path33" />
    <path
       d="M162 721V736"
       stroke="#FCFCFC"
       stroke-width="7"
       id="path34" />
    <path
       d="M179 750H194"
       stroke="#FCFCFC"
       stroke-width="7"
       id="path35" />
    <path
       d="M235 751H250"
       stroke="#FCFCFC"
       stroke-width="7"
       id="path36" />
    <path
       d="M316 750H331"
       stroke="#FCFCFC"
       stroke-width="7"
       id="path37" />
    <path
       d="M475 711H490"
       stroke="#FCFCFC"
       stroke-width="7"
       id="path38" />
    <path
       d="M400 700V685"
       stroke="#FCFCFC"
       stroke-width="7"
       id="path39" />
    <path
       d="M630 710H645"
       stroke="#FCFCFC"
       stroke-width="7"
       id="path40" />
    <path
       d="M520 750H535"
       stroke="#FCFCFC"
       stroke-width="7"
       id="path41" />
    <path
       d="M630 750H645"
       stroke="#FCFCFC"
       stroke-width="7"
       id="path42" />
    <path
       d="M181 710H196"
       stroke="#FCFCFC"
       stroke-width="7"
       id="path43" />
    <path
       d="M410 550L390 550"
       stroke="#FCFCFC"
       stroke-width="9"
       id="path44" />
    <path
       d="M365 95H435M365 101H435M365 107H435M365 113H435M365 119H435M365 125H435M365 131H435"
       stroke="#1A1A1A"
       stroke-width="1.5"
       id="path45" />
    <path
       d="M253 640V710"
       stroke="#1A1A1A"
       stroke-width="2.5"
       stroke-linecap="square"
       id="path46" />
    <path
       d="M254 645H286M254 651H286M254 657H286M254 663H286M254 669H286M254 675H286M254 681H286M254 687H286M254 693H286M254 699H286M254 705H286"
       stroke="#1A1A1A"
       stroke-width="1.5"
       id="path47" />
    <path
       d="M545 640V710"
       stroke="#1A1A1A"
       stroke-width="2.5"
       stroke-linecap="square"
       id="path48" />
    <path
       d="M514 645H544M514 651H544M514 657H544M514 663H544M514 669H544M514 675H544M514 681H544M514 687H544M514 693H544M514 699H544M514 705H544"
       stroke="#1A1A1A"
       stroke-width="1.5"
       id="path49" />
    <path
       d="m 546,645 h 31.09065 M 546,651 h 31.09065 M 546,657 h 31.09065 M 546,663 h 31.09065 M 546,669 h 31.09065 M 546,675 h 31.09065 M 546,681 h 31.09065 M 546,687 h 31.09065 M 546,693 h 31.09065 M 546,699 h 31.09065 M 546,705 h 31.09065"
       stroke="#1a1a1a"
       stroke-width="1.5"
       id="path50" />
    <path
       d="M221 645H253M221 651H253M221 657H253M221 663H253M221 669H253M221 675H253M221 681H253M221 687H253M221 693H253M221 699H253M221 705H253"
       stroke="#1A1A1A"
       stroke-width="1.5"
       id="path51" />
    <path
       d="M223 180H217V210H223V180Z"
       fill="#FCFCFC"
       stroke="#1A1A1A"
       stroke-width="1.5"
       id="path52" />
    <path
       d="M220 180V210"
       stroke="#1A1A1A"
       id="path53" />
    <path
       d="M223 270H217V300H223V270Z"
       fill="#FCFCFC"
       stroke="#1A1A1A"
       stroke-width="1.5"
       id="path54" />
    <path
       d="M220 270V300"
       stroke="#1A1A1A"
       id="path55" />
    <path
       d="M223 385H217V415H223V385Z"
       fill="#FCFCFC"
       stroke="#1A1A1A"
       stroke-width="1.5"
       id="path56" />
    <path
       d="M220 385V415"
       stroke="#1A1A1A"
       id="path57" />
    <path
       d="m 222.72734,497.90372 h -6 v 30 h 6 z"
       fill="#fcfcfc"
       stroke="#1a1a1a"
       stroke-width="1.5"
       id="path58" />
    <path
       d="m 219.72734,497.90372 v 30"
       stroke="#1a1a1a"
       id="path59" />
    <path
       d="M60 660V690"
       stroke="#1A1A1A"
       id="path60" />
    <path
       d="M60 715V745"
       stroke="#1A1A1A"
       id="path61" />
    <path
       d="M583 180H577V210H583V180Z"
       fill="#FCFCFC"
       stroke="#1A1A1A"
       stroke-width="1.5"
       id="path62" />
    <path
       d="M580 180V210"
       stroke="#1A1A1A"
       id="path63" />
    <path
       d="M583 270H577V300H583V270Z"
       fill="#FCFCFC"
       stroke="#1A1A1A"
       stroke-width="1.5"
       id="path64" />
    <path
       d="M580 270V300"
       stroke="#1A1A1A"
       id="path65" />
    <path
       d="M583 385H577V415H583V385Z"
       fill="#FCFCFC"
       stroke="#1A1A1A"
       stroke-width="1.5"
       id="path66" />
    <path
       d="M580 385V415"
       stroke="#1A1A1A"
       id="path67" />
    <path
       d="m 582.7108,498.13625 h -6 v 30 h 6 z"
       fill="#fcfcfc"
       stroke="#1a1a1a"
       stroke-width="1.5"
       id="path68" />
    <path
       d="m 579.7108,498.13625 v 30"
       stroke="#1a1a1a"
       id="path69" />
    <path
       d="M760 660V690"
       stroke="#1A1A1A"
       id="path70" />
    <path
       d="M760 775V805"
       stroke="#1A1A1A"
       id="path71" />
    <path
       d="M135 637H105V643H135V637Z"
       fill="#FCFCFC"
       stroke="#1A1A1A"
       stroke-width="1.5"
       id="path72" />
    <path
       d="M105 640H135"
       stroke="#1A1A1A"
       id="path73" />
    <path
       d="M215 637H185V643H215V637Z"
       fill="#FCFCFC"
       stroke="#1A1A1A"
       stroke-width="1.5"
       id="path74" />
    <path
       d="M185 640H215"
       stroke="#1A1A1A"
       id="path75" />
    <path
       d="M498 637H468V643H498V637Z"
       fill="#FCFCFC"
       stroke="#1A1A1A"
       stroke-width="1.5"
       id="path76" />
    <path
       d="M468 640H498"
       stroke="#1A1A1A"
       id="path77" />
    <path
       d="M390 638H368V642H390V638Z"
       fill="#FCFCFC"
       stroke="#1A1A1A"
       stroke-width="1.5"
       id="path78" />
    <path
       d="M368 640H390"
       stroke="#1A1A1A"
       id="path79" />
    <path
       d="M675 637H645V643H675V637Z"
       fill="#FCFCFC"
       stroke="#1A1A1A"
       stroke-width="1.5"
       id="path80" />
    <path
       d="M645 640H675"
       stroke="#1A1A1A"
       id="path81" />
    <path
       d="M735 637H705V643H735V637Z"
       fill="#FCFCFC"
       stroke="#1A1A1A"
       stroke-width="1.5"
       id="path82" />
    <path
       d="M705 640H735"
       stroke="#1A1A1A"
       id="path83" />
    <path
       d="M115 827H85V833H115V827Z"
       fill="#FCFCFC"
       stroke="#1A1A1A"
       stroke-width="1.5"
       id="path84" />
    <path
       d="M85 830H115"
       stroke="#1A1A1A"
       id="path85" />
    <path
       d="M175 827H145V833H175V827Z"
       fill="#FCFCFC"
       stroke="#1A1A1A"
       stroke-width="1.5"
       id="path86" />
    <path
       d="M145 830H175"
       stroke="#1A1A1A"
       id="path87" />
    <path
       d="M260 827H230V833H260V827Z"
       fill="#FCFCFC"
       stroke="#1A1A1A"
       stroke-width="1.5"
       id="path88" />
    <path
       d="M230 830H260"
       stroke="#1A1A1A"
       id="path89" />
    <path
       d="M355 827H325V833H355V827Z"
       fill="#FCFCFC"
       stroke="#1A1A1A"
       stroke-width="1.5"
       id="path90" />
    <path
       d="M325 830H355"
       stroke="#1A1A1A"
       id="path91" />
    <path
       d="M482 827H452V833H482V827Z"
       fill="#FCFCFC"
       stroke="#1A1A1A"
       stroke-width="1.5"
       id="path92" />
    <path
       d="M452 830H482"
       stroke="#1A1A1A"
       id="path93" />
    <path
       d="M545 827H515V833H545V827Z"
       fill="#FCFCFC"
       stroke="#1A1A1A"
       stroke-width="1.5"
       id="path94" />
    <path
       d="M515 830H545"
       stroke="#1A1A1A"
       id="path95" />
    <path
       d="M633 827H603V833H633V827Z"
       fill="#FCFCFC"
       stroke="#1A1A1A"
       stroke-width="1.5"
       id="path96" />
    <path
       d="M603 830H633"
       stroke="#1A1A1A"
       id="path97" />
    <path
       d="M691 827H661V833H691V827Z"
       fill="#FCFCFC"
       stroke="#1A1A1A"
       stroke-width="1.5"
       id="path98" />
    <path
       d="M661 830H691"
       stroke="#1A1A1A"
       id="path99" />
    <path
       d="M362 577V607H368V577H362Z"
       fill="#FCFCFC"
       stroke="#1A1A1A"
       stroke-width="1.5"
       id="path100" />
    <path
       d="M365 607V577"
       stroke="#1A1A1A"
       id="path101" />
    <path
       d="M432 577V607H438V577H432Z"
       fill="#FCFCFC"
       stroke="#1A1A1A"
       stroke-width="1.5"
       id="path102" />
    <path
       d="M435 607V577"
       stroke="#1A1A1A"
       id="path103" />
    <path
       d="M367.369 42.6989V40.5192L372.834 31.9091H374.713V34.9261H373.601L370.156 40.3786V40.4808H377.922V42.6989H367.369ZM373.652 45V42.0341L373.703 41.0689V31.9091H376.298V45H373.652ZM391.754 37.2145C391.448 37.2145 391.175 37.2741 390.936 37.3935C390.698 37.5128 390.51 37.679 390.374 37.892C390.242 38.1009 390.176 38.348 390.176 38.6335H387.727C387.727 38.1009 387.83 37.6151 388.034 37.1761C388.239 36.733 388.524 36.3516 388.891 36.032C389.257 35.7081 389.683 35.4588 390.169 35.2841C390.659 35.1094 391.188 35.022 391.754 35.022C392.743 35.022 393.574 35.2436 394.247 35.6868C394.925 36.1257 395.436 36.7202 395.781 37.4702C396.131 38.2159 396.306 39.0533 396.306 39.9822V40.2188C396.306 41.152 396.133 41.9936 395.788 42.7436C395.443 43.4936 394.931 44.0881 394.254 44.527C393.58 44.9616 392.747 45.179 391.754 45.179C390.962 45.179 390.263 45.0234 389.658 44.7124C389.053 44.397 388.58 43.9517 388.239 43.3764C387.898 42.7969 387.727 42.1087 387.727 41.3118H390.176C390.176 41.6143 390.24 41.8913 390.367 42.1428C390.495 42.3942 390.676 42.5945 390.911 42.7436C391.149 42.8928 391.431 42.9695 391.754 42.9737C392.262 42.9695 392.656 42.8267 392.937 42.5455C393.222 42.2642 393.421 41.9126 393.531 41.4908C393.646 41.0646 393.704 40.6406 393.704 40.2188V39.9822C393.704 39.5178 393.644 39.0746 393.525 38.6527C393.41 38.2308 393.21 37.8857 392.924 37.6172C392.643 37.3487 392.253 37.2145 391.754 37.2145ZM394.49 39.2855V40.8963H391.019V39.2855H394.49ZM397.14 37.3232V35.1818H406.037V37.3232H402.873V45H400.278V37.3232H397.14ZM410.136 45.1854C409.51 45.1854 408.952 45.0767 408.462 44.8594C407.972 44.6378 407.584 44.3118 407.298 43.8814C407.017 43.4467 406.876 42.9055 406.876 42.2578C406.876 41.7124 406.977 41.2543 407.177 40.8835C407.377 40.5128 407.65 40.2145 407.995 39.9886C408.34 39.7628 408.732 39.5923 409.171 39.4773C409.614 39.3622 410.079 39.2812 410.565 39.2344C411.136 39.1747 411.596 39.1193 411.945 39.0682C412.295 39.0128 412.548 38.9318 412.706 38.8253C412.864 38.7187 412.942 38.5611 412.942 38.3523V38.3139C412.942 37.9091 412.815 37.5959 412.559 37.3743C412.308 37.1527 411.95 37.0419 411.485 37.0419C410.995 37.0419 410.605 37.1506 410.315 37.3679C410.026 37.581 409.834 37.8494 409.74 38.1733L407.222 37.9688C407.349 37.3722 407.601 36.8565 407.976 36.4219C408.351 35.983 408.835 35.6463 409.427 35.4119C410.023 35.1733 410.714 35.054 411.498 35.054C412.043 35.054 412.565 35.1179 413.064 35.2457C413.567 35.3736 414.012 35.5717 414.4 35.8402C414.792 36.1087 415.101 36.4538 415.327 36.8757C415.553 37.2933 415.665 37.794 415.665 38.3778V45H413.083V43.6385H413.006C412.849 43.9453 412.638 44.2159 412.374 44.4503C412.109 44.6804 411.792 44.8615 411.421 44.9936C411.05 45.1214 410.622 45.1854 410.136 45.1854ZM410.916 43.3061C411.317 43.3061 411.67 43.2273 411.977 43.0696C412.284 42.9077 412.525 42.6903 412.7 42.4176C412.874 42.1449 412.962 41.8359 412.962 41.4908V40.4489C412.876 40.5043 412.759 40.5554 412.61 40.6023C412.465 40.6449 412.301 40.6854 412.118 40.7237C411.935 40.7578 411.751 40.7898 411.568 40.8196C411.385 40.8452 411.219 40.8686 411.07 40.8899C410.75 40.9368 410.471 41.0114 410.232 41.1136C409.994 41.2159 409.808 41.3544 409.676 41.5291C409.544 41.6996 409.478 41.9126 409.478 42.1683C409.478 42.5391 409.612 42.8224 409.881 43.0185C410.153 43.2102 410.499 43.3061 410.916 43.3061ZM417.139 45L420.571 39.8928L417.158 35.1818H420.265L422.815 39.0234H423.237V35.1818H425.96V39.0234H426.369L428.919 35.1818H432.026L428.619 39.8928L432.045 45H428.868L426.343 41.1648H425.96V45H423.237V41.1648H422.853L420.316 45H417.139Z"
       fill="#1A1A1A"
       id="path104" />
    <path
       d="M276.109 203.443V201.021L282.182 191.455H284.27V194.807H283.034L279.206 200.865V200.979H287.835V203.443H276.109ZM283.091 206V202.705L283.148 201.632V191.455H286.031V206H283.091ZM296.017 191.455V206H292.942V194.374H292.856L289.525 196.462V193.734L293.126 191.455H296.017ZM299.254 203.443V201.021L305.326 191.455H307.414V194.807H306.178L302.35 200.865V200.979H310.98V203.443H299.254ZM306.235 206V202.705L306.292 201.632V191.455H309.176V206H306.235Z"
       fill="#1A1A1A"
       id="path105" />
    <path
       d="M275.295 289.443V287.021L281.367 277.455H283.455V280.807H282.219L278.391 286.865V286.979H287.021V289.443H275.295ZM282.276 292V288.705L282.333 287.632V277.455H285.217V292H282.276ZM295.202 277.455V292H292.127V280.374H292.042L288.711 282.462V279.734L292.312 277.455H295.202ZM304.036 292.199C302.975 292.199 302.031 292.017 301.202 291.652C300.378 291.283 299.727 290.776 299.249 290.132C298.775 289.483 298.532 288.735 298.517 287.888H301.614C301.633 288.243 301.749 288.555 301.962 288.825C302.18 289.09 302.469 289.296 302.828 289.443C303.188 289.59 303.593 289.663 304.043 289.663C304.512 289.663 304.926 289.58 305.286 289.415C305.646 289.249 305.927 289.019 306.131 288.726C306.335 288.432 306.436 288.094 306.436 287.71C306.436 287.322 306.328 286.979 306.11 286.68C305.897 286.377 305.589 286.141 305.186 285.97C304.789 285.8 304.315 285.714 303.766 285.714H302.409V283.456H303.766C304.23 283.456 304.64 283.375 304.995 283.214C305.355 283.054 305.634 282.831 305.833 282.547C306.032 282.258 306.131 281.922 306.131 281.538C306.131 281.174 306.043 280.854 305.868 280.58C305.698 280.3 305.456 280.082 305.144 279.926C304.836 279.77 304.476 279.692 304.064 279.692C303.648 279.692 303.266 279.768 302.921 279.919C302.575 280.066 302.298 280.277 302.09 280.551C301.882 280.826 301.77 281.148 301.756 281.517H298.809C298.823 280.679 299.062 279.94 299.526 279.301C299.99 278.662 300.615 278.162 301.401 277.803C302.192 277.438 303.084 277.256 304.078 277.256C305.082 277.256 305.961 277.438 306.713 277.803C307.466 278.167 308.051 278.66 308.468 279.28C308.889 279.895 309.097 280.587 309.093 281.354C309.097 282.168 308.844 282.848 308.333 283.392C307.826 283.937 307.166 284.282 306.351 284.429V284.543C307.421 284.68 308.236 285.052 308.794 285.658C309.358 286.259 309.637 287.012 309.632 287.916C309.637 288.745 309.398 289.481 308.915 290.125C308.437 290.769 307.776 291.276 306.934 291.645C306.091 292.014 305.125 292.199 304.036 292.199Z"
       fill="#1A1A1A"
       id="path106" />
    <path
       d="M275.088 396.443V394.021L281.16 384.455H283.248V387.807H282.012L278.184 393.865V393.979H286.814V396.443H275.088ZM282.069 399V395.705L282.126 394.632V384.455H285.01V399H282.069ZM294.995 384.455V399H291.92V387.374H291.835L288.504 389.462V386.734L292.105 384.455H294.995ZM298.452 399V396.784L303.63 391.99C304.07 391.564 304.44 391.18 304.738 390.839C305.041 390.499 305.271 390.165 305.427 389.838C305.583 389.507 305.661 389.149 305.661 388.766C305.661 388.339 305.564 387.973 305.37 387.665C305.176 387.352 304.911 387.113 304.575 386.947C304.238 386.777 303.857 386.692 303.431 386.692C302.986 386.692 302.598 386.782 302.266 386.962C301.935 387.142 301.679 387.4 301.499 387.736C301.319 388.072 301.229 388.472 301.229 388.936H298.31C298.31 387.984 298.526 387.158 298.957 386.457C299.388 385.757 299.991 385.214 300.768 384.831C301.544 384.447 302.439 384.256 303.452 384.256C304.494 384.256 305.401 384.44 306.173 384.81C306.949 385.174 307.553 385.681 307.984 386.33C308.415 386.978 308.63 387.722 308.63 388.56C308.63 389.109 308.521 389.651 308.303 390.186C308.09 390.721 307.709 391.315 307.16 391.969C306.611 392.617 305.836 393.396 304.837 394.305L302.714 396.386V396.486H308.822V399H298.452Z"
       fill="#1A1A1A"
       id="path107" />
    <path
       d="M272.994 517.443V515.021L279.066 505.455H281.154V508.807H279.919L276.091 514.865V514.979H284.72V517.443H272.994ZM279.975 520V516.705L280.032 515.632V505.455H282.916V520H279.975ZM292.902 505.455V520H289.826V508.374H289.741L286.41 510.462V507.734L290.011 505.455H292.902ZM302.687 505.455V520H299.612V508.374H299.526L296.195 510.462V507.734L299.796 505.455H302.687Z"
       fill="#1A1A1A"
       id="path108" />
    <path
       d="M494.441 203.443V201.021L500.514 191.455H502.602V194.807H501.366L497.538 200.865V200.979H506.167V203.443H494.441ZM501.423 206V202.705L501.48 201.632V191.455H504.363V206H501.423ZM514.349 191.455V206H511.274V194.374H511.188L507.857 196.462V193.734L511.458 191.455H514.349ZM523.118 206.199C522.115 206.199 521.22 206.014 520.434 205.645C519.653 205.276 519.032 204.767 518.573 204.118C518.114 203.469 517.875 202.726 517.856 201.888H520.839C520.872 202.451 521.108 202.908 521.549 203.259C521.989 203.609 522.512 203.784 523.118 203.784C523.601 203.784 524.028 203.678 524.397 203.464C524.771 203.247 525.062 202.946 525.27 202.562C525.483 202.174 525.59 201.729 525.59 201.227C525.59 200.716 525.481 200.266 525.263 199.878C525.05 199.49 524.754 199.187 524.376 198.969C523.997 198.751 523.564 198.64 523.076 198.635C522.65 198.635 522.235 198.723 521.833 198.898C521.435 199.073 521.125 199.312 520.903 199.615L518.168 199.125L518.857 191.455H527.749V193.969H521.393L521.016 197.612H521.101C521.357 197.252 521.743 196.954 522.259 196.717C522.775 196.481 523.353 196.362 523.992 196.362C524.868 196.362 525.649 196.568 526.336 196.98C527.022 197.392 527.564 197.958 527.962 198.678C528.36 199.393 528.556 200.216 528.552 201.149C528.556 202.129 528.329 203 527.87 203.763C527.415 204.52 526.778 205.117 525.959 205.553C525.145 205.983 524.198 206.199 523.118 206.199Z"
       fill="#1A1A1A"
       id="path109" />
    <path
       d="M491.285 289.443V287.021L497.357 277.455H499.445V280.807H498.21L494.382 286.865V286.979H503.011V289.443H491.285ZM498.267 292V288.705L498.323 287.632V277.455H501.207V292H498.267ZM511.193 277.455V292H508.117V280.374H508.032L504.701 282.462V279.734L508.302 277.455H511.193ZM520.232 292.199C519.484 292.194 518.762 292.069 518.066 291.822C517.375 291.576 516.754 291.176 516.205 290.622C515.656 290.068 515.22 289.334 514.898 288.42C514.581 287.507 514.422 286.384 514.422 285.054C514.427 283.832 514.567 282.741 514.841 281.78C515.121 280.814 515.519 279.995 516.035 279.322C516.555 278.65 517.178 278.139 517.903 277.788C518.627 277.433 519.439 277.256 520.339 277.256C521.309 277.256 522.166 277.445 522.91 277.824C523.653 278.198 524.25 278.707 524.699 279.351C525.154 279.995 525.429 280.717 525.523 281.517H522.491C522.372 281.01 522.124 280.613 521.745 280.324C521.366 280.035 520.897 279.891 520.339 279.891C519.392 279.891 518.672 280.303 518.18 281.126C517.692 281.95 517.443 283.07 517.434 284.486H517.533C517.751 284.055 518.045 283.688 518.414 283.385C518.788 283.077 519.212 282.843 519.685 282.682C520.163 282.516 520.668 282.433 521.198 282.433C522.06 282.433 522.827 282.637 523.499 283.044C524.171 283.446 524.702 284 525.09 284.706C525.478 285.411 525.672 286.219 525.672 287.128C525.672 288.113 525.443 288.989 524.983 289.756C524.529 290.523 523.892 291.124 523.073 291.56C522.259 291.991 521.312 292.204 520.232 292.199ZM520.218 289.784C520.691 289.784 521.115 289.67 521.489 289.443C521.863 289.216 522.157 288.908 522.37 288.52C522.583 288.132 522.689 287.696 522.689 287.213C522.689 286.73 522.583 286.297 522.37 285.913C522.162 285.53 521.873 285.224 521.503 284.997C521.134 284.77 520.713 284.656 520.239 284.656C519.884 284.656 519.555 284.723 519.252 284.855C518.954 284.988 518.691 285.172 518.464 285.409C518.241 285.646 518.066 285.92 517.938 286.233C517.81 286.541 517.746 286.87 517.746 287.22C517.746 287.689 517.853 288.117 518.066 288.506C518.284 288.894 518.577 289.204 518.947 289.436C519.321 289.668 519.744 289.784 520.218 289.784Z"
       fill="#1A1A1A"
       id="path110" />
    <path
       d="M490.439 396.443V394.021L496.512 384.455H498.6V387.807H497.364L493.536 393.865V393.979H502.165V396.443H490.439ZM497.421 399V395.705L497.478 394.632V384.455H500.361V399H497.421ZM510.347 384.455V399H507.272V387.374H507.186L503.855 389.462V386.734L507.456 384.455H510.347ZM514.379 399L520.409 387.068V386.969H513.385V384.455H523.591V387.004L517.554 399H514.379Z"
       fill="#1A1A1A"
       id="path111" />
    <path
       d="M121.195 671.443V669.021L127.268 659.455H129.356V662.807H128.12L124.292 668.865V668.979H132.921V671.443H121.195ZM128.177 674V670.705L128.233 669.632V659.455H131.117V674H128.177ZM140.673 674.32C139.452 674.315 138.4 674.014 137.52 673.418C136.644 672.821 135.969 671.957 135.496 670.825C135.027 669.694 134.795 668.332 134.8 666.741C134.8 665.155 135.034 663.804 135.503 662.686C135.976 661.569 136.651 660.719 137.527 660.136C138.407 659.549 139.456 659.256 140.673 659.256C141.89 659.256 142.936 659.549 143.812 660.136C144.693 660.723 145.37 661.576 145.844 662.693C146.317 663.806 146.551 665.155 146.547 666.741C146.547 668.337 146.31 669.701 145.836 670.832C145.368 671.964 144.695 672.828 143.819 673.425C142.943 674.021 141.895 674.32 140.673 674.32ZM140.673 671.77C141.506 671.77 142.172 671.351 142.669 670.513C143.166 669.675 143.412 668.418 143.407 666.741C143.407 665.638 143.294 664.72 143.067 663.986C142.844 663.252 142.527 662.7 142.115 662.331C141.708 661.962 141.227 661.777 140.673 661.777C139.845 661.777 139.182 662.191 138.684 663.02C138.187 663.848 137.936 665.089 137.932 666.741C137.932 667.859 138.043 668.792 138.265 669.54C138.493 670.283 138.812 670.842 139.224 671.216C139.636 671.585 140.119 671.77 140.673 671.77ZM154.002 659.256C154.75 659.256 155.47 659.381 156.161 659.632C156.857 659.883 157.478 660.283 158.022 660.832C158.571 661.382 159.005 662.111 159.322 663.02C159.644 663.924 159.807 665.035 159.812 666.351C159.812 667.587 159.672 668.69 159.393 669.661C159.118 670.626 158.723 671.448 158.207 672.125C157.691 672.802 157.068 673.318 156.339 673.673C155.61 674.024 154.795 674.199 153.896 674.199C152.925 674.199 152.068 674.012 151.325 673.638C150.581 673.259 149.982 672.745 149.528 672.097C149.078 671.443 148.806 670.709 148.711 669.895H151.744C151.862 670.425 152.111 670.837 152.49 671.131C152.868 671.42 153.337 671.564 153.896 671.564C154.843 671.564 155.562 671.152 156.055 670.328C156.547 669.5 156.796 668.366 156.801 666.926H156.701C156.483 667.352 156.19 667.719 155.82 668.027C155.451 668.33 155.027 668.564 154.549 668.73C154.076 668.896 153.571 668.979 153.036 668.979C152.179 668.979 151.415 668.777 150.742 668.375C150.07 667.973 149.54 667.419 149.151 666.713C148.763 666.008 148.569 665.203 148.569 664.298C148.564 663.323 148.789 662.454 149.244 661.692C149.698 660.929 150.333 660.333 151.147 659.902C151.966 659.466 152.918 659.251 154.002 659.256ZM154.024 661.67C153.545 661.67 153.119 661.784 152.745 662.011C152.376 662.239 152.082 662.544 151.865 662.928C151.651 663.311 151.547 663.74 151.552 664.213C151.552 664.691 151.656 665.122 151.865 665.506C152.078 665.884 152.366 666.187 152.731 666.415C153.1 666.637 153.522 666.749 153.995 666.749C154.35 666.749 154.679 666.682 154.982 666.55C155.285 666.417 155.548 666.235 155.771 666.003C155.998 665.766 156.176 665.494 156.303 665.186C156.431 664.878 156.495 664.552 156.495 664.206C156.49 663.747 156.382 663.325 156.169 662.942C155.955 662.558 155.662 662.25 155.288 662.018C154.914 661.786 154.492 661.67 154.024 661.67Z"
       fill="#1A1A1A"
       id="path112" />
    <path
       d="M318.578 671.547H315.468C315.411 671.144 315.295 670.787 315.12 670.474C314.944 670.157 314.72 669.887 314.445 669.665C314.17 669.442 313.853 669.272 313.493 669.153C313.138 669.035 312.752 668.976 312.336 668.976C311.583 668.976 310.927 669.163 310.368 669.537C309.81 669.906 309.376 670.446 309.069 671.156C308.761 671.862 308.607 672.719 308.607 673.727C308.607 674.764 308.761 675.635 309.069 676.341C309.381 677.046 309.817 677.579 310.375 677.939C310.934 678.299 311.58 678.479 312.314 678.479C312.726 678.479 313.107 678.424 313.458 678.315C313.813 678.206 314.128 678.048 314.402 677.839C314.677 677.626 314.904 677.368 315.084 677.065C315.269 676.762 315.397 676.417 315.468 676.028L318.578 676.043C318.498 676.71 318.297 677.354 317.975 677.974C317.658 678.59 317.229 679.142 316.689 679.629C316.154 680.112 315.515 680.496 314.772 680.78C314.033 681.059 313.197 681.199 312.265 681.199C310.967 681.199 309.807 680.905 308.784 680.318C307.766 679.731 306.962 678.881 306.37 677.768C305.783 676.656 305.489 675.309 305.489 673.727C305.489 672.141 305.787 670.792 306.384 669.679C306.98 668.566 307.79 667.719 308.813 667.136C309.836 666.549 310.986 666.256 312.265 666.256C313.107 666.256 313.889 666.374 314.608 666.611C315.333 666.848 315.974 667.193 316.533 667.648C317.092 668.098 317.546 668.649 317.897 669.303C318.252 669.956 318.479 670.704 318.578 671.547Z"
       fill="#1A1A1A"
       id="path113" />
    <path
       d="M465.275 672.443V670.021L471.348 660.455H473.436V663.807H472.2L468.372 669.865V669.979H477.001V672.443H465.275ZM472.257 675V671.705L472.314 670.632V660.455H475.197V675H472.257ZM485.183 660.455V675H482.108V663.374H482.022L478.691 665.462V662.734L482.292 660.455H485.183ZM494.066 675.199C492.972 675.199 491.999 675.021 491.147 674.666C490.299 674.306 489.634 673.816 489.151 673.196C488.668 672.576 488.427 671.873 488.427 671.087C488.427 670.481 488.564 669.924 488.839 669.418C489.118 668.906 489.497 668.482 489.975 668.146C490.453 667.805 490.988 667.588 491.58 667.493V667.393C490.804 667.237 490.174 666.861 489.691 666.264C489.208 665.663 488.967 664.964 488.967 664.169C488.967 663.416 489.187 662.746 489.627 662.159C490.067 661.567 490.671 661.103 491.438 660.767C492.21 660.426 493.086 660.256 494.066 660.256C495.046 660.256 495.92 660.426 496.687 660.767C497.459 661.108 498.065 661.574 498.505 662.166C498.945 662.753 499.168 663.421 499.173 664.169C499.168 664.969 498.922 665.668 498.434 666.264C497.946 666.861 497.321 667.237 496.559 667.393V667.493C497.141 667.588 497.669 667.805 498.143 668.146C498.621 668.482 499 668.906 499.279 669.418C499.563 669.924 499.708 670.481 499.712 671.087C499.708 671.873 499.464 672.576 498.981 673.196C498.498 673.816 497.83 674.306 496.978 674.666C496.13 675.021 495.16 675.199 494.066 675.199ZM494.066 672.94C494.554 672.94 494.98 672.853 495.344 672.678C495.709 672.498 495.993 672.251 496.197 671.939C496.405 671.622 496.509 671.257 496.509 670.845C496.509 670.424 496.403 670.052 496.19 669.73C495.977 669.403 495.688 669.148 495.323 668.963C494.959 668.774 494.54 668.679 494.066 668.679C493.597 668.679 493.178 668.774 492.809 668.963C492.44 669.148 492.148 669.403 491.935 669.73C491.727 670.052 491.623 670.424 491.623 670.845C491.623 671.257 491.725 671.622 491.928 671.939C492.132 672.251 492.418 672.498 492.788 672.678C493.157 672.853 493.583 672.94 494.066 672.94ZM494.066 666.442C494.473 666.442 494.835 666.359 495.153 666.193C495.47 666.027 495.719 665.798 495.898 665.504C496.078 665.211 496.168 664.872 496.168 664.489C496.168 664.11 496.078 663.778 495.898 663.494C495.719 663.205 495.472 662.981 495.16 662.82C494.847 662.654 494.483 662.571 494.066 662.571C493.654 662.571 493.29 662.654 492.972 662.82C492.655 662.981 492.406 663.205 492.227 663.494C492.051 663.778 491.964 664.11 491.964 664.489C491.964 664.872 492.054 665.211 492.234 665.504C492.414 665.798 492.662 666.027 492.979 666.193C493.297 666.359 493.659 666.442 494.066 666.442Z"
       fill="#1A1A1A"
       id="path114" />
    <path
       d="M645.404 679.443V677.021L651.477 667.455H653.565V670.807H652.329L648.501 676.865V676.979H657.13V679.443H645.404ZM652.386 682V678.705L652.442 677.632V667.455H655.326V682H652.386ZM664.882 682.32C663.661 682.315 662.609 682.014 661.729 681.418C660.853 680.821 660.178 679.957 659.705 678.825C659.236 677.694 659.004 676.332 659.009 674.741C659.009 673.155 659.243 671.804 659.712 670.686C660.185 669.569 660.86 668.719 661.736 668.136C662.616 667.549 663.665 667.256 664.882 667.256C666.099 667.256 667.145 667.549 668.021 668.136C668.902 668.723 669.579 669.576 670.053 670.693C670.526 671.806 670.76 673.155 670.756 674.741C670.756 676.337 670.519 677.701 670.045 678.832C669.577 679.964 668.904 680.828 668.028 681.425C667.152 682.021 666.104 682.32 664.882 682.32ZM664.882 679.77C665.715 679.77 666.381 679.351 666.878 678.513C667.375 677.675 667.621 676.418 667.616 674.741C667.616 673.638 667.503 672.72 667.276 671.986C667.053 671.252 666.736 670.7 666.324 670.331C665.917 669.962 665.436 669.777 664.882 669.777C664.054 669.777 663.391 670.191 662.893 671.02C662.396 671.848 662.145 673.089 662.141 674.741C662.141 675.859 662.252 676.792 662.474 677.54C662.702 678.283 663.021 678.842 663.433 679.216C663.845 679.585 664.328 679.77 664.882 679.77ZM679.277 667.455V682H676.201V670.374H676.116L672.785 672.462V669.734L676.386 667.455H679.277Z"
       fill="#1A1A1A"
       id="path115" />
    <path
       d="M98.1854 734.443V732.021L104.258 722.455H106.346V725.807H105.11L101.282 731.865V731.979H109.911V734.443H98.1854ZM105.167 737V733.705L105.224 732.632V722.455H108.107V737H105.167ZM117.663 737.32C116.442 737.315 115.391 737.014 114.51 736.418C113.634 735.821 112.959 734.957 112.486 733.825C112.017 732.694 111.785 731.332 111.79 729.741C111.79 728.155 112.024 726.804 112.493 725.686C112.966 724.569 113.641 723.719 114.517 723.136C115.398 722.549 116.446 722.256 117.663 722.256C118.88 722.256 119.927 722.549 120.803 723.136C121.683 723.723 122.36 724.576 122.834 725.693C123.307 726.806 123.542 728.155 123.537 729.741C123.537 731.337 123.3 732.701 122.827 733.832C122.358 734.964 121.686 735.828 120.81 736.425C119.934 737.021 118.885 737.32 117.663 737.32ZM117.663 734.77C118.497 734.77 119.162 734.351 119.659 733.513C120.156 732.675 120.402 731.418 120.398 729.741C120.398 728.638 120.284 727.72 120.057 726.986C119.834 726.252 119.517 725.7 119.105 725.331C118.698 724.962 118.217 724.777 117.663 724.777C116.835 724.777 116.172 725.191 115.675 726.02C115.178 726.848 114.927 728.089 114.922 729.741C114.922 730.859 115.033 731.792 115.256 732.54C115.483 733.283 115.803 733.842 116.214 734.216C116.626 734.585 117.109 734.77 117.663 734.77ZM131.156 737.199C130.062 737.199 129.089 737.021 128.237 736.666C127.389 736.306 126.724 735.816 126.241 735.196C125.758 734.576 125.517 733.873 125.517 733.087C125.517 732.481 125.654 731.924 125.929 731.418C126.208 730.906 126.587 730.482 127.065 730.146C127.543 729.805 128.078 729.588 128.67 729.493V729.393C127.894 729.237 127.264 728.861 126.781 728.264C126.298 727.663 126.056 726.964 126.056 726.169C126.056 725.416 126.277 724.746 126.717 724.159C127.157 723.567 127.761 723.103 128.528 722.767C129.3 722.426 130.176 722.256 131.156 722.256C132.136 722.256 133.01 722.426 133.777 722.767C134.548 723.108 135.154 723.574 135.595 724.166C136.035 724.753 136.258 725.421 136.262 726.169C136.258 726.969 136.011 727.668 135.524 728.264C135.036 728.861 134.411 729.237 133.649 729.393V729.493C134.231 729.588 134.759 729.805 135.233 730.146C135.711 730.482 136.09 730.906 136.369 731.418C136.653 731.924 136.797 732.481 136.802 733.087C136.797 733.873 136.554 734.576 136.071 735.196C135.588 735.816 134.92 736.306 134.068 736.666C133.22 737.021 132.25 737.199 131.156 737.199ZM131.156 734.94C131.644 734.94 132.07 734.853 132.434 734.678C132.799 734.498 133.083 734.251 133.287 733.939C133.495 733.622 133.599 733.257 133.599 732.845C133.599 732.424 133.493 732.052 133.279 731.73C133.066 731.403 132.778 731.148 132.413 730.963C132.048 730.774 131.629 730.679 131.156 730.679C130.687 730.679 130.268 730.774 129.899 730.963C129.529 731.148 129.238 731.403 129.025 731.73C128.817 732.052 128.713 732.424 128.713 732.845C128.713 733.257 128.815 733.622 129.018 733.939C129.222 734.251 129.508 734.498 129.877 734.678C130.247 734.853 130.673 734.94 131.156 734.94ZM131.156 728.442C131.563 728.442 131.925 728.359 132.243 728.193C132.56 728.027 132.808 727.798 132.988 727.504C133.168 727.211 133.258 726.872 133.258 726.489C133.258 726.11 133.168 725.778 132.988 725.494C132.808 725.205 132.562 724.981 132.25 724.82C131.937 724.654 131.573 724.571 131.156 724.571C130.744 724.571 130.379 724.654 130.062 724.82C129.745 724.981 129.496 725.205 129.316 725.494C129.141 725.778 129.054 726.11 129.054 726.489C129.054 726.872 129.144 727.211 129.324 727.504C129.503 727.798 129.752 728.027 130.069 728.193C130.386 728.359 130.749 728.442 131.156 728.442Z"
       fill="#1A1A1A"
       id="path116" />
    <path
       d="M686.998 733.443V731.021L693.07 721.455H695.158V724.807H693.923L690.094 730.865V730.979H698.724V733.443H686.998ZM693.979 736V732.705L694.036 731.632V721.455H696.92V736H693.979ZM706.476 736.32C705.254 736.315 704.203 736.014 703.322 735.418C702.446 734.821 701.772 733.957 701.298 732.825C700.83 731.694 700.598 730.332 700.602 728.741C700.602 727.155 700.837 725.804 701.305 724.686C701.779 723.569 702.454 722.719 703.33 722.136C704.21 721.549 705.259 721.256 706.476 721.256C707.693 721.256 708.739 721.549 709.615 722.136C710.496 722.723 711.173 723.576 711.646 724.693C712.12 725.806 712.354 727.155 712.349 728.741C712.349 730.337 712.113 731.701 711.639 732.832C711.17 733.964 710.498 734.828 709.622 735.425C708.746 736.021 707.697 736.32 706.476 736.32ZM706.476 733.77C707.309 733.77 707.974 733.351 708.472 732.513C708.969 731.675 709.215 730.418 709.21 728.741C709.21 727.638 709.097 726.72 708.869 725.986C708.647 725.252 708.33 724.7 707.918 724.331C707.51 723.962 707.03 723.777 706.476 723.777C705.647 723.777 704.984 724.191 704.487 725.02C703.99 725.848 703.739 727.089 703.734 728.741C703.734 729.859 703.846 730.792 704.068 731.54C704.295 732.283 704.615 732.842 705.027 733.216C705.439 733.585 705.922 733.77 706.476 733.77ZM714.542 736V733.784L719.72 728.99C720.16 728.564 720.529 728.18 720.828 727.839C721.131 727.499 721.36 727.165 721.517 726.838C721.673 726.507 721.751 726.149 721.751 725.766C721.751 725.339 721.654 724.973 721.46 724.665C721.266 724.352 721.001 724.113 720.664 723.947C720.328 723.777 719.947 723.692 719.521 723.692C719.076 723.692 718.688 723.782 718.356 723.962C718.025 724.142 717.769 724.4 717.589 724.736C717.409 725.072 717.319 725.472 717.319 725.936H714.4C714.4 724.984 714.616 724.158 715.047 723.457C715.477 722.757 716.081 722.214 716.858 721.831C717.634 721.447 718.529 721.256 719.542 721.256C720.584 721.256 721.491 721.44 722.262 721.81C723.039 722.174 723.643 722.681 724.074 723.33C724.504 723.978 724.72 724.722 724.72 725.56C724.72 726.109 724.611 726.651 724.393 727.186C724.18 727.721 723.799 728.315 723.25 728.969C722.7 729.617 721.926 730.396 720.927 731.305L718.804 733.386V733.486H724.912V736H714.542Z"
       fill="#1A1A1A"
       id="path117" />
    <path
       d="M115.045 793.443V791.021L121.117 781.455H123.205V784.807H121.969L118.141 790.865V790.979H126.771V793.443H115.045ZM122.026 796V792.705L122.083 791.632V781.455H124.967V796H122.026ZM134.523 796.32C133.301 796.315 132.25 796.014 131.369 795.418C130.493 794.821 129.819 793.957 129.345 792.825C128.876 791.694 128.644 790.332 128.649 788.741C128.649 787.155 128.884 785.804 129.352 784.686C129.826 783.569 130.5 782.719 131.376 782.136C132.257 781.549 133.306 781.256 134.523 781.256C135.74 781.256 136.786 781.549 137.662 782.136C138.543 782.723 139.22 783.576 139.693 784.693C140.167 785.806 140.401 787.155 140.396 788.741C140.396 790.337 140.16 791.701 139.686 792.832C139.217 793.964 138.545 794.828 137.669 795.425C136.793 796.021 135.744 796.32 134.523 796.32ZM134.523 793.77C135.356 793.77 136.021 793.351 136.518 792.513C137.016 791.675 137.262 790.418 137.257 788.741C137.257 787.638 137.143 786.72 136.916 785.986C136.694 785.252 136.376 784.7 135.964 784.331C135.557 783.962 135.077 783.777 134.523 783.777C133.694 783.777 133.031 784.191 132.534 785.02C132.037 785.848 131.786 787.089 131.781 788.741C131.781 789.859 131.893 790.792 132.115 791.54C132.342 792.283 132.662 792.842 133.074 793.216C133.486 793.585 133.969 793.77 134.523 793.77ZM142.774 796L148.804 784.068V783.969H141.779V781.455H151.985V784.004L145.949 796H142.774Z"
       fill="#1A1A1A"
       id="path118" />
    <path
       d="M227.195 793.443V791.021L233.268 781.455H235.356V784.807H234.12L230.292 790.865V790.979H238.921V793.443H227.195ZM234.177 796V792.705L234.233 791.632V781.455H237.117V796H234.177ZM246.673 796.32C245.452 796.315 244.4 796.014 243.52 795.418C242.644 794.821 241.969 793.957 241.496 792.825C241.027 791.694 240.795 790.332 240.8 788.741C240.8 787.155 241.034 785.804 241.503 784.686C241.976 783.569 242.651 782.719 243.527 782.136C244.407 781.549 245.456 781.256 246.673 781.256C247.89 781.256 248.936 781.549 249.812 782.136C250.693 782.723 251.37 783.576 251.844 784.693C252.317 785.806 252.551 787.155 252.547 788.741C252.547 790.337 252.31 791.701 251.836 792.832C251.368 793.964 250.695 794.828 249.819 795.425C248.943 796.021 247.895 796.32 246.673 796.32ZM246.673 793.77C247.506 793.77 248.172 793.351 248.669 792.513C249.166 791.675 249.412 790.418 249.407 788.741C249.407 787.638 249.294 786.72 249.067 785.986C248.844 785.252 248.527 784.7 248.115 784.331C247.708 783.962 247.227 783.777 246.673 783.777C245.845 783.777 245.182 784.191 244.684 785.02C244.187 785.848 243.936 787.089 243.932 788.741C243.932 789.859 244.043 790.792 244.265 791.54C244.493 792.283 244.812 792.842 245.224 793.216C245.636 793.585 246.119 793.77 246.673 793.77ZM260.322 796.199C259.574 796.194 258.852 796.069 258.156 795.822C257.464 795.576 256.844 795.176 256.295 794.622C255.746 794.068 255.31 793.334 254.988 792.42C254.671 791.507 254.512 790.384 254.512 789.054C254.517 787.832 254.657 786.741 254.931 785.78C255.211 784.814 255.608 783.995 256.124 783.322C256.645 782.65 257.268 782.139 257.992 781.788C258.717 781.433 259.529 781.256 260.428 781.256C261.399 781.256 262.256 781.445 262.999 781.824C263.743 782.198 264.339 782.707 264.789 783.351C265.244 783.995 265.518 784.717 265.613 785.517H262.58C262.462 785.01 262.213 784.613 261.835 784.324C261.456 784.035 260.987 783.891 260.428 783.891C259.481 783.891 258.762 784.303 258.269 785.126C257.782 785.95 257.533 787.07 257.524 788.486H257.623C257.841 788.055 258.134 787.688 258.504 787.385C258.878 787.077 259.302 786.843 259.775 786.682C260.253 786.516 260.758 786.433 261.288 786.433C262.15 786.433 262.917 786.637 263.589 787.044C264.261 787.446 264.792 788 265.18 788.706C265.568 789.411 265.762 790.219 265.762 791.128C265.762 792.113 265.533 792.989 265.073 793.756C264.619 794.523 263.982 795.124 263.163 795.56C262.348 795.991 261.401 796.204 260.322 796.199ZM260.308 793.784C260.781 793.784 261.205 793.67 261.579 793.443C261.953 793.216 262.247 792.908 262.46 792.52C262.673 792.132 262.779 791.696 262.779 791.213C262.779 790.73 262.673 790.297 262.46 789.913C262.251 789.53 261.963 789.224 261.593 788.997C261.224 788.77 260.802 788.656 260.329 788.656C259.974 788.656 259.645 788.723 259.342 788.855C259.044 788.988 258.781 789.172 258.553 789.409C258.331 789.646 258.156 789.92 258.028 790.233C257.9 790.541 257.836 790.87 257.836 791.22C257.836 791.689 257.943 792.117 258.156 792.506C258.374 792.894 258.667 793.204 259.036 793.436C259.41 793.668 259.834 793.784 260.308 793.784Z"
       fill="#1A1A1A"
       id="path119" />
    <path
       d="M351.351 793.443V791.021L357.424 781.455H359.512V784.807H358.276L354.448 790.865V790.979H363.077V793.443H351.351ZM358.333 796V792.705L358.39 791.632V781.455H361.273V796H358.333ZM370.829 796.32C369.608 796.315 368.557 796.014 367.676 795.418C366.8 794.821 366.125 793.957 365.652 792.825C365.183 791.694 364.951 790.332 364.956 788.741C364.956 787.155 365.19 785.804 365.659 784.686C366.132 783.569 366.807 782.719 367.683 782.136C368.564 781.549 369.613 781.256 370.829 781.256C372.046 781.256 373.093 781.549 373.969 782.136C374.849 782.723 375.526 783.576 376 784.693C376.473 785.806 376.708 787.155 376.703 788.741C376.703 790.337 376.466 791.701 375.993 792.832C375.524 793.964 374.852 794.828 373.976 795.425C373.1 796.021 372.051 796.32 370.829 796.32ZM370.829 793.77C371.663 793.77 372.328 793.351 372.825 792.513C373.322 791.675 373.568 790.418 373.564 788.741C373.564 787.638 373.45 786.72 373.223 785.986C373 785.252 372.683 784.7 372.271 784.331C371.864 783.962 371.383 783.777 370.829 783.777C370.001 783.777 369.338 784.191 368.841 785.02C368.344 785.848 368.093 787.089 368.088 788.741C368.088 789.859 368.199 790.792 368.422 791.54C368.649 792.283 368.969 792.842 369.381 793.216C369.792 793.585 370.275 793.77 370.829 793.77ZM384.208 796.199C383.204 796.199 382.31 796.014 381.524 795.645C380.742 795.276 380.122 794.767 379.663 794.118C379.204 793.469 378.964 792.726 378.945 791.888H381.928C381.962 792.451 382.198 792.908 382.639 793.259C383.079 793.609 383.602 793.784 384.208 793.784C384.691 793.784 385.117 793.678 385.487 793.464C385.861 793.247 386.152 792.946 386.36 792.562C386.573 792.174 386.68 791.729 386.68 791.227C386.68 790.716 386.571 790.266 386.353 789.878C386.14 789.49 385.844 789.187 385.465 788.969C385.087 788.751 384.653 788.64 384.166 788.635C383.74 788.635 383.325 788.723 382.923 788.898C382.525 789.073 382.215 789.312 381.992 789.615L379.258 789.125L379.947 781.455H388.839V783.969H382.482L382.106 787.612H382.191C382.447 787.252 382.833 786.954 383.349 786.717C383.865 786.481 384.443 786.362 385.082 786.362C385.958 786.362 386.739 786.568 387.426 786.98C388.112 787.392 388.654 787.958 389.052 788.678C389.45 789.393 389.646 790.216 389.642 791.149C389.646 792.129 389.419 793 388.96 793.763C388.505 794.52 387.868 795.117 387.049 795.553C386.235 795.983 385.288 796.199 384.208 796.199Z"
       fill="#1A1A1A"
       id="path120" />
    <path
       d="M486.019 793.443V791.021L492.092 781.455H494.18V784.807H492.944L489.116 790.865V790.979H497.745V793.443H486.019ZM493.001 796V792.705L493.058 791.632V781.455H495.941V796H493.001ZM505.497 796.32C504.276 796.315 503.225 796.014 502.344 795.418C501.468 794.821 500.793 793.957 500.32 792.825C499.851 791.694 499.619 790.332 499.624 788.741C499.624 787.155 499.858 785.804 500.327 784.686C500.8 783.569 501.475 782.719 502.351 782.136C503.232 781.549 504.28 781.256 505.497 781.256C506.714 781.256 507.761 781.549 508.637 782.136C509.517 782.723 510.194 783.576 510.668 784.693C511.141 785.806 511.376 787.155 511.371 788.741C511.371 790.337 511.134 791.701 510.661 792.832C510.192 793.964 509.52 794.828 508.644 795.425C507.768 796.021 506.719 796.32 505.497 796.32ZM505.497 793.77C506.331 793.77 506.996 793.351 507.493 792.513C507.99 791.675 508.236 790.418 508.232 788.741C508.232 787.638 508.118 786.72 507.891 785.986C507.668 785.252 507.351 784.7 506.939 784.331C506.532 783.962 506.051 783.777 505.497 783.777C504.669 783.777 504.006 784.191 503.509 785.02C503.012 785.848 502.761 787.089 502.756 788.741C502.756 789.859 502.867 790.792 503.09 791.54C503.317 792.283 503.637 792.842 504.048 793.216C504.46 793.585 504.943 793.77 505.497 793.77ZM513.344 793.443V791.021L519.416 781.455H521.504V784.807H520.268L516.44 790.865V790.979H525.069V793.443H513.344ZM520.325 796V792.705L520.382 791.632V781.455H523.265V796H520.325Z"
       fill="#1A1A1A"
       id="path121" />
    <path
       d="M646.205 793.443V791.021L652.277 781.455H654.365V784.807H653.13L649.301 790.865V790.979H657.931V793.443H646.205ZM653.186 796V792.705L653.243 791.632V781.455H656.127V796H653.186ZM665.683 796.32C664.461 796.315 663.41 796.014 662.529 795.418C661.654 794.821 660.979 793.957 660.505 792.825C660.037 791.694 659.805 790.332 659.809 788.741C659.809 787.155 660.044 785.804 660.512 784.686C660.986 783.569 661.661 782.719 662.537 782.136C663.417 781.549 664.466 781.256 665.683 781.256C666.9 781.256 667.946 781.549 668.822 782.136C669.703 782.723 670.38 783.576 670.853 784.693C671.327 785.806 671.561 787.155 671.556 788.741C671.556 790.337 671.32 791.701 670.846 792.832C670.377 793.964 669.705 794.828 668.829 795.425C667.953 796.021 666.904 796.32 665.683 796.32ZM665.683 793.77C666.516 793.77 667.181 793.351 667.679 792.513C668.176 791.675 668.422 790.418 668.417 788.741C668.417 787.638 668.304 786.72 668.076 785.986C667.854 785.252 667.537 784.7 667.125 784.331C666.717 783.962 666.237 783.777 665.683 783.777C664.854 783.777 664.191 784.191 663.694 785.02C663.197 785.848 662.946 787.089 662.941 788.741C662.941 789.859 663.053 790.792 663.275 791.54C663.502 792.283 663.822 792.842 664.234 793.216C664.646 793.585 665.129 793.77 665.683 793.77ZM679.126 796.199C678.065 796.199 677.121 796.017 676.292 795.652C675.468 795.283 674.817 794.776 674.339 794.132C673.865 793.483 673.621 792.735 673.607 791.888H676.704C676.723 792.243 676.839 792.555 677.052 792.825C677.27 793.09 677.558 793.296 677.918 793.443C678.278 793.59 678.683 793.663 679.133 793.663C679.602 793.663 680.016 793.58 680.376 793.415C680.736 793.249 681.017 793.019 681.221 792.726C681.424 792.432 681.526 792.094 681.526 791.71C681.526 791.322 681.417 790.979 681.2 790.68C680.987 790.377 680.679 790.141 680.276 789.97C679.879 789.8 679.405 789.714 678.856 789.714H677.499V787.456H678.856C679.32 787.456 679.729 787.375 680.085 787.214C680.444 787.054 680.724 786.831 680.923 786.547C681.121 786.258 681.221 785.922 681.221 785.538C681.221 785.174 681.133 784.854 680.958 784.58C680.788 784.3 680.546 784.082 680.234 783.926C679.926 783.77 679.566 783.692 679.154 783.692C678.737 783.692 678.356 783.768 678.011 783.919C677.665 784.066 677.388 784.277 677.18 784.551C676.971 784.826 676.86 785.148 676.846 785.517H673.898C673.913 784.679 674.152 783.94 674.616 783.301C675.08 782.662 675.705 782.162 676.491 781.803C677.281 781.438 678.174 781.256 679.168 781.256C680.172 781.256 681.05 781.438 681.803 781.803C682.556 782.167 683.141 782.66 683.558 783.28C683.979 783.895 684.187 784.587 684.183 785.354C684.187 786.168 683.934 786.848 683.423 787.392C682.916 787.937 682.255 788.282 681.441 788.429V788.543C682.511 788.68 683.326 789.052 683.884 789.658C684.448 790.259 684.727 791.012 684.722 791.916C684.727 792.745 684.488 793.481 684.005 794.125C683.527 794.769 682.866 795.276 682.023 795.645C681.181 796.014 680.215 796.199 679.126 796.199Z"
       fill="#1A1A1A"
       id="path122" />
    <path
       d="M62.5 709.5L179 710"
       stroke="#1A1A1A"
       stroke-width="2.5"
       id="path123" />
    <path
       d="M337 640L337 711"
       stroke="#1A1A1A"
       stroke-width="2"
       id="path124" />
    <path
       d="M448 640L447.5 711"
       stroke="#1A1A1A"
       stroke-width="2"
       id="path125" />
    <path
       d="M666 710V750"
       stroke="#1A1A1A"
       stroke-width="2"
       id="path126" />
    <path
       d="M666 722V737"
       stroke="#FCFCFC"
       stroke-width="7"
       id="path127" />
    <path
       d="M577.5 641.5V710.5M576 749.5V828"
       stroke="#1A1A1A"
       stroke-width="2.5"
       id="path128" />
    <path
       d="M400.5 93V130.5"
       stroke="#1A1A1A"
       stroke-width="2.5"
       stroke-linecap="square"
       id="path129" />
    <path
       d="M736 772V757"
       stroke="#FCFCFC"
       stroke-width="7"
       id="path130" />
    <path
       d="M390 635H412V647H390V635Z"
       fill="#1A1A1A"
       id="path131" />
    <rect
       id="rect132"
       width="142.60289"
       height="108.24732"
       x="435.44327"
       y="140.96692"
       inkscape:label="rect415" />
    <rect
       id="rect133"
       width="142.60289"
       height="72.801094"
       x="435.71591"
       y="250.3049"
       inkscape:label="rect416" />
    <rect
       id="rect134"
       width="142.87556"
       height="108.51999"
       x="221.67525"
       y="141.51224"
       inkscape:label="rect414" />
    <rect
       id="rect135"
       width="142.60289"
       height="72.528435"
       x="221.67525"
       y="250.57756"
       inkscape:label="rect413" />
    <rect
       id="rect136"
       width="142.33023"
       height="162.77998"
       x="221.94791"
       y="323.65131"
       inkscape:label="rect412" />
    <rect
       id="rect137"
       width="142.60289"
       height="162.77998"
       x="435.44327"
       y="-486.43127"
       inkscape:label="rect417"
       transform="scale(1,-1)" />
    <rect
       id="rect138"
       width="143.05913"
       height="50.899742"
       x="221.72237"
       y="487.78922"
       inkscape:label="rect411" />
    <rect
       id="rect139"
       width="158.09769"
       height="67.287918"
       x="61.696659"
       y="641.83807"
       inkscape:label="rect409" />
    <rect
       id="rect140"
       width="142.48071"
       height="78.084831"
       x="62.082264"
       y="750.38562"
       inkscape:label="rect407" />
    <rect
       id="rect141"
       width="95.822624"
       height="77.506424"
       x="205.52699"
       y="750.77118"
       inkscape:label="rect406" />
    <rect
       id="rect142"
       width="131.8766"
       height="76.928024"
       x="302.50644"
       y="750.96399"
       inkscape:label="rect405" />
    <rect
       id="rect143"
       width="139.39589"
       height="77.120819"
       x="435.73264"
       y="750.96399"
       inkscape:label="rect404" />
    <rect
       id="rect144"
       width="181.81233"
       height="77.699226"
       x="576.47815"
       y="750.57843"
       inkscape:label="rect403" />
    <rect
       id="rect145"
       width="180.46272"
       height="67.287918"
       x="578.02057"
       y="641.64526"
       inkscape:label="rect401" />
    <rect
       id="rect146"
       width="91.580978"
       height="39.138817"
       x="666.32391"
       y="710.47559"
       inkscape:label="rect402" />
    <rect
       id="rect147"
       width="62.660667"
       height="68.637535"
       x="514.39587"
       y="641.25964"
       inkscape:label="rect-stairs-right" />
    <rect
       id="rect148"
       width="66.902313"
       height="67.866325"
       x="219.98715"
       y="641.83807"
       inkscape:label="rect-stairs-left" />
    <rect
       id="rect149"
       width="67.287918"
       height="39.331619"
       x="366.7095"
       y="91.580978"
       inkscape:label="rect-stairs-center" />
    <rect
       id="rect2"
       width="100.88541"
       height="39.808838"
       x="61.076576"
       y="710.0152"
       inkscape:label="rect408" />
  </g>
  <defs
     id="defs131">
    <clipPath
       id="clip0_9_2">
      <rect
         width="820"
         height="900"
         fill="white"
         id="rect131" />
    </clipPath>
  </defs>
</svg>
