<?xml version="1.0" encoding="UTF-8" standalone="no"?>
<svg
   width="820"
   height="900"
   viewBox="0 0 820 900"
   fill="none"
   version="1.1"
   id="svg134"
   sodipodi:docname="2этаж(с кабинетами).svg"
   inkscape:version="1.4.2 (f4327f4, 2025-05-13)"
   xmlns:inkscape="http://www.inkscape.org/namespaces/inkscape"
   xmlns:sodipodi="http://sodipodi.sourceforge.net/DTD/sodipodi-0.dtd"
   xmlns="http://www.w3.org/2000/svg"
   xmlns:svg="http://www.w3.org/2000/svg">
  <sodipodi:namedview
     id="namedview134"
     pagecolor="#ffffff"
     bordercolor="#000000"
     borderopacity="0.25"
     inkscape:showpageshadow="2"
     inkscape:pageopacity="0.0"
     inkscape:pagecheckerboard="0"
     inkscape:deskcolor="#d1d1d1"
     inkscape:zoom="3.6675272"
     inkscape:cx="392.77146"
     inkscape:cy="180.63942"
     inkscape:window-width="2560"
     inkscape:window-height="1369"
     inkscape:window-x="-8"
     inkscape:window-y="-8"
     inkscape:window-maximized="1"
     inkscape:current-layer="g134" />
  <g
     clip-path="url(#clip0_9_2)"
     id="g134">
    <line
       x1="365"
       y1="538.75"
       x2="437"
       y2="538.75"
       stroke="#1a1a1a"
       stroke-width="2.5"
       id="line1"
       style="display:inline" />
    <path
       d="M 220,140 H 365 V 90 h 70 v 50 H 580 V 540 H 435 V 640 H 760 V 830 H 60 V 640 H 365 V 540 H 220 Z"
       stroke="#1a1a1a"
       stroke-width="5"
       stroke-linecap="square"
       id="path1"
       style="display:inline" />
    <path
       d="M 365,140 V 540"
       stroke="#1a1a1a"
       stroke-width="2.5"
       stroke-linecap="square"
       id="path2"
       style="display:inline" />
    <path
       d="M 435,140 V 540"
       stroke="#1a1a1a"
       stroke-width="2.5"
       stroke-linecap="square"
       id="path3"
       style="display:inline" />
    <path
       d="M 220,250 H 365"
       stroke="#1a1a1a"
       stroke-width="2.5"
       stroke-linecap="square"
       id="path4"
       style="display:inline" />
    <path
       d="M 220,360 H 365"
       stroke="#1a1a1a"
       stroke-width="2.5"
       stroke-linecap="square"
       id="path5"
       style="display:inline" />
    <path
       d="M 220,440 H 365"
       stroke="#1a1a1a"
       stroke-width="2.5"
       stroke-linecap="square"
       id="path6"
       style="display:inline" />
    <path
       d="M 435,250 H 580"
       stroke="#1a1a1a"
       stroke-width="2.5"
       stroke-linecap="square"
       id="path7"
       style="display:inline" />
    <path
       d="M 435,360 H 580"
       stroke="#1a1a1a"
       stroke-width="2.5"
       stroke-linecap="square"
       id="path8"
       style="display:inline" />
    <path
       d="M 435,440 H 580"
       stroke="#1a1a1a"
       stroke-width="2.5"
       stroke-linecap="square"
       id="path9"
       style="display:inline" />
    <path
       d="m 320,540 v -40 h 45"
       stroke="#1a1a1a"
       stroke-width="2.5"
       stroke-linecap="square"
       id="path10"
       style="display:inline" />
    <path
       d="M 180,710 H 365"
       stroke="#1a1a1a"
       stroke-width="2.5"
       stroke-linecap="square"
       id="path11"
       style="display:inline" />
    <path
       d="M 435,710 H 620"
       stroke="#1a1a1a"
       stroke-width="2.5"
       stroke-linecap="square"
       id="path12"
       style="display:inline" />
    <path
       d="M 60,750 H 760"
       stroke="#1a1a1a"
       stroke-width="2.5"
       stroke-linecap="square"
       id="path13"
       style="display:inline" />
    <path
       d="m 220,640 v 70"
       stroke="#1a1a1a"
       stroke-width="2.5"
       stroke-linecap="square"
       id="path14"
       style="display:inline" />
    <path
       d="m 300,640 v 70"
       stroke="#1a1a1a"
       stroke-width="2.5"
       stroke-linecap="square"
       id="path15"
       style="display:inline" />
    <path
       d="m 162,710 v 40"
       stroke="#1a1a1a"
       stroke-width="2.5"
       stroke-linecap="square"
       id="path16"
       style="display:inline" />
    <path
       d="m 205,750 v 80"
       stroke="#1a1a1a"
       stroke-width="2.5"
       stroke-linecap="square"
       id="path17"
       style="display:inline" />
    <path
       d="m 285,750 v 80"
       stroke="#1a1a1a"
       stroke-width="2.5"
       stroke-linecap="square"
       id="path18"
       style="display:inline" />
    <path
       d="m 395,750 v 80"
       stroke="#1a1a1a"
       stroke-width="2.5"
       stroke-linecap="square"
       id="path19"
       style="display:inline" />
    <path
       d="m 435,750 v 80"
       stroke="#1a1a1a"
       stroke-width="2.5"
       stroke-linecap="square"
       id="path20"
       style="display:inline" />
    <path
       d="m 505,640 v 70"
       stroke="#1a1a1a"
       stroke-width="2.5"
       stroke-linecap="square"
       id="path21"
       style="display:inline" />
    <path
       d="m 568,639 v 70"
       stroke="#1a1a1a"
       stroke-width="2.5"
       stroke-linecap="square"
       id="path22"
       style="display:inline" />
    <path
       d="M 620,710 H 760"
       stroke="#1a1a1a"
       stroke-width="2.5"
       stroke-linecap="square"
       id="path23"
       style="display:inline" />
    <path
       d="m 500,750 v 80"
       stroke="#1a1a1a"
       stroke-width="2.5"
       stroke-linecap="square"
       id="path24"
       style="display:inline" />
    <path
       d="m 564.5,750 v 80"
       stroke="#1a1a1a"
       stroke-width="2.5"
       stroke-linecap="square"
       id="path25"
       style="display:inline" />
    <path
       d="M 597,709.5 620,685 v -43.5"
       stroke="#1a1a1a"
       stroke-width="1.5"
       id="path26"
       style="display:inline" />
    <path
       d="M 605.5,750.5 620,773 v 57"
       stroke="#1a1a1a"
       stroke-width="1.5"
       id="path27"
       style="display:inline" />
    <path
       d="m 410,665 h -20 v 10 h 20 z"
       stroke="#1a1a1a"
       stroke-width="1.5"
       id="path28"
       style="display:inline" />
    <path
       d="m 365,220 v 20"
       stroke="#fcfcfc"
       stroke-width="7"
       id="path29"
       style="display:inline" />
    <path
       d="m 365,260 v 20"
       stroke="#fcfcfc"
       stroke-width="7"
       id="path30"
       style="display:inline" />
    <path
       d="m 365,410 v 20"
       stroke="#fcfcfc"
       stroke-width="7"
       id="path31"
       style="display:inline" />
    <path
       d="m 365,450 v 20"
       stroke="#fcfcfc"
       stroke-width="7"
       id="path32"
       style="display:inline" />
    <path
       d="m 435,220 v 20"
       stroke="#fcfcfc"
       stroke-width="7"
       id="path33"
       style="display:inline" />
    <path
       d="m 435,260 v 20"
       stroke="#fcfcfc"
       stroke-width="7"
       id="path34"
       style="display:inline" />
    <path
       d="m 435,410 v 20"
       stroke="#fcfcfc"
       stroke-width="7"
       id="path35"
       style="display:inline" />
    <path
       d="m 435,450 v 20"
       stroke="#fcfcfc"
       stroke-width="7"
       id="path36"
       style="display:inline" />
    <path
       d="m 309,710 h 15"
       stroke="#fcfcfc"
       stroke-width="7"
       id="path37"
       style="display:inline" />
    <path
       d="m 162,720 v 15"
       stroke="#fcfcfc"
       stroke-width="7"
       id="path38"
       style="display:inline" />
    <path
       d="m 185,750 h 15"
       stroke="#fcfcfc"
       stroke-width="7"
       id="path39"
       style="display:inline" />
    <path
       d="m 235,750 h 15"
       stroke="#fcfcfc"
       stroke-width="7"
       id="path40"
       style="display:inline" />
    <path
       d="m 330,750 h 15"
       stroke="#fcfcfc"
       stroke-width="7"
       id="path41"
       style="display:inline" />
    <path
       d="m 405,750 h 15"
       stroke="#fcfcfc"
       stroke-width="7"
       id="path42"
       style="display:inline" />
    <path
       d="m 460,710 h 15"
       stroke="#fcfcfc"
       stroke-width="7"
       id="path43"
       style="display:inline" />
    <path
       d="m 630,710 h 15"
       stroke="#fcfcfc"
       stroke-width="7"
       id="path44"
       style="display:inline" />
    <path
       d="M 605,701.066 615.127,690"
       stroke="#fcfcfc"
       stroke-width="7"
       id="path45"
       style="display:inline" />
    <path
       d="m 445,750 h 15"
       stroke="#fcfcfc"
       stroke-width="7"
       id="path46"
       style="display:inline" />
    <path
       d="m 520,750 h 15"
       stroke="#fcfcfc"
       stroke-width="7"
       id="path47"
       style="display:inline" />
    <path
       d="m 630,750 h 15"
       stroke="#fcfcfc"
       stroke-width="7"
       id="path48"
       style="display:inline" />
    <path
       d="m 184.5,709 h 15"
       stroke="#fcfcfc"
       stroke-width="7"
       id="path49"
       style="display:inline" />
    <path
       d="M 410,539 H 390"
       stroke="#fcfcfc"
       stroke-width="9"
       id="path50"
       style="display:inline" />
    <path
       d="m 365,95 h 70 m -70,6 h 70 m -70,6 h 70 m -70,6 h 70 m -70,6 h 70 m -70,6 h 70 m -70,6 h 70"
       stroke="#1a1a1a"
       stroke-width="1.5"
       id="path51"
       style="display:inline" />
    <path
       d="m 260,640 v 70"
       stroke="#1a1a1a"
       stroke-width="2.5"
       stroke-linecap="square"
       id="path52"
       style="display:inline" />
    <path
       d="m 220,645 h 40 m -40,6 h 40 m -40,6 h 40 m -40,6 h 40 m -40,6 h 40 m -40,6 h 40 m -40,6 h 40 m -40,6 h 40 m -40,6 h 40 m -40,6 h 40 m -40,6 h 40"
       stroke="#1a1a1a"
       stroke-width="1.5"
       id="path53"
       style="display:inline" />
    <path
       d="m 260,645 h 40 m -40,6 h 40 m -40,6 h 40 m -40,6 h 40 m -40,6 h 40 m -40,6 h 40 m -40,6 h 40 m -40,6 h 40 m -40,6 h 40 m -40,6 h 40 m -40,6 h 40"
       stroke="#1a1a1a"
       stroke-width="1.5"
       id="path54"
       style="display:inline" />
    <path
       d="m 536.5,640 v 70"
       stroke="#1a1a1a"
       stroke-width="2.5"
       stroke-linecap="square"
       id="path55"
       style="display:inline" />
    <path
       d="m 506,645 h 30 m -30,6 h 30 m -30,6 h 30 m -30,6 h 30 m -30,6 h 30 m -30,6 h 30 m -30,6 h 30 m -30,6 h 30 m -30,6 h 30 m -30,6 h 30 m -30,6 h 30"
       stroke="#1a1a1a"
       stroke-width="1.5"
       id="path56"
       style="display:inline" />
    <path
       d="m 537,645 h 30 m -30,6 h 30 m -30,6 h 30 m -30,6 h 30 m -30,6 h 30 m -30,6 h 30 m -30,6 h 30 m -30,6 h 30 m -30,6 h 30 m -30,6 h 30 m -30,6 h 30"
       stroke="#1a1a1a"
       stroke-width="1.5"
       id="path57"
       style="display:inline" />
    <path
       d="m 223,180 h -6 v 30 h 6 z"
       fill="#fcfcfc"
       stroke="#1a1a1a"
       stroke-width="1.5"
       id="path58"
       style="display:inline" />
    <path
       d="m 220,180 v 30"
       stroke="#1a1a1a"
       id="path59"
       style="display:inline" />
    <path
       d="m 223,290 h -6 v 30 h 6 z"
       fill="#fcfcfc"
       stroke="#1a1a1a"
       stroke-width="1.5"
       id="path60"
       style="display:inline" />
    <path
       d="m 220,290 v 30"
       stroke="#1a1a1a"
       id="path61"
       style="display:inline" />
    <path
       d="m 223,385 h -6 v 30 h 6 z"
       fill="#fcfcfc"
       stroke="#1a1a1a"
       stroke-width="1.5"
       id="path62"
       style="display:inline" />
    <path
       d="m 220,385 v 30"
       stroke="#1a1a1a"
       id="path63"
       style="display:inline" />
    <path
       d="m 223,475 h -6 v 30 h 6 z"
       fill="#fcfcfc"
       stroke="#1a1a1a"
       stroke-width="1.5"
       id="path64"
       style="display:inline" />
    <path
       d="m 220,475 v 30"
       stroke="#1a1a1a"
       id="path65"
       style="display:inline" />
    <path
       d="m 60,660 v 30"
       stroke="#1a1a1a"
       id="path66"
       style="display:inline" />
    <path
       d="m 60,715 v 30"
       stroke="#1a1a1a"
       id="path67"
       style="display:inline" />
    <path
       d="m 583,180 h -6 v 30 h 6 z"
       fill="#fcfcfc"
       stroke="#1a1a1a"
       stroke-width="1.5"
       id="path68"
       style="display:inline" />
    <path
       d="m 580,180 v 30"
       stroke="#1a1a1a"
       id="path69"
       style="display:inline" />
    <path
       d="m 583,290 h -6 v 30 h 6 z"
       fill="#fcfcfc"
       stroke="#1a1a1a"
       stroke-width="1.5"
       id="path70"
       style="display:inline" />
    <path
       d="m 580,290 v 30"
       stroke="#1a1a1a"
       id="path71"
       style="display:inline" />
    <path
       d="m 583,385 h -6 v 30 h 6 z"
       fill="#fcfcfc"
       stroke="#1a1a1a"
       stroke-width="1.5"
       id="path72"
       style="display:inline" />
    <path
       d="m 580,385 v 30"
       stroke="#1a1a1a"
       id="path73"
       style="display:inline" />
    <path
       d="m 583,475 h -6 v 30 h 6 z"
       fill="#fcfcfc"
       stroke="#1a1a1a"
       stroke-width="1.5"
       id="path74"
       style="display:inline" />
    <path
       d="m 580,475 v 30"
       stroke="#1a1a1a"
       id="path75"
       style="display:inline" />
    <path
       d="m 760,660 v 30"
       stroke="#1a1a1a"
       id="path76"
       style="display:inline" />
    <path
       d="m 760,775 v 30"
       stroke="#1a1a1a"
       id="path77"
       style="display:inline" />
    <path
       d="m 135,637 h -30 v 6 h 30 z"
       fill="#fcfcfc"
       stroke="#1a1a1a"
       stroke-width="1.5"
       id="path78"
       style="display:inline" />
    <path
       d="m 105,640 h 30"
       stroke="#1a1a1a"
       id="path79"
       style="display:inline" />
    <path
       d="m 215,637 h -30 v 6 h 30 z"
       fill="#fcfcfc"
       stroke="#1a1a1a"
       stroke-width="1.5"
       id="path80"
       style="display:inline" />
    <path
       d="m 185,640 h 30"
       stroke="#1a1a1a"
       id="path81"
       style="display:inline" />
    <path
       d="m 482,637 h -30 v 6 h 30 z"
       fill="#fcfcfc"
       stroke="#1a1a1a"
       stroke-width="1.5"
       id="path82"
       style="display:inline" />
    <path
       d="m 452,640 h 30"
       stroke="#1a1a1a"
       id="path83"
       style="display:inline" />
    <path
       d="m 675,637 h -30 v 6 h 30 z"
       fill="#fcfcfc"
       stroke="#1a1a1a"
       stroke-width="1.5"
       id="path84"
       style="display:inline" />
    <path
       d="m 645,640 h 30"
       stroke="#1a1a1a"
       id="path85"
       style="display:inline" />
    <path
       d="m 735,637 h -30 v 6 h 30 z"
       fill="#fcfcfc"
       stroke="#1a1a1a"
       stroke-width="1.5"
       id="path86"
       style="display:inline" />
    <path
       d="m 705,640 h 30"
       stroke="#1a1a1a"
       id="path87"
       style="display:inline" />
    <path
       d="M 115,827 H 85 v 6 h 30 z"
       fill="#fcfcfc"
       stroke="#1a1a1a"
       stroke-width="1.5"
       id="path88"
       style="display:inline" />
    <path
       d="m 85,830 h 30"
       stroke="#1a1a1a"
       id="path89"
       style="display:inline" />
    <path
       d="m 175,827 h -30 v 6 h 30 z"
       fill="#fcfcfc"
       stroke="#1a1a1a"
       stroke-width="1.5"
       id="path90"
       style="display:inline" />
    <path
       d="m 145,830 h 30"
       stroke="#1a1a1a"
       id="path91"
       style="display:inline" />
    <path
       d="m 260,827 h -30 v 6 h 30 z"
       fill="#fcfcfc"
       stroke="#1a1a1a"
       stroke-width="1.5"
       id="path92"
       style="display:inline" />
    <path
       d="m 230,830 h 30"
       stroke="#1a1a1a"
       id="path93"
       style="display:inline" />
    <path
       d="m 355,827 h -30 v 6 h 30 z"
       fill="#fcfcfc"
       stroke="#1a1a1a"
       stroke-width="1.5"
       id="path94"
       style="display:inline" />
    <path
       d="m 325,830 h 30"
       stroke="#1a1a1a"
       id="path95"
       style="display:inline" />
    <path
       d="m 482,827 h -30 v 6 h 30 z"
       fill="#fcfcfc"
       stroke="#1a1a1a"
       stroke-width="1.5"
       id="path96"
       style="display:inline" />
    <path
       d="m 452,830 h 30"
       stroke="#1a1a1a"
       id="path97"
       style="display:inline" />
    <path
       d="m 545,827 h -30 v 6 h 30 z"
       fill="#fcfcfc"
       stroke="#1a1a1a"
       stroke-width="1.5"
       id="path98"
       style="display:inline" />
    <path
       d="m 515,830 h 30"
       stroke="#1a1a1a"
       id="path99"
       style="display:inline" />
    <path
       d="m 675,827 h -30 v 6 h 30 z"
       fill="#fcfcfc"
       stroke="#1a1a1a"
       stroke-width="1.5"
       id="path100"
       style="display:inline" />
    <path
       d="m 645,830 h 30"
       stroke="#1a1a1a"
       id="path101"
       style="display:inline" />
    <path
       d="m 735,827 h -30 v 6 h 30 z"
       fill="#fcfcfc"
       stroke="#1a1a1a"
       stroke-width="1.5"
       id="path102"
       style="display:inline" />
    <path
       d="m 705,830 h 30"
       stroke="#1a1a1a"
       id="path103"
       style="display:inline" />
    <path
       d="m 370.581,45 v -1.9943 l 4.659,-4.3146 c 0.397,-0.3836 0.729,-0.7287 0.998,-1.0356 0.272,-0.3068 0.479,-0.6072 0.62,-0.9012 0.14,-0.2983 0.211,-0.6201 0.211,-0.9652 0,-0.3836 -0.088,-0.7138 -0.263,-0.9908 -0.174,-0.2813 -0.413,-0.4965 -0.715,-0.6456 -0.303,-0.1534 -0.646,-0.2301 -1.03,-0.2301 -0.4,0 -0.75,0.081 -1.048,0.2429 -0.298,0.1619 -0.528,0.3942 -0.69,0.6967 -0.162,0.3026 -0.243,0.6627 -0.243,1.0803 h -2.627 c 0,-0.8566 0.194,-1.6002 0.581,-2.2309 0.388,-0.6306 0.932,-1.1186 1.63,-1.4637 0.699,-0.3452 1.505,-0.5178 2.417,-0.5178 0.937,0 1.753,0.1662 2.448,0.4986 0.699,0.3281 1.242,0.7841 1.63,1.3679 0.388,0.5838 0.581,1.2528 0.581,2.0071 0,0.4943 -0.098,0.9822 -0.294,1.4638 -0.191,0.4815 -0.534,1.0163 -1.029,1.6044 -0.494,0.5838 -1.191,1.2848 -2.09,2.103 l -1.911,1.8728 v 0.0895 h 5.497 V 45 Z m 19.16,-7.7855 c -0.307,0 -0.58,0.0596 -0.818,0.179 -0.239,0.1193 -0.427,0.2855 -0.563,0.4985 -0.132,0.2089 -0.198,0.456 -0.198,0.7415 h -2.448 c 0,-0.5326 0.102,-1.0184 0.307,-1.4574 0.204,-0.4431 0.49,-0.8245 0.856,-1.1441 0.367,-0.3239 0.793,-0.5732 1.279,-0.7479 0.49,-0.1747 1.018,-0.2621 1.585,-0.2621 0.988,0 1.819,0.2216 2.493,0.6648 0.677,0.4389 1.189,1.0334 1.534,1.7834 0.349,0.7457 0.524,1.5831 0.524,2.512 v 0.2366 c 0,0.9332 -0.173,1.7748 -0.518,2.5248 -0.345,0.75 -0.856,1.3445 -1.534,1.7834 -0.673,0.4346 -1.506,0.652 -2.499,0.652 -0.793,0 -1.492,-0.1556 -2.097,-0.4666 -0.605,-0.3154 -1.078,-0.7607 -1.419,-1.336 -0.341,-0.5795 -0.511,-1.2677 -0.511,-2.0646 h 2.448 c 0,0.3025 0.064,0.5795 0.192,0.831 0.128,0.2514 0.309,0.4517 0.543,0.6008 0.239,0.1492 0.52,0.2259 0.844,0.2301 0.507,-0.0042 0.901,-0.147 1.182,-0.4282 0.286,-0.2813 0.484,-0.6329 0.595,-1.0547 0.115,-0.4262 0.172,-0.8502 0.172,-1.272 v -0.2366 c 0,-0.4644 -0.059,-0.9076 -0.179,-1.3295 -0.115,-0.4219 -0.315,-0.767 -0.6,-1.0355 -0.282,-0.2685 -0.672,-0.4027 -1.17,-0.4027 z m 2.736,2.071 v 1.6108 h -3.471 v -1.6108 z m 2.649,-1.9623 v -2.1414 h 8.898 v 2.1414 H 400.86 V 45 h -2.595 v -7.6768 z m 12.997,7.8622 c -0.627,0 -1.185,-0.1087 -1.675,-0.326 -0.49,-0.2216 -0.878,-0.5476 -1.163,-0.978 -0.282,-0.4347 -0.422,-0.9759 -0.422,-1.6236 0,-0.5454 0.1,-1.0035 0.3,-1.3743 0.2,-0.3707 0.473,-0.669 0.818,-0.8949 0.346,-0.2258 0.738,-0.3963 1.176,-0.5113 0.444,-0.1151 0.908,-0.1961 1.394,-0.2429 0.571,-0.0597 1.031,-0.1151 1.381,-0.1662 0.349,-0.0554 0.603,-0.1364 0.76,-0.2429 0.158,-0.1066 0.237,-0.2642 0.237,-0.473 v -0.0384 c 0,-0.4048 -0.128,-0.718 -0.384,-0.9396 -0.251,-0.2216 -0.609,-0.3324 -1.074,-0.3324 -0.49,0 -0.88,0.1087 -1.169,0.326 -0.29,0.2131 -0.482,0.4815 -0.576,0.8054 l -2.518,-0.2045 c 0.128,-0.5966 0.379,-1.1123 0.754,-1.5469 0.375,-0.4389 0.859,-0.7756 1.451,-1.01 0.597,-0.2386 1.287,-0.3579 2.071,-0.3579 0.546,0 1.068,0.0639 1.566,0.1917 0.503,0.1279 0.948,0.326 1.336,0.5945 0.392,0.2685 0.701,0.6136 0.927,1.0355 0.226,0.4176 0.339,0.9183 0.339,1.5021 V 45 h -2.583 v -1.3615 h -0.076 c -0.158,0.3068 -0.369,0.5774 -0.633,0.8118 -0.264,0.2301 -0.582,0.4112 -0.953,0.5433 -0.37,0.1278 -0.799,0.1918 -1.284,0.1918 z m 0.78,-1.8793 c 0.4,0 0.754,-0.0788 1.061,-0.2365 0.306,-0.1619 0.547,-0.3793 0.722,-0.652 0.175,-0.2727 0.262,-0.5817 0.262,-0.9268 v -1.0419 c -0.085,0.0554 -0.202,0.1065 -0.352,0.1534 -0.144,0.0426 -0.309,0.0831 -0.492,0.1214 -0.183,0.0341 -0.366,0.0661 -0.549,0.0959 -0.184,0.0256 -0.35,0.049 -0.499,0.0703 -0.32,0.0469 -0.599,0.1215 -0.837,0.2237 -0.239,0.1023 -0.424,0.2408 -0.557,0.4155 -0.132,0.1705 -0.198,0.3835 -0.198,0.6392 0,0.3708 0.135,0.6541 0.403,0.8502 0.273,0.1917 0.618,0.2876 1.036,0.2876 z m 6.222,1.6939 3.433,-5.1072 -3.414,-4.711 h 3.107 l 2.55,3.8416 h 0.422 v -3.8416 h 2.723 v 3.8416 h 0.409 l 2.551,-3.8416 h 3.106 l -3.407,4.711 3.426,5.1072 h -3.176 l -2.525,-3.8352 h -0.384 V 45 h -2.723 V 41.1648 H 420.84 L 418.302,45 Z"
       fill="#1a1a1a"
       id="path104"
       style="display:inline" />
    <path
       d="m 276.21,229 v -2.216 l 5.178,-4.794 c 0.44,-0.426 0.809,-0.81 1.108,-1.151 0.303,-0.34 0.532,-0.674 0.689,-1.001 0.156,-0.331 0.234,-0.689 0.234,-1.072 0,-0.427 -0.097,-0.793 -0.291,-1.101 -0.194,-0.313 -0.459,-0.552 -0.796,-0.718 -0.336,-0.17 -0.717,-0.255 -1.143,-0.255 -0.445,0 -0.833,0.09 -1.165,0.27 -0.331,0.18 -0.587,0.438 -0.767,0.774 -0.18,0.336 -0.27,0.736 -0.27,1.2 h -2.919 c 0,-0.952 0.216,-1.778 0.646,-2.479 0.431,-0.7 1.035,-1.243 1.812,-1.626 0.776,-0.384 1.671,-0.575 2.684,-0.575 1.042,0 1.949,0.184 2.72,0.554 0.777,0.364 1.381,0.871 1.811,1.52 0.431,0.648 0.647,1.392 0.647,2.23 0,0.549 -0.109,1.091 -0.327,1.626 -0.213,0.535 -0.594,1.129 -1.143,1.783 -0.55,0.648 -1.324,1.427 -2.323,2.336 l -2.123,2.081 v 0.1 h 6.108 V 229 Z m 18.926,-14.545 V 229 h -3.075 v -11.626 h -0.086 l -3.33,2.088 v -2.728 l 3.6,-2.279 z m 3.237,11.988 v -2.422 l 6.072,-9.566 h 2.088 v 3.352 h -1.235 l -3.829,6.058 v 0.114 h 8.63 v 2.464 z m 6.981,2.557 v -3.295 l 0.057,-1.073 v -10.177 h 2.884 V 229 Z"
       fill="#1a1a1a"
       id="path105"
       style="display:inline" />
    <path
       d="m 275.896,304 v -2.216 l 5.177,-4.794 c 0.441,-0.426 0.81,-0.81 1.108,-1.151 0.303,-0.34 0.533,-0.674 0.689,-1.001 0.156,-0.331 0.235,-0.689 0.235,-1.072 0,-0.427 -0.097,-0.793 -0.292,-1.101 -0.194,-0.313 -0.459,-0.552 -0.795,-0.718 -0.336,-0.17 -0.717,-0.255 -1.144,-0.255 -0.445,0 -0.833,0.09 -1.164,0.27 -0.332,0.18 -0.587,0.438 -0.767,0.774 -0.18,0.336 -0.27,0.736 -0.27,1.2 h -2.919 c 0,-0.952 0.215,-1.778 0.646,-2.479 0.431,-0.7 1.035,-1.243 1.811,-1.626 0.777,-0.384 1.672,-0.575 2.685,-0.575 1.041,0 1.948,0.184 2.72,0.554 0.776,0.364 1.38,0.871 1.811,1.52 0.431,0.648 0.646,1.392 0.646,2.23 0,0.549 -0.109,1.091 -0.326,1.626 -0.213,0.535 -0.595,1.129 -1.144,1.783 -0.549,0.648 -1.323,1.427 -2.322,2.336 l -2.124,2.081 v 0.1 h 6.108 V 304 Z m 18.926,-14.545 V 304 h -3.076 v -11.626 h -0.085 l -3.331,2.088 v -2.728 l 3.601,-2.279 z m 8.833,14.744 c -1.061,0 -2.005,-0.182 -2.834,-0.547 -0.824,-0.369 -1.475,-0.876 -1.953,-1.52 -0.473,-0.649 -0.717,-1.397 -0.731,-2.244 h 3.096 c 0.019,0.355 0.135,0.667 0.348,0.937 0.218,0.265 0.507,0.471 0.867,0.618 0.359,0.147 0.764,0.22 1.214,0.22 0.469,0 0.883,-0.083 1.243,-0.248 0.36,-0.166 0.642,-0.396 0.845,-0.689 0.204,-0.294 0.306,-0.632 0.306,-1.016 0,-0.388 -0.109,-0.731 -0.327,-1.03 -0.213,-0.303 -0.521,-0.539 -0.923,-0.71 -0.398,-0.17 -0.872,-0.256 -1.421,-0.256 h -1.356 v -2.258 h 1.356 c 0.464,0 0.874,-0.081 1.229,-0.242 0.36,-0.16 0.639,-0.383 0.838,-0.667 0.199,-0.289 0.298,-0.625 0.298,-1.009 0,-0.364 -0.087,-0.684 -0.263,-0.958 -0.17,-0.28 -0.412,-0.498 -0.724,-0.654 -0.308,-0.156 -0.668,-0.234 -1.08,-0.234 -0.416,0 -0.797,0.076 -1.143,0.227 -0.346,0.147 -0.623,0.358 -0.831,0.632 -0.208,0.275 -0.32,0.597 -0.334,0.966 h -2.947 c 0.014,-0.838 0.253,-1.577 0.717,-2.216 0.464,-0.639 1.089,-1.139 1.875,-1.498 0.791,-0.365 1.683,-0.547 2.678,-0.547 1.003,0 1.882,0.182 2.635,0.547 0.752,0.364 1.337,0.857 1.754,1.477 0.421,0.615 0.63,1.307 0.625,2.074 0.005,0.814 -0.249,1.494 -0.76,2.038 -0.507,0.545 -1.167,0.89 -1.982,1.037 v 0.114 c 1.07,0.137 1.885,0.509 2.444,1.115 0.563,0.601 0.842,1.354 0.838,2.258 0.004,0.829 -0.235,1.565 -0.718,2.209 -0.478,0.644 -1.138,1.151 -1.981,1.52 -0.843,0.369 -1.809,0.554 -2.898,0.554 z"
       fill="#1a1a1a"
       id="path106"
       style="display:inline" />
    <path
       d="m 276.189,399 v -2.216 l 5.177,-4.794 c 0.441,-0.426 0.81,-0.81 1.108,-1.151 0.303,-0.34 0.533,-0.674 0.689,-1.001 0.156,-0.331 0.235,-0.689 0.235,-1.072 0,-0.427 -0.098,-0.793 -0.292,-1.101 -0.194,-0.313 -0.459,-0.552 -0.795,-0.718 -0.336,-0.17 -0.717,-0.255 -1.144,-0.255 -0.445,0 -0.833,0.09 -1.164,0.27 -0.332,0.18 -0.587,0.438 -0.767,0.774 -0.18,0.336 -0.27,0.736 -0.27,1.2 h -2.919 c 0,-0.952 0.215,-1.778 0.646,-2.479 0.431,-0.7 1.035,-1.243 1.811,-1.626 0.777,-0.384 1.671,-0.575 2.685,-0.575 1.041,0 1.948,0.184 2.72,0.554 0.776,0.364 1.38,0.871 1.811,1.52 0.431,0.648 0.646,1.392 0.646,2.23 0,0.549 -0.109,1.091 -0.326,1.626 -0.213,0.535 -0.595,1.129 -1.144,1.783 -0.549,0.648 -1.323,1.427 -2.322,2.336 l -2.124,2.081 v 0.1 h 6.108 V 399 Z m 18.926,-14.545 V 399 h -3.076 v -11.626 h -0.085 l -3.331,2.088 v -2.728 l 3.601,-2.279 z M 298.572,399 v -2.216 l 5.177,-4.794 c 0.44,-0.426 0.81,-0.81 1.108,-1.151 0.303,-0.34 0.533,-0.674 0.689,-1.001 0.156,-0.331 0.234,-0.689 0.234,-1.072 0,-0.427 -0.097,-0.793 -0.291,-1.101 -0.194,-0.313 -0.459,-0.552 -0.795,-0.718 -0.336,-0.17 -0.718,-0.255 -1.144,-0.255 -0.445,0 -0.833,0.09 -1.165,0.27 -0.331,0.18 -0.587,0.438 -0.767,0.774 -0.179,0.336 -0.269,0.736 -0.269,1.2 h -2.919 c 0,-0.952 0.215,-1.778 0.646,-2.479 0.431,-0.7 1.034,-1.243 1.811,-1.626 0.776,-0.384 1.671,-0.575 2.685,-0.575 1.041,0 1.948,0.184 2.72,0.554 0.776,0.364 1.38,0.871 1.811,1.52 0.431,0.648 0.646,1.392 0.646,2.23 0,0.549 -0.109,1.091 -0.327,1.626 -0.213,0.535 -0.594,1.129 -1.143,1.783 -0.549,0.648 -1.323,1.427 -2.323,2.336 l -2.123,2.081 v 0.1 h 6.108 V 399 Z"
       fill="#1a1a1a"
       id="path107"
       style="display:inline" />
    <path
       d="m 277.595,489 v -2.216 l 5.178,-4.794 c 0.44,-0.426 0.809,-0.81 1.108,-1.151 0.303,-0.34 0.532,-0.674 0.688,-1.001 0.157,-0.331 0.235,-0.689 0.235,-1.072 0,-0.427 -0.097,-0.793 -0.291,-1.101 -0.195,-0.313 -0.46,-0.552 -0.796,-0.718 -0.336,-0.17 -0.717,-0.255 -1.143,-0.255 -0.445,0 -0.834,0.09 -1.165,0.27 -0.332,0.18 -0.587,0.438 -0.767,0.774 -0.18,0.336 -0.27,0.736 -0.27,1.2 h -2.919 c 0,-0.952 0.215,-1.778 0.646,-2.479 0.431,-0.7 1.035,-1.243 1.811,-1.626 0.777,-0.384 1.672,-0.575 2.685,-0.575 1.042,0 1.948,0.184 2.72,0.554 0.777,0.364 1.38,0.871 1.811,1.52 0.431,0.648 0.647,1.392 0.647,2.23 0,0.549 -0.109,1.091 -0.327,1.626 -0.213,0.535 -0.594,1.129 -1.144,1.783 -0.549,0.648 -1.323,1.427 -2.322,2.336 l -2.124,2.081 v 0.1 h 6.108 V 489 Z m 18.926,-14.545 V 489 h -3.076 v -11.626 h -0.085 l -3.331,2.088 v -2.728 l 3.601,-2.279 z m 9.785,0 V 489 h -3.075 v -11.626 h -0.086 l -3.331,2.088 v -2.728 l 3.601,-2.279 z"
       fill="#1a1a1a"
       id="path108"
       style="display:inline" />
    <path
       d="m 491.042,194 v -2.216 l 5.178,-4.794 c 0.44,-0.426 0.809,-0.81 1.108,-1.151 0.303,-0.34 0.532,-0.674 0.689,-1.001 0.156,-0.331 0.234,-0.689 0.234,-1.072 0,-0.427 -0.097,-0.793 -0.291,-1.101 -0.194,-0.313 -0.459,-0.552 -0.796,-0.718 -0.336,-0.17 -0.717,-0.255 -1.143,-0.255 -0.445,0 -0.833,0.09 -1.165,0.27 -0.331,0.18 -0.587,0.438 -0.767,0.774 -0.18,0.336 -0.27,0.736 -0.27,1.2 H 490.9 c 0,-0.952 0.216,-1.778 0.647,-2.479 0.43,-0.7 1.034,-1.243 1.811,-1.626 0.776,-0.384 1.671,-0.575 2.684,-0.575 1.042,0 1.949,0.184 2.72,0.554 0.777,0.364 1.381,0.871 1.812,1.52 0.43,0.648 0.646,1.392 0.646,2.23 0,0.549 -0.109,1.091 -0.327,1.626 -0.213,0.535 -0.594,1.129 -1.143,1.783 -0.55,0.648 -1.324,1.427 -2.323,2.336 l -2.123,2.081 v 0.1 h 6.108 V 194 Z m 18.926,-14.545 V 194 h -3.075 v -11.626 h -0.085 l -3.331,2.088 v -2.728 l 3.6,-2.279 z m 8.77,14.744 c -1.004,0 -1.899,-0.185 -2.685,-0.554 -0.781,-0.369 -1.402,-0.878 -1.861,-1.527 -0.459,-0.649 -0.698,-1.392 -0.717,-2.23 h 2.983 c 0.033,0.563 0.27,1.02 0.71,1.371 0.44,0.35 0.964,0.525 1.57,0.525 0.483,0 0.909,-0.106 1.278,-0.32 0.374,-0.217 0.665,-0.518 0.874,-0.902 0.213,-0.388 0.319,-0.833 0.319,-1.335 0,-0.511 -0.109,-0.961 -0.327,-1.349 -0.213,-0.388 -0.509,-0.691 -0.887,-0.909 -0.379,-0.218 -0.812,-0.329 -1.3,-0.334 -0.426,0 -0.84,0.088 -1.243,0.263 -0.398,0.175 -0.708,0.414 -0.93,0.717 l -2.735,-0.49 0.689,-7.67 h 8.892 v 2.514 h -6.356 l -0.377,3.643 h 0.086 c 0.255,-0.36 0.641,-0.658 1.157,-0.895 0.516,-0.236 1.094,-0.355 1.733,-0.355 0.876,0 1.657,0.206 2.344,0.618 0.686,0.412 1.229,0.978 1.626,1.698 0.398,0.715 0.595,1.538 0.59,2.471 0.005,0.98 -0.223,1.851 -0.682,2.614 -0.455,0.757 -1.091,1.354 -1.911,1.79 -0.814,0.43 -1.761,0.646 -2.84,0.646 z"
       fill="#1a1a1a"
       id="path109"
       style="display:inline" />
    <path
       d="m 490.886,304 v -2.216 l 5.178,-4.794 c 0.44,-0.426 0.809,-0.81 1.108,-1.151 0.303,-0.34 0.532,-0.674 0.688,-1.001 0.157,-0.331 0.235,-0.689 0.235,-1.072 0,-0.427 -0.097,-0.793 -0.291,-1.101 -0.195,-0.313 -0.46,-0.552 -0.796,-0.718 -0.336,-0.17 -0.717,-0.255 -1.143,-0.255 -0.445,0 -0.834,0.09 -1.165,0.27 -0.332,0.18 -0.587,0.438 -0.767,0.774 -0.18,0.336 -0.27,0.736 -0.27,1.2 h -2.919 c 0,-0.952 0.215,-1.778 0.646,-2.479 0.431,-0.7 1.035,-1.243 1.811,-1.626 0.777,-0.384 1.672,-0.575 2.685,-0.575 1.042,0 1.948,0.184 2.72,0.554 0.777,0.364 1.38,0.871 1.811,1.52 0.431,0.648 0.647,1.392 0.647,2.23 0,0.549 -0.109,1.091 -0.327,1.626 -0.213,0.535 -0.594,1.129 -1.144,1.783 -0.549,0.648 -1.323,1.427 -2.322,2.336 l -2.124,2.081 v 0.1 h 6.108 V 304 Z m 18.926,-14.545 V 304 h -3.075 v -11.626 h -0.086 l -3.331,2.088 v -2.728 l 3.601,-2.279 z m 9.039,14.744 c -0.748,-0.005 -1.47,-0.13 -2.166,-0.377 -0.691,-0.246 -1.312,-0.646 -1.861,-1.2 -0.549,-0.554 -0.985,-1.288 -1.307,-2.202 -0.317,-0.913 -0.475,-2.036 -0.475,-3.366 0.004,-1.222 0.144,-2.313 0.419,-3.274 0.279,-0.966 0.677,-1.785 1.193,-2.458 0.521,-0.672 1.143,-1.183 1.868,-1.534 0.724,-0.355 1.536,-0.532 2.436,-0.532 0.97,0 1.827,0.189 2.571,0.568 0.743,0.374 1.34,0.883 1.79,1.527 0.454,0.644 0.729,1.366 0.823,2.166 h -3.032 c -0.119,-0.507 -0.367,-0.904 -0.746,-1.193 -0.379,-0.289 -0.848,-0.433 -1.406,-0.433 -0.947,0 -1.667,0.412 -2.159,1.235 -0.488,0.824 -0.737,1.944 -0.746,3.36 h 0.099 c 0.218,-0.431 0.512,-0.798 0.881,-1.101 0.374,-0.308 0.798,-0.542 1.271,-0.703 0.479,-0.166 0.983,-0.249 1.513,-0.249 0.862,0 1.629,0.204 2.301,0.611 0.673,0.402 1.203,0.956 1.591,1.662 0.388,0.705 0.583,1.513 0.583,2.422 0,0.985 -0.23,1.861 -0.689,2.628 -0.455,0.767 -1.092,1.368 -1.911,1.804 -0.814,0.431 -1.761,0.644 -2.841,0.639 z m -0.014,-2.415 c 0.473,0 0.897,-0.114 1.271,-0.341 0.374,-0.227 0.668,-0.535 0.881,-0.923 0.213,-0.388 0.32,-0.824 0.32,-1.307 0,-0.483 -0.107,-0.916 -0.32,-1.3 -0.208,-0.383 -0.497,-0.689 -0.866,-0.916 -0.37,-0.227 -0.791,-0.341 -1.265,-0.341 -0.355,0 -0.684,0.067 -0.987,0.199 -0.298,0.133 -0.561,0.317 -0.788,0.554 -0.223,0.237 -0.398,0.511 -0.526,0.824 -0.128,0.308 -0.192,0.637 -0.192,0.987 0,0.469 0.107,0.897 0.32,1.286 0.218,0.388 0.511,0.698 0.881,0.93 0.374,0.232 0.798,0.348 1.271,0.348 z"
       fill="#1a1a1a"
       id="path110"
       style="display:inline" />
    <path
       d="m 491.54,399 v -2.216 l 5.178,-4.794 c 0.44,-0.426 0.81,-0.81 1.108,-1.151 0.303,-0.34 0.532,-0.674 0.689,-1.001 0.156,-0.331 0.234,-0.689 0.234,-1.072 0,-0.427 -0.097,-0.793 -0.291,-1.101 -0.194,-0.313 -0.459,-0.552 -0.796,-0.718 -0.336,-0.17 -0.717,-0.255 -1.143,-0.255 -0.445,0 -0.833,0.09 -1.165,0.27 -0.331,0.18 -0.587,0.438 -0.767,0.774 -0.18,0.336 -0.27,0.736 -0.27,1.2 h -2.919 c 0,-0.952 0.216,-1.778 0.647,-2.479 0.43,-0.7 1.034,-1.243 1.811,-1.626 0.776,-0.384 1.671,-0.575 2.684,-0.575 1.042,0 1.949,0.184 2.72,0.554 0.777,0.364 1.381,0.871 1.812,1.52 0.43,0.648 0.646,1.392 0.646,2.23 0,0.549 -0.109,1.091 -0.327,1.626 -0.213,0.535 -0.594,1.129 -1.143,1.783 -0.55,0.648 -1.324,1.427 -2.323,2.336 l -2.123,2.081 v 0.1 h 6.108 V 399 Z m 18.926,-14.545 V 399 h -3.075 v -11.626 h -0.085 l -3.331,2.088 v -2.728 l 3.6,-2.279 z m 4.032,14.545 6.03,-11.932 v -0.099 h -7.024 v -2.514 h 10.206 v 2.549 L 517.673,399 Z"
       fill="#1a1a1a"
       id="path111"
       style="display:inline" />
    <path
       d="m 490.876,489 v -2.216 l 5.178,-4.794 c 0.44,-0.426 0.809,-0.81 1.108,-1.151 0.303,-0.34 0.532,-0.674 0.689,-1.001 0.156,-0.331 0.234,-0.689 0.234,-1.072 0,-0.427 -0.097,-0.793 -0.291,-1.101 -0.194,-0.313 -0.459,-0.552 -0.796,-0.718 -0.336,-0.17 -0.717,-0.255 -1.143,-0.255 -0.445,0 -0.833,0.09 -1.165,0.27 -0.331,0.18 -0.587,0.438 -0.767,0.774 -0.18,0.336 -0.27,0.736 -0.27,1.2 h -2.919 c 0,-0.952 0.216,-1.778 0.647,-2.479 0.43,-0.7 1.034,-1.243 1.811,-1.626 0.776,-0.384 1.671,-0.575 2.684,-0.575 1.042,0 1.949,0.184 2.72,0.554 0.777,0.364 1.381,0.871 1.811,1.52 0.431,0.648 0.647,1.392 0.647,2.23 0,0.549 -0.109,1.091 -0.327,1.626 -0.213,0.535 -0.594,1.129 -1.143,1.783 -0.55,0.648 -1.324,1.427 -2.323,2.336 l -2.123,2.081 v 0.1 h 6.108 V 489 Z m 18.926,-14.545 V 489 h -3.075 v -11.626 h -0.085 l -3.331,2.088 v -2.728 l 3.6,-2.279 z m 8.883,14.744 c -1.094,0 -2.067,-0.178 -2.919,-0.533 -0.847,-0.36 -1.513,-0.85 -1.996,-1.47 -0.483,-0.62 -0.724,-1.323 -0.724,-2.109 0,-0.606 0.137,-1.163 0.412,-1.669 0.279,-0.512 0.658,-0.936 1.136,-1.272 0.479,-0.341 1.014,-0.558 1.605,-0.653 v -0.1 c -0.776,-0.156 -1.406,-0.532 -1.889,-1.129 -0.483,-0.601 -0.724,-1.3 -0.724,-2.095 0,-0.753 0.22,-1.423 0.66,-2.01 0.441,-0.592 1.044,-1.056 1.811,-1.392 0.772,-0.341 1.648,-0.511 2.628,-0.511 0.98,0 1.854,0.17 2.621,0.511 0.772,0.341 1.378,0.807 1.818,1.399 0.44,0.587 0.663,1.255 0.668,2.003 -0.005,0.8 -0.251,1.499 -0.739,2.095 -0.488,0.597 -1.113,0.973 -1.875,1.129 v 0.1 c 0.582,0.095 1.11,0.312 1.584,0.653 0.478,0.336 0.857,0.76 1.136,1.272 0.284,0.506 0.429,1.063 0.433,1.669 -0.004,0.786 -0.248,1.489 -0.731,2.109 -0.483,0.62 -1.151,1.11 -2.003,1.47 -0.847,0.355 -1.818,0.533 -2.912,0.533 z m 0,-2.259 c 0.488,0 0.914,-0.087 1.279,-0.262 0.364,-0.18 0.648,-0.427 0.852,-0.739 0.208,-0.317 0.312,-0.682 0.312,-1.094 0,-0.421 -0.106,-0.793 -0.319,-1.115 -0.213,-0.327 -0.502,-0.582 -0.867,-0.767 -0.364,-0.189 -0.783,-0.284 -1.257,-0.284 -0.469,0 -0.888,0.095 -1.257,0.284 -0.369,0.185 -0.66,0.44 -0.873,0.767 -0.209,0.322 -0.313,0.694 -0.313,1.115 0,0.412 0.102,0.777 0.305,1.094 0.204,0.312 0.49,0.559 0.86,0.739 0.369,0.175 0.795,0.262 1.278,0.262 z m 0,-6.498 c 0.407,0 0.77,-0.083 1.087,-0.249 0.317,-0.166 0.566,-0.395 0.746,-0.689 0.18,-0.293 0.269,-0.632 0.269,-1.015 0,-0.379 -0.089,-0.711 -0.269,-0.995 -0.18,-0.289 -0.427,-0.513 -0.739,-0.674 -0.313,-0.166 -0.677,-0.249 -1.094,-0.249 -0.412,0 -0.776,0.083 -1.094,0.249 -0.317,0.161 -0.565,0.385 -0.745,0.674 -0.175,0.284 -0.263,0.616 -0.263,0.995 0,0.383 0.09,0.722 0.27,1.015 0.18,0.294 0.428,0.523 0.746,0.689 0.317,0.166 0.679,0.249 1.086,0.249 z"
       fill="#1a1a1a"
       id="path112"
       style="display:inline" />
    <path
       d="m 121.394,674 v -2.216 l 5.177,-4.794 c 0.441,-0.426 0.81,-0.81 1.108,-1.151 0.303,-0.34 0.533,-0.674 0.689,-1.001 0.157,-0.331 0.235,-0.689 0.235,-1.072 0,-0.427 -0.097,-0.793 -0.292,-1.101 -0.194,-0.313 -0.459,-0.552 -0.795,-0.718 -0.336,-0.17 -0.717,-0.255 -1.143,-0.255 -0.446,0 -0.834,0.09 -1.165,0.27 -0.332,0.18 -0.587,0.438 -0.767,0.774 -0.18,0.336 -0.27,0.736 -0.27,1.2 h -2.919 c 0,-0.952 0.215,-1.778 0.646,-2.479 0.431,-0.7 1.035,-1.243 1.811,-1.626 0.777,-0.384 1.672,-0.575 2.685,-0.575 1.041,0 1.948,0.184 2.72,0.554 0.777,0.364 1.38,0.871 1.811,1.52 0.431,0.648 0.646,1.392 0.646,2.23 0,0.549 -0.109,1.091 -0.326,1.626 -0.213,0.535 -0.595,1.129 -1.144,1.783 -0.549,0.648 -1.323,1.427 -2.322,2.336 l -2.124,2.081 v 0.1 h 6.108 V 674 Z m 18.301,0.32 c -1.222,-0.005 -2.273,-0.306 -3.154,-0.902 -0.876,-0.597 -1.55,-1.461 -2.024,-2.593 -0.469,-1.131 -0.701,-2.493 -0.696,-4.084 0,-1.586 0.234,-2.937 0.703,-4.055 0.474,-1.117 1.148,-1.967 2.024,-2.55 0.881,-0.587 1.93,-0.88 3.147,-0.88 1.216,0 2.263,0.293 3.139,0.88 0.88,0.587 1.558,1.44 2.031,2.557 0.474,1.113 0.708,2.462 0.703,4.048 0,1.596 -0.237,2.96 -0.71,4.091 -0.469,1.132 -1.141,1.996 -2.017,2.593 -0.876,0.596 -1.925,0.895 -3.146,0.895 z m 0,-2.55 c 0.833,0 1.498,-0.419 1.995,-1.257 0.498,-0.838 0.744,-2.095 0.739,-3.772 0,-1.103 -0.114,-2.021 -0.341,-2.755 -0.222,-0.734 -0.54,-1.286 -0.952,-1.655 -0.407,-0.369 -0.887,-0.554 -1.441,-0.554 -0.829,0 -1.492,0.414 -1.989,1.243 -0.497,0.828 -0.748,2.069 -0.753,3.721 0,1.118 0.111,2.051 0.334,2.799 0.227,0.743 0.547,1.302 0.959,1.676 0.412,0.369 0.895,0.554 1.449,0.554 z m 13.329,-12.514 c 0.748,0 1.468,0.125 2.159,0.376 0.696,0.251 1.316,0.651 1.861,1.2 0.549,0.55 0.982,1.279 1.299,2.188 0.322,0.904 0.486,2.015 0.49,3.331 0,1.236 -0.139,2.339 -0.419,3.31 -0.274,0.965 -0.67,1.787 -1.186,2.464 -0.516,0.677 -1.138,1.193 -1.868,1.548 -0.729,0.351 -1.543,0.526 -2.443,0.526 -0.97,0 -1.827,-0.187 -2.571,-0.561 -0.743,-0.379 -1.342,-0.893 -1.797,-1.541 -0.449,-0.654 -0.722,-1.388 -0.816,-2.202 h 3.032 c 0.119,0.53 0.367,0.942 0.746,1.236 0.379,0.289 0.848,0.433 1.406,0.433 0.947,0 1.667,-0.412 2.159,-1.236 0.493,-0.828 0.741,-1.962 0.746,-3.402 h -0.099 c -0.218,0.426 -0.512,0.793 -0.881,1.101 -0.369,0.303 -0.793,0.537 -1.271,0.703 -0.474,0.166 -0.978,0.249 -1.513,0.249 -0.857,0 -1.622,-0.202 -2.294,-0.604 -0.672,-0.402 -1.203,-0.956 -1.591,-1.662 -0.388,-0.705 -0.582,-1.51 -0.582,-2.415 -0.005,-0.975 0.22,-1.844 0.674,-2.606 0.455,-0.763 1.089,-1.359 1.904,-1.79 0.819,-0.436 1.771,-0.651 2.855,-0.646 z m 0.021,2.414 c -0.478,0 -0.904,0.114 -1.278,0.341 -0.37,0.228 -0.663,0.533 -0.881,0.917 -0.213,0.383 -0.317,0.812 -0.312,1.285 0,0.478 0.104,0.909 0.312,1.293 0.213,0.378 0.502,0.681 0.866,0.909 0.37,0.222 0.791,0.334 1.265,0.334 0.355,0 0.684,-0.067 0.987,-0.199 0.303,-0.133 0.566,-0.315 0.788,-0.547 0.228,-0.237 0.405,-0.509 0.533,-0.817 0.128,-0.308 0.192,-0.634 0.192,-0.98 -0.005,-0.459 -0.114,-0.881 -0.327,-1.264 -0.213,-0.384 -0.507,-0.692 -0.881,-0.924 -0.374,-0.232 -0.795,-0.348 -1.264,-0.348 z"
       fill="#1a1a1a"
       id="path113"
       style="display:inline" />
    <path
       d="M 333.994,659.455 V 674 h -2.983 V 659.455 Z M 322.226,674 l 4.559,-7.67 -4.368,-6.875 h 3.786 l 3.267,5.987 h 6.143 l 3.182,-5.987 h 3.772 l -4.262,6.853 4.475,7.692 h -3.672 l -3.076,-5.717 h -7.009 L 325.869,674 Z"
       fill="#1a1a1a"
       id="path114"
       style="display:inline" />
    <path
       d="m 450.886,674 v -2.216 l 5.178,-4.794 c 0.44,-0.426 0.809,-0.81 1.108,-1.151 0.303,-0.34 0.532,-0.674 0.688,-1.001 0.157,-0.331 0.235,-0.689 0.235,-1.072 0,-0.427 -0.097,-0.793 -0.291,-1.101 -0.195,-0.313 -0.46,-0.552 -0.796,-0.718 -0.336,-0.17 -0.717,-0.255 -1.143,-0.255 -0.445,0 -0.834,0.09 -1.165,0.27 -0.332,0.18 -0.587,0.438 -0.767,0.774 -0.18,0.336 -0.27,0.736 -0.27,1.2 h -2.919 c 0,-0.952 0.215,-1.778 0.646,-2.479 0.431,-0.7 1.035,-1.243 1.811,-1.626 0.777,-0.384 1.672,-0.575 2.685,-0.575 1.042,0 1.948,0.184 2.72,0.554 0.777,0.364 1.38,0.871 1.811,1.52 0.431,0.648 0.647,1.392 0.647,2.23 0,0.549 -0.109,1.091 -0.327,1.626 -0.213,0.535 -0.594,1.129 -1.144,1.783 -0.549,0.648 -1.323,1.427 -2.322,2.336 l -2.124,2.081 v 0.1 h 6.108 V 674 Z m 18.926,-14.545 V 674 h -3.075 v -11.626 h -0.086 l -3.331,2.088 v -2.728 l 3.601,-2.279 z m 8.72,-0.199 c 0.748,0 1.467,0.125 2.159,0.376 0.696,0.251 1.316,0.651 1.86,1.2 0.55,0.55 0.983,1.279 1.3,2.188 0.322,0.904 0.486,2.015 0.49,3.331 0,1.236 -0.139,2.339 -0.419,3.31 -0.274,0.965 -0.67,1.787 -1.186,2.464 -0.516,0.677 -1.139,1.193 -1.868,1.548 -0.729,0.351 -1.543,0.526 -2.443,0.526 -0.971,0 -1.828,-0.187 -2.571,-0.561 -0.743,-0.379 -1.342,-0.893 -1.797,-1.541 -0.45,-0.654 -0.722,-1.388 -0.817,-2.202 h 3.033 c 0.118,0.53 0.367,0.942 0.746,1.236 0.379,0.289 0.847,0.433 1.406,0.433 0.947,0 1.667,-0.412 2.159,-1.236 0.493,-0.828 0.741,-1.962 0.746,-3.402 h -0.1 c -0.217,0.426 -0.511,0.793 -0.88,1.101 -0.37,0.303 -0.793,0.537 -1.272,0.703 -0.473,0.166 -0.977,0.249 -1.512,0.249 -0.857,0 -1.622,-0.202 -2.294,-0.604 -0.673,-0.402 -1.203,-0.956 -1.591,-1.662 -0.389,-0.705 -0.583,-1.51 -0.583,-2.415 -0.004,-0.975 0.221,-1.844 0.675,-2.606 0.455,-0.763 1.089,-1.359 1.903,-1.79 0.82,-0.436 1.771,-0.651 2.856,-0.646 z m 0.021,2.414 c -0.478,0 -0.904,0.114 -1.278,0.341 -0.37,0.228 -0.663,0.533 -0.881,0.917 -0.213,0.383 -0.317,0.812 -0.313,1.285 0,0.478 0.104,0.909 0.313,1.293 0.213,0.378 0.502,0.681 0.866,0.909 0.37,0.222 0.791,0.334 1.265,0.334 0.355,0 0.684,-0.067 0.987,-0.199 0.303,-0.133 0.566,-0.315 0.788,-0.547 0.227,-0.237 0.405,-0.509 0.533,-0.817 0.128,-0.308 0.192,-0.634 0.192,-0.98 -0.005,-0.459 -0.114,-0.881 -0.327,-1.264 -0.213,-0.384 -0.507,-0.692 -0.881,-0.924 -0.374,-0.232 -0.795,-0.348 -1.264,-0.348 z"
       fill="#1a1a1a"
       id="path115"
       style="display:inline" />
    <path
       d="m 673.103,674 v -2.216 l 5.177,-4.794 c 0.441,-0.426 0.81,-0.81 1.108,-1.151 0.303,-0.34 0.533,-0.674 0.689,-1.001 0.156,-0.331 0.235,-0.689 0.235,-1.072 0,-0.427 -0.097,-0.793 -0.292,-1.101 -0.194,-0.313 -0.459,-0.552 -0.795,-0.718 -0.336,-0.17 -0.717,-0.255 -1.144,-0.255 -0.445,0 -0.833,0.09 -1.164,0.27 -0.332,0.18 -0.587,0.438 -0.767,0.774 -0.18,0.336 -0.27,0.736 -0.27,1.2 h -2.919 c 0,-0.952 0.215,-1.778 0.646,-2.479 0.431,-0.7 1.035,-1.243 1.811,-1.626 0.777,-0.384 1.672,-0.575 2.685,-0.575 1.041,0 1.948,0.184 2.72,0.554 0.776,0.364 1.38,0.871 1.811,1.52 0.431,0.648 0.646,1.392 0.646,2.23 0,0.549 -0.109,1.091 -0.326,1.626 -0.213,0.535 -0.595,1.129 -1.144,1.783 -0.549,0.648 -1.323,1.427 -2.322,2.336 l -2.124,2.081 v 0.1 h 6.108 V 674 Z m 18.301,0.32 c -1.222,-0.005 -2.273,-0.306 -3.154,-0.902 -0.876,-0.597 -1.55,-1.461 -2.024,-2.593 -0.469,-1.131 -0.701,-2.493 -0.696,-4.084 0,-1.586 0.234,-2.937 0.703,-4.055 0.474,-1.117 1.148,-1.967 2.024,-2.55 0.881,-0.587 1.93,-0.88 3.147,-0.88 1.216,0 2.263,0.293 3.139,0.88 0.88,0.587 1.558,1.44 2.031,2.557 0.474,1.113 0.708,2.462 0.703,4.048 0,1.596 -0.237,2.96 -0.71,4.091 -0.469,1.132 -1.141,1.996 -2.017,2.593 -0.876,0.596 -1.925,0.895 -3.146,0.895 z m 0,-2.55 c 0.833,0 1.498,-0.419 1.995,-1.257 0.497,-0.838 0.744,-2.095 0.739,-3.772 0,-1.103 -0.114,-2.021 -0.341,-2.755 -0.222,-0.734 -0.54,-1.286 -0.952,-1.655 -0.407,-0.369 -0.887,-0.554 -1.441,-0.554 -0.829,0 -1.492,0.414 -1.989,1.243 -0.497,0.828 -0.748,2.069 -0.753,3.721 0,1.118 0.111,2.051 0.334,2.799 0.227,0.743 0.547,1.302 0.959,1.676 0.412,0.369 0.895,0.554 1.449,0.554 z m 14.394,-12.315 V 674 h -3.075 v -11.626 h -0.085 l -3.331,2.088 v -2.728 l 3.6,-2.279 z"
       fill="#1a1a1a"
       id="path116"
       style="display:inline" />
    <path
       d="m 102.732,725.438 h -2.489 c -0.046,-0.322 -0.138,-0.608 -0.2785,-0.858 -0.1402,-0.254 -0.3201,-0.47 -0.5398,-0.648 -0.2197,-0.178 -0.4735,-0.315 -0.7613,-0.409 -0.2841,-0.095 -0.5929,-0.142 -0.9262,-0.142 -0.6023,0 -1.1269,0.149 -1.5738,0.449 -0.447,0.295 -0.7936,0.727 -1.0398,1.295 -0.2462,0.564 -0.3693,1.25 -0.3693,2.057 0,0.829 0.1231,1.526 0.3693,2.091 0.25,0.564 0.5985,0.99 1.0454,1.278 0.447,0.288 0.964,0.432 1.5512,0.432 0.3295,0 0.6344,-0.044 0.9147,-0.131 0.2841,-0.087 0.536,-0.214 0.7557,-0.38 0.2197,-0.171 0.4015,-0.377 0.5455,-0.62 0.1479,-0.242 0.2499,-0.519 0.3069,-0.829 l 2.489,0.011 c -0.065,0.534 -0.226,1.049 -0.483,1.546 -0.254,0.492 -0.597,0.933 -1.029,1.323 -0.428,0.387 -0.939,0.694 -1.5339,0.921 -0.5909,0.223 -1.2595,0.335 -2.0057,0.335 -1.0379,0 -1.9659,-0.235 -2.7841,-0.704 -0.8144,-0.47 -1.4583,-1.15 -1.9318,-2.04 -0.4697,-0.89 -0.7046,-1.968 -0.7046,-3.233 0,-1.269 0.2387,-2.349 0.716,-3.239 0.4772,-0.89 1.125,-1.568 1.9431,-2.034 0.8182,-0.47 1.7387,-0.704 2.7614,-0.704 0.6742,0 1.2992,0.094 1.875,0.284 0.5796,0.189 1.0926,0.466 1.5396,0.829 0.447,0.36 0.811,0.801 1.091,1.324 0.284,0.523 0.466,1.121 0.546,1.796 z M 104.45,733 v -8.727 h 2.421 v 3.386 h 0.682 l 2.375,-3.386 h 2.84 l -3.085,4.329 3.12,4.398 h -2.875 l -2.154,-3.097 h -0.903 V 733 Z m 8.864,0 -0.011,-1.92 h 0.289 c 0.205,0 0.381,-0.05 0.529,-0.148 0.151,-0.102 0.276,-0.267 0.375,-0.494 0.098,-0.228 0.176,-0.529 0.233,-0.904 0.057,-0.379 0.094,-0.845 0.113,-1.398 l 0.142,-3.863 h 6.637 V 733 h -2.307 v -6.824 h -2.153 l -0.137,2.665 c -0.034,0.731 -0.123,1.36 -0.267,1.886 -0.14,0.527 -0.335,0.959 -0.585,1.296 -0.25,0.333 -0.551,0.579 -0.904,0.738 -0.352,0.159 -0.761,0.239 -1.227,0.239 z m 12.672,0.165 c -0.557,0 -1.053,-0.097 -1.489,-0.29 -0.435,-0.197 -0.78,-0.487 -1.034,-0.869 -0.25,-0.387 -0.375,-0.868 -0.375,-1.444 0,-0.484 0.089,-0.892 0.267,-1.221 0.178,-0.33 0.421,-0.595 0.727,-0.796 0.307,-0.2 0.656,-0.352 1.046,-0.454 0.394,-0.102 0.807,-0.174 1.238,-0.216 0.508,-0.053 0.917,-0.102 1.228,-0.148 0.31,-0.049 0.536,-0.121 0.676,-0.216 0.14,-0.094 0.21,-0.234 0.21,-0.42 v -0.034 c 0,-0.36 -0.114,-0.638 -0.341,-0.835 -0.223,-0.197 -0.541,-0.296 -0.954,-0.296 -0.436,0 -0.783,0.097 -1.04,0.29 -0.258,0.189 -0.428,0.428 -0.511,0.716 l -2.239,-0.182 c 0.114,-0.53 0.337,-0.989 0.67,-1.375 0.334,-0.39 0.764,-0.689 1.29,-0.898 0.53,-0.212 1.144,-0.318 1.841,-0.318 0.485,0 0.949,0.057 1.392,0.171 0.447,0.113 0.843,0.289 1.188,0.528 0.348,0.239 0.623,0.545 0.823,0.92 0.201,0.372 0.302,0.817 0.302,1.336 V 733 h -2.296 v -1.21 h -0.068 c -0.14,0.272 -0.328,0.513 -0.563,0.721 -0.234,0.205 -0.517,0.366 -0.846,0.483 -0.33,0.114 -0.71,0.171 -1.142,0.171 z m 0.693,-1.671 c 0.356,0 0.67,-0.07 0.943,-0.21 0.273,-0.144 0.487,-0.337 0.642,-0.579 0.156,-0.243 0.233,-0.518 0.233,-0.824 v -0.926 c -0.076,0.049 -0.18,0.094 -0.312,0.136 -0.129,0.038 -0.275,0.074 -0.438,0.108 -0.163,0.03 -0.326,0.059 -0.488,0.085 -0.163,0.023 -0.311,0.044 -0.444,0.063 -0.284,0.041 -0.532,0.108 -0.744,0.198 -0.212,0.091 -0.377,0.214 -0.494,0.37 -0.118,0.151 -0.176,0.341 -0.176,0.568 0,0.329 0.119,0.581 0.358,0.756 0.242,0.17 0.549,0.255 0.92,0.255 z m 5.418,4.063 v -4.477 h 0.67 c 0.193,-0.122 0.349,-0.315 0.466,-0.58 0.121,-0.265 0.22,-0.578 0.295,-0.938 0.08,-0.359 0.141,-0.748 0.182,-1.164 0.046,-0.421 0.085,-0.845 0.12,-1.273 l 0.227,-2.852 h 6.693 v 6.807 h 1.352 v 4.477 h -2.307 V 733 h -5.335 v 2.557 z m 3.079,-4.477 h 3.29 v -4.944 h -2.352 l -0.091,0.989 c -0.065,0.932 -0.157,1.723 -0.279,2.375 -0.121,0.648 -0.31,1.174 -0.568,1.58 z"
       fill="#1a1a1a"
       id="path117"
       style="display:inline" />
    <path
       d="m 688.197,736 v -2.216 l 5.177,-4.794 c 0.44,-0.426 0.81,-0.81 1.108,-1.151 0.303,-0.34 0.533,-0.674 0.689,-1.001 0.156,-0.331 0.234,-0.689 0.234,-1.072 0,-0.427 -0.097,-0.793 -0.291,-1.101 -0.194,-0.313 -0.459,-0.552 -0.795,-0.718 -0.336,-0.17 -0.718,-0.255 -1.144,-0.255 -0.445,0 -0.833,0.09 -1.165,0.27 -0.331,0.18 -0.587,0.438 -0.767,0.774 -0.179,0.336 -0.269,0.736 -0.269,1.2 h -2.919 c 0,-0.952 0.215,-1.778 0.646,-2.479 0.431,-0.7 1.034,-1.243 1.811,-1.626 0.776,-0.384 1.671,-0.575 2.685,-0.575 1.041,0 1.948,0.184 2.72,0.554 0.776,0.364 1.38,0.871 1.811,1.52 0.431,0.648 0.646,1.392 0.646,2.23 0,0.549 -0.109,1.091 -0.327,1.626 -0.213,0.535 -0.594,1.129 -1.143,1.783 -0.549,0.648 -1.323,1.427 -2.323,2.336 l -2.123,2.081 v 0.1 h 6.108 V 736 Z m 18.3,0.32 c -1.221,-0.005 -2.272,-0.306 -3.153,-0.902 -0.876,-0.597 -1.551,-1.461 -2.024,-2.593 -0.469,-1.131 -0.701,-2.493 -0.696,-4.084 0,-1.586 0.234,-2.937 0.703,-4.055 0.473,-1.117 1.148,-1.967 2.024,-2.55 0.881,-0.587 1.929,-0.88 3.146,-0.88 1.217,0 2.264,0.293 3.14,0.88 0.88,0.587 1.557,1.44 2.031,2.557 0.473,1.113 0.708,2.462 0.703,4.048 0,1.596 -0.237,2.96 -0.71,4.091 -0.469,1.132 -1.141,1.996 -2.017,2.593 -0.876,0.596 -1.925,0.895 -3.147,0.895 z m 0,-2.55 c 0.834,0 1.499,-0.419 1.996,-1.257 0.497,-0.838 0.743,-2.095 0.739,-3.772 0,-1.103 -0.114,-2.021 -0.341,-2.755 -0.223,-0.734 -0.54,-1.286 -0.952,-1.655 -0.407,-0.369 -0.888,-0.554 -1.442,-0.554 -0.828,0 -1.491,0.414 -1.988,1.243 -0.497,0.828 -0.748,2.069 -0.753,3.721 0,1.118 0.111,2.051 0.334,2.799 0.227,0.743 0.547,1.302 0.958,1.676 0.412,0.369 0.895,0.554 1.449,0.554 z m 8.067,2.23 v -2.216 l 5.177,-4.794 c 0.441,-0.426 0.81,-0.81 1.108,-1.151 0.303,-0.34 0.533,-0.674 0.689,-1.001 0.156,-0.331 0.235,-0.689 0.235,-1.072 0,-0.427 -0.098,-0.793 -0.292,-1.101 -0.194,-0.313 -0.459,-0.552 -0.795,-0.718 -0.336,-0.17 -0.717,-0.255 -1.144,-0.255 -0.445,0 -0.833,0.09 -1.164,0.27 -0.332,0.18 -0.587,0.438 -0.767,0.774 -0.18,0.336 -0.27,0.736 -0.27,1.2 h -2.919 c 0,-0.952 0.215,-1.778 0.646,-2.479 0.431,-0.7 1.035,-1.243 1.811,-1.626 0.777,-0.384 1.671,-0.575 2.685,-0.575 1.041,0 1.948,0.184 2.72,0.554 0.776,0.364 1.38,0.871 1.811,1.52 0.431,0.648 0.646,1.392 0.646,2.23 0,0.549 -0.109,1.091 -0.326,1.626 -0.213,0.535 -0.595,1.129 -1.144,1.783 -0.549,0.648 -1.323,1.427 -2.322,2.336 l -2.124,2.081 v 0.1 h 6.108 V 736 Z"
       fill="#1a1a1a"
       id="path118"
       style="display:inline" />
    <path
       d="m 115.603,789 v -2.216 l 5.177,-4.794 c 0.441,-0.426 0.81,-0.81 1.108,-1.151 0.303,-0.34 0.533,-0.674 0.689,-1.001 0.156,-0.331 0.235,-0.689 0.235,-1.072 0,-0.427 -0.097,-0.793 -0.292,-1.101 -0.194,-0.313 -0.459,-0.552 -0.795,-0.718 -0.336,-0.17 -0.717,-0.255 -1.144,-0.255 -0.445,0 -0.833,0.09 -1.164,0.27 -0.332,0.18 -0.587,0.438 -0.767,0.774 -0.18,0.336 -0.27,0.736 -0.27,1.2 h -2.919 c 0,-0.952 0.215,-1.778 0.646,-2.479 0.431,-0.7 1.035,-1.243 1.811,-1.626 0.777,-0.384 1.672,-0.575 2.685,-0.575 1.041,0 1.948,0.184 2.72,0.554 0.776,0.364 1.38,0.871 1.811,1.52 0.431,0.648 0.646,1.392 0.646,2.23 0,0.549 -0.109,1.091 -0.326,1.626 -0.213,0.535 -0.595,1.129 -1.144,1.783 -0.549,0.648 -1.323,1.427 -2.322,2.336 l -2.124,2.081 v 0.1 h 6.108 V 789 Z m 18.926,-14.545 V 789 h -3.076 v -11.626 h -0.085 l -3.331,2.088 v -2.728 l 3.601,-2.279 z m 9.16,14.865 c -1.222,-0.005 -2.273,-0.306 -3.154,-0.902 -0.876,-0.597 -1.55,-1.461 -2.024,-2.593 -0.469,-1.131 -0.701,-2.493 -0.696,-4.084 0,-1.586 0.235,-2.937 0.703,-4.055 0.474,-1.117 1.148,-1.967 2.024,-2.55 0.881,-0.587 1.93,-0.88 3.147,-0.88 1.217,0 2.263,0.293 3.139,0.88 0.881,0.587 1.558,1.44 2.031,2.557 0.474,1.113 0.708,2.462 0.703,4.048 0,1.596 -0.236,2.96 -0.71,4.091 -0.469,1.132 -1.141,1.996 -2.017,2.593 -0.876,0.596 -1.925,0.895 -3.146,0.895 z m 0,-2.55 c 0.833,0 1.498,-0.419 1.995,-1.257 0.498,-0.838 0.744,-2.095 0.739,-3.772 0,-1.103 -0.114,-2.021 -0.341,-2.755 -0.222,-0.734 -0.54,-1.286 -0.951,-1.655 -0.408,-0.369 -0.888,-0.554 -1.442,-0.554 -0.829,0 -1.492,0.414 -1.989,1.243 -0.497,0.828 -0.748,2.069 -0.753,3.721 0,1.118 0.112,2.051 0.334,2.799 0.227,0.743 0.547,1.302 0.959,1.676 0.412,0.369 0.895,0.554 1.449,0.554 z"
       fill="#1a1a1a"
       id="path119"
       style="display:inline" />
    <path
       d="m 226.384,789 v -2.216 l 5.178,-4.794 c 0.44,-0.426 0.809,-0.81 1.108,-1.151 0.303,-0.34 0.532,-0.674 0.688,-1.001 0.157,-0.331 0.235,-0.689 0.235,-1.072 0,-0.427 -0.097,-0.793 -0.291,-1.101 -0.194,-0.313 -0.46,-0.552 -0.796,-0.718 -0.336,-0.17 -0.717,-0.255 -1.143,-0.255 -0.445,0 -0.834,0.09 -1.165,0.27 -0.331,0.18 -0.587,0.438 -0.767,0.774 -0.18,0.336 -0.27,0.736 -0.27,1.2 h -2.919 c 0,-0.952 0.215,-1.778 0.646,-2.479 0.431,-0.7 1.035,-1.243 1.811,-1.626 0.777,-0.384 1.672,-0.575 2.685,-0.575 1.042,0 1.948,0.184 2.72,0.554 0.777,0.364 1.38,0.871 1.811,1.52 0.431,0.648 0.647,1.392 0.647,2.23 0,0.549 -0.109,1.091 -0.327,1.626 -0.213,0.535 -0.594,1.129 -1.144,1.783 -0.549,0.648 -1.323,1.427 -2.322,2.336 l -2.124,2.081 v 0.1 h 6.108 V 789 Z m 18.301,0.32 c -1.222,-0.005 -2.273,-0.306 -3.154,-0.902 -0.876,-0.597 -1.55,-1.461 -2.024,-2.593 -0.468,-1.131 -0.7,-2.493 -0.696,-4.084 0,-1.586 0.235,-2.937 0.703,-4.055 0.474,-1.117 1.149,-1.967 2.025,-2.55 0.88,-0.587 1.929,-0.88 3.146,-0.88 1.217,0 2.263,0.293 3.139,0.88 0.881,0.587 1.558,1.44 2.031,2.557 0.474,1.113 0.708,2.462 0.703,4.048 0,1.596 -0.236,2.96 -0.71,4.091 -0.469,1.132 -1.141,1.996 -2.017,2.593 -0.876,0.596 -1.925,0.895 -3.146,0.895 z m 0,-2.55 c 0.833,0 1.498,-0.419 1.996,-1.257 0.497,-0.838 0.743,-2.095 0.738,-3.772 0,-1.103 -0.113,-2.021 -0.341,-2.755 -0.222,-0.734 -0.539,-1.286 -0.951,-1.655 -0.408,-0.369 -0.888,-0.554 -1.442,-0.554 -0.829,0 -1.492,0.414 -1.989,1.243 -0.497,0.828 -0.748,2.069 -0.753,3.721 0,1.118 0.112,2.051 0.334,2.799 0.227,0.743 0.547,1.302 0.959,1.676 0.412,0.369 0.895,0.554 1.449,0.554 z m 13.492,2.429 c -1.093,0 -2.066,-0.178 -2.919,-0.533 -0.847,-0.36 -1.512,-0.85 -1.995,-1.47 -0.483,-0.62 -0.725,-1.323 -0.725,-2.109 0,-0.606 0.137,-1.163 0.412,-1.669 0.279,-0.512 0.658,-0.936 1.136,-1.272 0.479,-0.341 1.014,-0.558 1.606,-0.653 v -0.1 c -0.777,-0.156 -1.407,-0.532 -1.89,-1.129 -0.483,-0.601 -0.724,-1.3 -0.724,-2.095 0,-0.753 0.22,-1.423 0.66,-2.01 0.441,-0.592 1.044,-1.056 1.812,-1.392 0.771,-0.341 1.647,-0.511 2.627,-0.511 0.98,0 1.854,0.17 2.621,0.511 0.772,0.341 1.378,0.807 1.818,1.399 0.441,0.587 0.663,1.255 0.668,2.003 -0.005,0.8 -0.251,1.499 -0.739,2.095 -0.487,0.597 -1.112,0.973 -1.875,1.129 v 0.1 c 0.583,0.095 1.111,0.312 1.584,0.653 0.478,0.336 0.857,0.76 1.136,1.272 0.285,0.506 0.429,1.063 0.434,1.669 -0.005,0.786 -0.249,1.489 -0.732,2.109 -0.483,0.62 -1.15,1.11 -2.003,1.47 -0.847,0.355 -1.818,0.533 -2.912,0.533 z m 0,-2.259 c 0.488,0 0.914,-0.087 1.279,-0.262 0.364,-0.18 0.648,-0.427 0.852,-0.739 0.208,-0.317 0.313,-0.682 0.313,-1.094 0,-0.421 -0.107,-0.793 -0.32,-1.115 -0.213,-0.327 -0.502,-0.582 -0.867,-0.767 -0.364,-0.189 -0.783,-0.284 -1.257,-0.284 -0.468,0 -0.887,0.095 -1.257,0.284 -0.369,0.185 -0.66,0.44 -0.873,0.767 -0.209,0.322 -0.313,0.694 -0.313,1.115 0,0.412 0.102,0.777 0.306,1.094 0.203,0.312 0.49,0.559 0.859,0.739 0.369,0.175 0.795,0.262 1.278,0.262 z m 0,-6.498 c 0.408,0 0.77,-0.083 1.087,-0.249 0.317,-0.166 0.566,-0.395 0.746,-0.689 0.18,-0.293 0.27,-0.632 0.27,-1.015 0,-0.379 -0.09,-0.711 -0.27,-0.995 -0.18,-0.289 -0.426,-0.513 -0.739,-0.674 -0.312,-0.166 -0.677,-0.249 -1.094,-0.249 -0.412,0 -0.776,0.083 -1.093,0.249 -0.318,0.161 -0.566,0.385 -0.746,0.674 -0.175,0.284 -0.263,0.616 -0.263,0.995 0,0.383 0.09,0.722 0.27,1.015 0.18,0.294 0.428,0.523 0.746,0.689 0.317,0.166 0.679,0.249 1.086,0.249 z"
       fill="#1a1a1a"
       id="path120"
       style="display:inline" />
    <path
       d="m 322.243,789 v -2.216 l 5.178,-4.794 c 0.44,-0.426 0.81,-0.81 1.108,-1.151 0.303,-0.34 0.533,-0.674 0.689,-1.001 0.156,-0.331 0.234,-0.689 0.234,-1.072 0,-0.427 -0.097,-0.793 -0.291,-1.101 -0.194,-0.313 -0.459,-0.552 -0.795,-0.718 -0.337,-0.17 -0.718,-0.255 -1.144,-0.255 -0.445,0 -0.833,0.09 -1.165,0.27 -0.331,0.18 -0.587,0.438 -0.767,0.774 -0.18,0.336 -0.27,0.736 -0.27,1.2 h -2.919 c 0,-0.952 0.216,-1.778 0.647,-2.479 0.431,-0.7 1.034,-1.243 1.811,-1.626 0.776,-0.384 1.671,-0.575 2.684,-0.575 1.042,0 1.949,0.184 2.721,0.554 0.776,0.364 1.38,0.871 1.811,1.52 0.431,0.648 0.646,1.392 0.646,2.23 0,0.549 -0.109,1.091 -0.327,1.626 -0.213,0.535 -0.594,1.129 -1.143,1.783 -0.549,0.648 -1.324,1.427 -2.323,2.336 l -2.123,2.081 v 0.1 h 6.108 V 789 Z m 18.301,0.32 c -1.221,-0.005 -2.273,-0.306 -3.153,-0.902 -0.876,-0.597 -1.551,-1.461 -2.024,-2.593 -0.469,-1.131 -0.701,-2.493 -0.696,-4.084 0,-1.586 0.234,-2.937 0.703,-4.055 0.473,-1.117 1.148,-1.967 2.024,-2.55 0.881,-0.587 1.929,-0.88 3.146,-0.88 1.217,0 2.263,0.293 3.139,0.88 0.881,0.587 1.558,1.44 2.032,2.557 0.473,1.113 0.708,2.462 0.703,4.048 0,1.596 -0.237,2.96 -0.71,4.091 -0.469,1.132 -1.142,1.996 -2.017,2.593 -0.876,0.596 -1.925,0.895 -3.147,0.895 z m 0,-2.55 c 0.834,0 1.499,-0.419 1.996,-1.257 0.497,-0.838 0.743,-2.095 0.739,-3.772 0,-1.103 -0.114,-2.021 -0.341,-2.755 -0.223,-0.734 -0.54,-1.286 -0.952,-1.655 -0.407,-0.369 -0.888,-0.554 -1.442,-0.554 -0.828,0 -1.491,0.414 -1.988,1.243 -0.498,0.828 -0.749,2.069 -0.753,3.721 0,1.118 0.111,2.051 0.334,2.799 0.227,0.743 0.546,1.302 0.958,1.676 0.412,0.369 0.895,0.554 1.449,0.554 z m 8.251,2.23 6.03,-11.932 v -0.099 h -7.024 v -2.514 h 10.206 v 2.549 L 351.97,789 Z"
       fill="#1a1a1a"
       id="path121"
       style="display:inline" />
    <path
       d="M 425.182,763.672 H 415 v -2.128 h 8.432 v -4.116 H 415 V 755.3 h 10.182 z m -13.046,2.01 h 10.5 v 2.088 h -1.282 v 0.095 c 0.205,0.092 0.414,0.227 0.626,0.402 0.216,0.179 0.395,0.411 0.537,0.696 0.146,0.289 0.219,0.647 0.219,1.074 0,0.557 -0.146,1.071 -0.438,1.541 -0.288,0.471 -0.724,0.847 -1.307,1.129 -0.58,0.282 -1.308,0.423 -2.183,0.423 -0.852,0 -1.571,-0.138 -2.157,-0.413 -0.584,-0.272 -1.026,-0.643 -1.328,-1.114 -0.298,-0.467 -0.447,-0.991 -0.447,-1.571 0,-0.411 0.068,-0.76 0.204,-1.049 0.135,-0.285 0.306,-0.518 0.512,-0.701 0.208,-0.182 0.419,-0.321 0.631,-0.417 V 767.8 h -4.087 z m 6.682,2.073 c -0.454,0 -0.85,0.063 -1.188,0.189 -0.338,0.126 -0.602,0.308 -0.791,0.547 -0.185,0.239 -0.278,0.529 -0.278,0.87 0,0.345 0.095,0.636 0.283,0.875 0.193,0.239 0.458,0.419 0.796,0.542 0.341,0.126 0.734,0.189 1.178,0.189 0.441,0 0.829,-0.061 1.164,-0.184 0.334,-0.123 0.596,-0.303 0.785,-0.542 0.189,-0.239 0.283,-0.532 0.283,-0.88 0,-0.345 -0.091,-0.636 -0.273,-0.875 -0.182,-0.235 -0.441,-0.416 -0.776,-0.542 -0.334,-0.126 -0.729,-0.189 -1.183,-0.189 z m -1.024,8.81 4.842,2.749 v 2.088 H 415 v -2.018 h 4.857 L 415,776.644 v -2.103 h 7.636 v 2.024 z m -2.943,10.015 c 0,-0.785 0.159,-1.461 0.477,-2.028 0.322,-0.564 0.776,-0.998 1.362,-1.303 0.59,-0.305 1.288,-0.457 2.093,-0.457 0.786,0 1.475,0.152 2.069,0.457 0.593,0.305 1.055,0.734 1.387,1.288 0.331,0.557 0.497,1.21 0.497,1.959 0,0.503 -0.081,0.972 -0.244,1.407 -0.159,0.437 -0.399,0.818 -0.721,1.143 -0.321,0.328 -0.726,0.583 -1.213,0.766 -0.484,0.182 -1.05,0.273 -1.7,0.273 h -0.582 v -6.448 h 1.313 v 4.455 c 0.305,0 0.575,-0.067 0.81,-0.199 0.235,-0.133 0.419,-0.317 0.552,-0.552 0.136,-0.232 0.204,-0.502 0.204,-0.811 0,-0.321 -0.075,-0.606 -0.224,-0.855 -0.146,-0.245 -0.343,-0.437 -0.592,-0.576 -0.245,-0.14 -0.518,-0.211 -0.82,-0.214 h -1.248 c -0.378,0 -0.704,0.069 -0.979,0.209 -0.275,0.142 -0.487,0.343 -0.636,0.601 -0.15,0.259 -0.224,0.565 -0.224,0.92 0,0.235 0.033,0.451 0.099,0.646 0.067,0.196 0.166,0.363 0.299,0.502 0.132,0.14 0.295,0.246 0.487,0.319 l -0.129,1.958 c -0.471,-0.099 -0.882,-0.303 -1.233,-0.611 -0.348,-0.305 -0.62,-0.699 -0.816,-1.183 -0.192,-0.481 -0.288,-1.036 -0.288,-1.666 z m 2.491,9.401 5.294,2.069 v 1.61 L 415,796.682 v -1.407 l 7.636,-2.908 v 1.606 z m 5.294,-2.49 H 415 v -2.024 h 7.636 z M 415,798.577 h 7.636 v 1.998 H 415 Z m 4.663,8.951 h -1.665 v -3.987 h 1.665 z m 2.973,-3.291 H 415 v -2.024 h 7.636 z m 0,4.618 H 415 v -2.008 h 7.636 z m -7.78,3.821 c 0,-0.487 0.084,-0.921 0.253,-1.303 0.173,-0.381 0.426,-0.682 0.761,-0.904 0.338,-0.219 0.759,-0.328 1.263,-0.328 0.424,0 0.78,0.077 1.069,0.233 0.288,0.156 0.52,0.368 0.696,0.637 0.175,0.268 0.308,0.573 0.397,0.914 0.09,0.345 0.153,0.706 0.189,1.084 0.047,0.444 0.09,0.802 0.13,1.074 0.043,0.272 0.106,0.469 0.189,0.592 0.082,0.122 0.205,0.184 0.367,0.184 h 0.03 c 0.315,0 0.559,-0.1 0.731,-0.299 0.172,-0.195 0.259,-0.474 0.259,-0.835 0,-0.381 -0.085,-0.684 -0.254,-0.91 -0.166,-0.225 -0.374,-0.374 -0.626,-0.447 l 0.159,-1.959 c 0.464,0.099 0.865,0.295 1.203,0.587 0.341,0.291 0.603,0.668 0.785,1.128 0.186,0.464 0.279,1.001 0.279,1.611 0,0.424 -0.05,0.83 -0.149,1.218 -0.1,0.391 -0.254,0.737 -0.463,1.039 -0.209,0.305 -0.477,0.545 -0.805,0.721 -0.325,0.176 -0.714,0.263 -1.168,0.263 H 415 v -2.008 h 1.059 v -0.06 c -0.239,-0.122 -0.449,-0.286 -0.631,-0.492 -0.179,-0.205 -0.32,-0.452 -0.423,-0.741 -0.099,-0.288 -0.149,-0.621 -0.149,-0.999 z m 1.461,0.607 c 0,0.311 0.062,0.586 0.184,0.825 0.126,0.239 0.295,0.426 0.508,0.562 0.212,0.136 0.452,0.203 0.72,0.203 h 0.811 c -0.043,-0.066 -0.083,-0.157 -0.12,-0.273 -0.033,-0.113 -0.064,-0.24 -0.094,-0.383 -0.027,-0.142 -0.051,-0.285 -0.075,-0.427 -0.019,-0.143 -0.038,-0.272 -0.054,-0.388 -0.037,-0.249 -0.095,-0.466 -0.174,-0.651 -0.08,-0.186 -0.188,-0.33 -0.323,-0.433 -0.133,-0.103 -0.299,-0.154 -0.498,-0.154 -0.288,0 -0.508,0.104 -0.661,0.313 -0.149,0.212 -0.224,0.481 -0.224,0.806 z M 415,823.094 h 5.976 v -1.432 c 0,-0.388 -0.09,-0.683 -0.269,-0.885 -0.179,-0.202 -0.391,-0.301 -0.636,-0.298 -0.249,-0.003 -0.459,0.093 -0.631,0.288 -0.169,0.199 -0.254,0.491 -0.254,0.875 v 2.158 h -1.432 v -2.158 c 0,-0.653 0.1,-1.218 0.299,-1.695 0.198,-0.477 0.475,-0.845 0.83,-1.104 0.358,-0.258 0.774,-0.386 1.248,-0.383 0.497,-0.003 0.933,0.125 1.307,0.383 0.378,0.259 0.671,0.628 0.88,1.109 0.212,0.484 0.318,1.054 0.318,1.71 v 3.406 H 415 Z m 0,-4.852 3.977,2.123 v 2.023 L 415,820.27 Z"
       fill="#1a1a1a"
       id="path122"
       style="display:inline" />
    <path
       d="m 449.05,789 v -2.216 l 5.178,-4.794 c 0.44,-0.426 0.809,-0.81 1.108,-1.151 0.303,-0.34 0.532,-0.674 0.689,-1.001 0.156,-0.331 0.234,-0.689 0.234,-1.072 0,-0.427 -0.097,-0.793 -0.291,-1.101 -0.194,-0.313 -0.46,-0.552 -0.796,-0.718 -0.336,-0.17 -0.717,-0.255 -1.143,-0.255 -0.445,0 -0.834,0.09 -1.165,0.27 -0.331,0.18 -0.587,0.438 -0.767,0.774 -0.18,0.336 -0.27,0.736 -0.27,1.2 h -2.919 c 0,-0.952 0.215,-1.778 0.646,-2.479 0.431,-0.7 1.035,-1.243 1.811,-1.626 0.777,-0.384 1.672,-0.575 2.685,-0.575 1.042,0 1.948,0.184 2.72,0.554 0.777,0.364 1.38,0.871 1.811,1.52 0.431,0.648 0.647,1.392 0.647,2.23 0,0.549 -0.109,1.091 -0.327,1.626 -0.213,0.535 -0.594,1.129 -1.144,1.783 -0.549,0.648 -1.323,1.427 -2.322,2.336 l -2.124,2.081 v 0.1 h 6.108 V 789 Z m 18.301,0.32 c -1.222,-0.005 -2.273,-0.306 -3.154,-0.902 -0.876,-0.597 -1.55,-1.461 -2.024,-2.593 -0.468,-1.131 -0.7,-2.493 -0.696,-4.084 0,-1.586 0.235,-2.937 0.703,-4.055 0.474,-1.117 1.149,-1.967 2.025,-2.55 0.88,-0.587 1.929,-0.88 3.146,-0.88 1.217,0 2.263,0.293 3.139,0.88 0.881,0.587 1.558,1.44 2.031,2.557 0.474,1.113 0.708,2.462 0.703,4.048 0,1.596 -0.236,2.96 -0.71,4.091 -0.469,1.132 -1.141,1.996 -2.017,2.593 -0.876,0.596 -1.925,0.895 -3.146,0.895 z m 0,-2.55 c 0.833,0 1.498,-0.419 1.996,-1.257 0.497,-0.838 0.743,-2.095 0.738,-3.772 0,-1.103 -0.113,-2.021 -0.341,-2.755 -0.222,-0.734 -0.539,-1.286 -0.951,-1.655 -0.408,-0.369 -0.888,-0.554 -1.442,-0.554 -0.829,0 -1.492,0.414 -1.989,1.243 -0.497,0.828 -0.748,2.069 -0.753,3.721 0,1.118 0.112,2.051 0.334,2.799 0.227,0.743 0.547,1.302 0.959,1.676 0.412,0.369 0.895,0.554 1.449,0.554 z m 13.379,2.429 c -1.004,0 -1.899,-0.185 -2.685,-0.554 -0.781,-0.369 -1.401,-0.878 -1.861,-1.527 -0.459,-0.649 -0.698,-1.392 -0.717,-2.23 h 2.983 c 0.033,0.563 0.27,1.02 0.71,1.371 0.44,0.35 0.964,0.525 1.57,0.525 0.483,0 0.909,-0.106 1.278,-0.32 0.374,-0.217 0.665,-0.518 0.874,-0.902 0.213,-0.388 0.319,-0.833 0.319,-1.335 0,-0.511 -0.109,-0.961 -0.326,-1.349 -0.213,-0.388 -0.509,-0.691 -0.888,-0.909 -0.379,-0.218 -0.812,-0.329 -1.3,-0.334 -0.426,0 -0.84,0.088 -1.243,0.263 -0.397,0.175 -0.708,0.414 -0.93,0.717 l -2.735,-0.49 0.689,-7.67 h 8.892 v 2.514 h -6.356 l -0.377,3.643 h 0.086 c 0.255,-0.36 0.641,-0.658 1.157,-0.895 0.516,-0.236 1.094,-0.355 1.733,-0.355 0.876,0 1.658,0.206 2.344,0.618 0.687,0.412 1.229,0.978 1.627,1.698 0.397,0.715 0.594,1.538 0.589,2.471 0.005,0.98 -0.223,1.851 -0.682,2.614 -0.454,0.757 -1.091,1.354 -1.91,1.79 -0.815,0.43 -1.762,0.646 -2.841,0.646 z"
       fill="#1a1a1a"
       id="path123"
       style="display:inline" />
    <path
       d="m 511.218,789 v -2.216 l 5.178,-4.794 c 0.44,-0.426 0.809,-0.81 1.108,-1.151 0.303,-0.34 0.532,-0.674 0.688,-1.001 0.157,-0.331 0.235,-0.689 0.235,-1.072 0,-0.427 -0.097,-0.793 -0.291,-1.101 -0.194,-0.313 -0.46,-0.552 -0.796,-0.718 -0.336,-0.17 -0.717,-0.255 -1.143,-0.255 -0.445,0 -0.834,0.09 -1.165,0.27 -0.331,0.18 -0.587,0.438 -0.767,0.774 -0.18,0.336 -0.27,0.736 -0.27,1.2 h -2.919 c 0,-0.952 0.215,-1.778 0.646,-2.479 0.431,-0.7 1.035,-1.243 1.811,-1.626 0.777,-0.384 1.672,-0.575 2.685,-0.575 1.042,0 1.948,0.184 2.72,0.554 0.777,0.364 1.38,0.871 1.811,1.52 0.431,0.648 0.647,1.392 0.647,2.23 0,0.549 -0.109,1.091 -0.327,1.626 -0.213,0.535 -0.594,1.129 -1.144,1.783 -0.549,0.648 -1.323,1.427 -2.322,2.336 l -2.124,2.081 v 0.1 h 6.108 V 789 Z m 18.301,0.32 c -1.222,-0.005 -2.273,-0.306 -3.154,-0.902 -0.876,-0.597 -1.55,-1.461 -2.024,-2.593 -0.468,-1.131 -0.7,-2.493 -0.696,-4.084 0,-1.586 0.235,-2.937 0.703,-4.055 0.474,-1.117 1.149,-1.967 2.025,-2.55 0.88,-0.587 1.929,-0.88 3.146,-0.88 1.217,0 2.263,0.293 3.139,0.88 0.881,0.587 1.558,1.44 2.031,2.557 0.474,1.113 0.708,2.462 0.703,4.048 0,1.596 -0.236,2.96 -0.71,4.091 -0.469,1.132 -1.141,1.996 -2.017,2.593 -0.876,0.596 -1.925,0.895 -3.146,0.895 z m 0,-2.55 c 0.833,0 1.498,-0.419 1.996,-1.257 0.497,-0.838 0.743,-2.095 0.738,-3.772 0,-1.103 -0.113,-2.021 -0.341,-2.755 -0.222,-0.734 -0.539,-1.286 -0.951,-1.655 -0.408,-0.369 -0.888,-0.554 -1.442,-0.554 -0.829,0 -1.492,0.414 -1.989,1.243 -0.497,0.828 -0.748,2.069 -0.753,3.721 0,1.118 0.112,2.051 0.334,2.799 0.227,0.743 0.547,1.302 0.959,1.676 0.412,0.369 0.895,0.554 1.449,0.554 z m 7.846,-0.327 v -2.422 l 6.073,-9.566 h 2.088 v 3.352 h -1.236 l -3.828,6.058 v 0.114 h 8.629 v 2.464 z m 6.982,2.557 v -3.295 l 0.056,-1.073 v -10.177 h 2.884 V 789 Z"
       fill="#1a1a1a"
       id="path124"
       style="display:inline" />
    <path
       d="m 671.404,789 v -2.216 l 5.177,-4.794 c 0.44,-0.426 0.81,-0.81 1.108,-1.151 0.303,-0.34 0.533,-0.674 0.689,-1.001 0.156,-0.331 0.234,-0.689 0.234,-1.072 0,-0.427 -0.097,-0.793 -0.291,-1.101 -0.194,-0.313 -0.459,-0.552 -0.795,-0.718 -0.336,-0.17 -0.718,-0.255 -1.144,-0.255 -0.445,0 -0.833,0.09 -1.164,0.27 -0.332,0.18 -0.588,0.438 -0.768,0.774 -0.179,0.336 -0.269,0.736 -0.269,1.2 h -2.919 c 0,-0.952 0.215,-1.778 0.646,-2.479 0.431,-0.7 1.034,-1.243 1.811,-1.626 0.776,-0.384 1.671,-0.575 2.685,-0.575 1.041,0 1.948,0.184 2.72,0.554 0.776,0.364 1.38,0.871 1.811,1.52 0.431,0.648 0.646,1.392 0.646,2.23 0,0.549 -0.109,1.091 -0.327,1.626 -0.213,0.535 -0.594,1.129 -1.143,1.783 -0.549,0.648 -1.323,1.427 -2.322,2.336 l -2.124,2.081 v 0.1 h 6.108 V 789 Z m 18.3,0.32 c -1.221,-0.005 -2.272,-0.306 -3.153,-0.902 -0.876,-0.597 -1.551,-1.461 -2.024,-2.593 -0.469,-1.131 -0.701,-2.493 -0.696,-4.084 0,-1.586 0.234,-2.937 0.703,-4.055 0.473,-1.117 1.148,-1.967 2.024,-2.55 0.881,-0.587 1.93,-0.88 3.146,-0.88 1.217,0 2.264,0.293 3.14,0.88 0.88,0.587 1.557,1.44 2.031,2.557 0.473,1.113 0.708,2.462 0.703,4.048 0,1.596 -0.237,2.96 -0.71,4.091 -0.469,1.132 -1.141,1.996 -2.017,2.593 -0.876,0.596 -1.925,0.895 -3.147,0.895 z m 0,-2.55 c 0.834,0 1.499,-0.419 1.996,-1.257 0.497,-0.838 0.743,-2.095 0.739,-3.772 0,-1.103 -0.114,-2.021 -0.341,-2.755 -0.223,-0.734 -0.54,-1.286 -0.952,-1.655 -0.407,-0.369 -0.888,-0.554 -1.442,-0.554 -0.828,0 -1.491,0.414 -1.988,1.243 -0.497,0.828 -0.748,2.069 -0.753,3.721 0,1.118 0.111,2.051 0.334,2.799 0.227,0.743 0.547,1.302 0.959,1.676 0.411,0.369 0.894,0.554 1.448,0.554 z m 13.443,2.429 c -1.06,0 -2.005,-0.182 -2.834,-0.547 -0.823,-0.369 -1.475,-0.876 -1.953,-1.52 -0.473,-0.649 -0.717,-1.397 -0.731,-2.244 h 3.096 c 0.019,0.355 0.135,0.667 0.348,0.937 0.218,0.265 0.507,0.471 0.867,0.618 0.36,0.147 0.764,0.22 1.214,0.22 0.469,0 0.883,-0.083 1.243,-0.248 0.36,-0.166 0.642,-0.396 0.845,-0.689 0.204,-0.294 0.306,-0.632 0.306,-1.016 0,-0.388 -0.109,-0.731 -0.327,-1.03 -0.213,-0.303 -0.521,-0.539 -0.923,-0.71 -0.398,-0.17 -0.871,-0.256 -1.421,-0.256 h -1.356 v -2.258 h 1.356 c 0.464,0 0.874,-0.081 1.229,-0.242 0.36,-0.16 0.639,-0.383 0.838,-0.667 0.199,-0.289 0.298,-0.625 0.298,-1.009 0,-0.364 -0.087,-0.684 -0.262,-0.958 -0.171,-0.28 -0.412,-0.498 -0.725,-0.654 -0.308,-0.156 -0.667,-0.234 -1.079,-0.234 -0.417,0 -0.798,0.076 -1.144,0.227 -0.346,0.147 -0.622,0.358 -0.831,0.632 -0.208,0.275 -0.319,0.597 -0.334,0.966 h -2.947 c 0.014,-0.838 0.253,-1.577 0.717,-2.216 0.464,-0.639 1.089,-1.139 1.875,-1.498 0.791,-0.365 1.683,-0.547 2.678,-0.547 1.004,0 1.882,0.182 2.635,0.547 0.753,0.364 1.337,0.857 1.754,1.477 0.421,0.615 0.63,1.307 0.625,2.074 0.005,0.814 -0.249,1.494 -0.76,2.038 -0.507,0.545 -1.167,0.89 -1.981,1.037 v 0.114 c 1.07,0.137 1.884,0.509 2.443,1.115 0.563,0.601 0.843,1.354 0.838,2.258 0.005,0.829 -0.235,1.565 -0.718,2.209 -0.478,0.644 -1.138,1.151 -1.981,1.52 -0.843,0.369 -1.809,0.554 -2.898,0.554 z"
       fill="#1a1a1a"
       id="path125"
       style="display:inline" />
    <path
       d="M 62.5,709.5 179,710"
       stroke="#1a1a1a"
       stroke-width="2.5"
       id="path126"
       style="display:inline" />
    <path
       d="m 366,640 v 71"
       stroke="#1a1a1a"
       stroke-width="2"
       id="path127"
       style="display:inline" />
    <path
       d="m 434,640 v 71"
       stroke="#1a1a1a"
       stroke-width="2"
       id="path128"
       style="display:inline" />
    <path
       d="m 666,710 v 40"
       stroke="#1a1a1a"
       stroke-width="2"
       id="path129"
       style="display:inline" />
    <path
       d="m 666,722 v 15"
       stroke="#fcfcfc"
       stroke-width="7"
       id="path130"
       style="display:inline" />
    <path
       d="m 577.5,641.5 v 69 m -1.5,39 V 828"
       stroke="#1a1a1a"
       stroke-width="2.5"
       id="path131"
       style="display:inline" />
    <path
       d="m 400.5,93 v 37.5"
       stroke="#1a1a1a"
       stroke-width="2.5"
       stroke-linecap="square"
       id="path132"
       style="display:inline" />
    <path
       d="m 609,756 8.188,12.568"
       stroke="#fcfcfc"
       stroke-width="7"
       id="path133"
       style="display:inline" />
    <path
       d="M 220,173.75 H 364"
       stroke="#1a1a1a"
       stroke-width="2.5"
       id="path134"
       style="display:inline" />
    <rect
       style="fill-opacity:1;fill-rule:nonzero"
       id="rect153"
       width="144.60155"
       height="111.05399"
       x="220.95116"
       y="249.87146"
       inkscape:label="rect213" />
    <rect
       style="fill-opacity:1;fill-rule:nonzero"
       id="rect154"
       width="143.83034"
       height="79.048843"
       x="220.95116"
       y="360.92545"
       inkscape:label="rect212" />
    <rect
       style="fill-opacity:1;fill-rule:nonzero"
       id="rect155"
       width="143.83034"
       height="109.89717"
       x="434.57584"
       y="249.87146"
       inkscape:label="rect216" />
    <rect
       style="fill-opacity:1;fill-rule:nonzero"
       id="rect156"
       width="144.21594"
       height="79.048843"
       x="435.34705"
       y="360.92545"
       inkscape:label="rect217" />
    <rect
       style="fill-opacity:1;fill-rule:nonzero"
       id="rect157"
       width="143.05913"
       height="97.172234"
       x="434.96143"
       y="441.1311"
       inkscape:label="rect218" />
    <rect
       style="fill-opacity:1;fill-rule:nonzero"
       id="rect158"
       width="143.05913"
       height="98.329048"
       x="221.33676"
       y="440.35989"
       inkscape:label="rect211" />
    <rect
       style="fill-opacity:1;fill-rule:nonzero"
       id="rect159"
       width="92.159386"
       height="40.102829"
       x="666.32391"
       y="709.5116"
       inkscape:label="rect202" />
    <rect
       style="fill-opacity:1;fill-rule:nonzero"
       id="rect160"
       width="71.336761"
       height="68.25193"
       x="433.80463"
       y="640.87402"
       inkscape:label="rect219" />
    <rect
       style="fill-opacity:1;fill-rule:nonzero"
       id="rect161"
       width="109.89717"
       height="77.892029"
       x="285.34705"
       y="750.38562"
       inkscape:label="rect207" />
    <rect
       style="fill-opacity:1;fill-rule:nonzero"
       id="rect162"
       width="65.552696"
       height="78.663239"
       x="434.57584"
       y="750.38562"
       inkscape:label="rect205" />
    <rect
       style="fill-opacity:1;fill-rule:nonzero"
       id="rect163"
       width="64.395889"
       height="78.277634"
       x="499.74292"
       y="750.77118"
       inkscape:label="rect204" />
    <rect
       style="fill-opacity:1;fill-rule:nonzero"
       id="rect164"
       width="179.69151"
       height="67.866325"
       x="578.02057"
       y="641.64526"
       inkscape:label="rect201" />
    <rect
       style="fill-opacity:1;fill-rule:nonzero"
       id="rect165"
       width="181.23393"
       height="77.892029"
       x="576.47815"
       y="750.38562"
       inkscape:label="rect203" />
    <rect
       style="fill-opacity:1;fill-rule:nonzero"
       id="rect166"
       width="79.820053"
       height="77.313622"
       x="205.14139"
       y="750.38562"
       inkscape:label="rect208" />
    <rect
       style="fill-opacity:1;fill-rule:nonzero"
       id="rect167"
       width="143.05913"
       height="78.084831"
       x="61.311054"
       y="750.19281"
       inkscape:label="rect210" />
    <rect
       style="fill-opacity:1;fill-rule:nonzero"
       id="rect168"
       width="157.59938"
       height="67.620491"
       x="61.349239"
       y="641.84937"
       inkscape:label="rect209" />
    <rect
       style="fill-opacity:1;fill-rule:nonzero"
       id="rect169"
       width="65.711853"
       height="68.165817"
       x="299.65695"
       y="641.03137"
       inkscape:label="rect-wc-w" />
    <rect
       style="fill-opacity:1;fill-rule:nonzero"
       id="rect170"
       width="67.866325"
       height="41.452442"
       x="365.35989"
       y="89.845757"
       inkscape:label="rect-stairs-center" />
    <rect
       style="fill-opacity:1;fill-rule:nonzero"
       id="rect171"
       width="80.012856"
       height="70.179947"
       x="220.17995"
       y="640.10284"
       inkscape:label="rect-stairs-left" />
    <rect
       style="fill-opacity:1;fill-rule:nonzero"
       id="rect172"
       width="63.046272"
       height="68.444733"
       x="504.56299"
       y="641.25964"
       inkscape:label="rect-stairs-right" />
    <rect
       style="fill-opacity:1;fill-rule:nonzero"
       id="rect173"
       width="40.354164"
       height="79.345016"
       x="394.81644"
       y="750.09668"
       inkscape:label="rect-reception" />
    <rect
       style="fill-opacity:1;fill-rule:nonzero"
       id="rect174"
       width="144.51154"
       height="107.702"
       x="220.85725"
       y="141.51224"
       inkscape:label="rect214" />
    <rect
       id="rect1"
       width="143.14822"
       height="107.97466"
       x="435.17059"
       y="141.23958"
       inkscape:label="rect215" />
  </g>
  <defs
     id="defs134">
    <linearGradient
       id="swatch141"
       inkscape:swatch="solid">
      <stop
         style="stop-color:#000000;stop-opacity:1;"
         offset="0"
         id="stop141" />
    </linearGradient>
    <clipPath
       id="clip0_9_2">
      <rect
         width="820"
         height="900"
         fill="white"
         id="rect134" />
    </clipPath>
  </defs>
</svg>
