<svg width="820" height="900" viewBox="0 0 820 900" fill="none" xmlns="http://www.w3.org/2000/svg">
<g clip-path="url(#clip0_9_2)">
<rect width="820" height="900" fill="white"/>
<line x1="365" y1="538.75" x2="437" y2="538.75" stroke="#1A1A1A" stroke-width="2.5"/>
<path d="M220 140H365V90H435V140H580V540H435V640H760V830H60V640H365V540H220V140Z" stroke="#1A1A1A" stroke-width="5" stroke-linecap="square"/>
<path d="M365 140V540" stroke="#1A1A1A" stroke-width="2.5" stroke-linecap="square"/>
<path d="M435 140V540" stroke="#1A1A1A" stroke-width="2.5" stroke-linecap="square"/>
<path d="M220 250H365" stroke="#1A1A1A" stroke-width="2.5" stroke-linecap="square"/>
<path d="M220 360H365" stroke="#1A1A1A" stroke-width="2.5" stroke-linecap="square"/>
<path d="M220 440H365" stroke="#1A1A1A" stroke-width="2.5" stroke-linecap="square"/>
<path d="M435 250H580" stroke="#1A1A1A" stroke-width="2.5" stroke-linecap="square"/>
<path d="M435 360H580" stroke="#1A1A1A" stroke-width="2.5" stroke-linecap="square"/>
<path d="M435 440H580" stroke="#1A1A1A" stroke-width="2.5" stroke-linecap="square"/>
<path d="M320 540V500H365" stroke="#1A1A1A" stroke-width="2.5" stroke-linecap="square"/>
<path d="M180 710H365" stroke="#1A1A1A" stroke-width="2.5" stroke-linecap="square"/>
<path d="M435 710H620" stroke="#1A1A1A" stroke-width="2.5" stroke-linecap="square"/>
<path d="M60 750H760" stroke="#1A1A1A" stroke-width="2.5" stroke-linecap="square"/>
<path d="M220 640V710" stroke="#1A1A1A" stroke-width="2.5" stroke-linecap="square"/>
<path d="M300 640V710" stroke="#1A1A1A" stroke-width="2.5" stroke-linecap="square"/>
<path d="M162 710V750" stroke="#1A1A1A" stroke-width="2.5" stroke-linecap="square"/>
<path d="M205 750V830" stroke="#1A1A1A" stroke-width="2.5" stroke-linecap="square"/>
<path d="M285 750V830" stroke="#1A1A1A" stroke-width="2.5" stroke-linecap="square"/>
<path d="M395 750V830" stroke="#1A1A1A" stroke-width="2.5" stroke-linecap="square"/>
<path d="M435 750V830" stroke="#1A1A1A" stroke-width="2.5" stroke-linecap="square"/>
<path d="M505 640V710" stroke="#1A1A1A" stroke-width="2.5" stroke-linecap="square"/>
<path d="M568 639V709" stroke="#1A1A1A" stroke-width="2.5" stroke-linecap="square"/>
<path d="M620 710H760" stroke="#1A1A1A" stroke-width="2.5" stroke-linecap="square"/>
<path d="M500 750V830" stroke="#1A1A1A" stroke-width="2.5" stroke-linecap="square"/>
<path d="M564.5 750V830" stroke="#1A1A1A" stroke-width="2.5" stroke-linecap="square"/>
<path d="M597 709.5L620 685V641.5" stroke="#1A1A1A" stroke-width="1.5"/>
<path d="M605.5 750.5L620 773V830" stroke="#1A1A1A" stroke-width="1.5"/>
<path d="M410 665H390V675H410V665Z" stroke="#1A1A1A" stroke-width="1.5"/>
<path d="M365 220V240" stroke="#FCFCFC" stroke-width="7"/>
<path d="M365 260V280" stroke="#FCFCFC" stroke-width="7"/>
<path d="M365 410V430" stroke="#FCFCFC" stroke-width="7"/>
<path d="M365 450V470" stroke="#FCFCFC" stroke-width="7"/>
<path d="M435 220V240" stroke="#FCFCFC" stroke-width="7"/>
<path d="M435 260V280" stroke="#FCFCFC" stroke-width="7"/>
<path d="M435 410V430" stroke="#FCFCFC" stroke-width="7"/>
<path d="M435 450V470" stroke="#FCFCFC" stroke-width="7"/>
<path d="M309 710H324" stroke="#FCFCFC" stroke-width="7"/>
<path d="M162 720V735" stroke="#FCFCFC" stroke-width="7"/>
<path d="M185 750H200" stroke="#FCFCFC" stroke-width="7"/>
<path d="M235 750H250" stroke="#FCFCFC" stroke-width="7"/>
<path d="M330 750H345" stroke="#FCFCFC" stroke-width="7"/>
<path d="M405 750H420" stroke="#FCFCFC" stroke-width="7"/>
<path d="M460 710H475" stroke="#FCFCFC" stroke-width="7"/>
<path d="M630 710H645" stroke="#FCFCFC" stroke-width="7"/>
<path d="M605 701.066L615.127 690" stroke="#FCFCFC" stroke-width="7"/>
<path d="M445 750H460" stroke="#FCFCFC" stroke-width="7"/>
<path d="M520 750H535" stroke="#FCFCFC" stroke-width="7"/>
<path d="M630 750H645" stroke="#FCFCFC" stroke-width="7"/>
<path d="M184.5 709H199.5" stroke="#FCFCFC" stroke-width="7"/>
<path d="M410 539L390 539" stroke="#FCFCFC" stroke-width="9"/>
<path d="M365 95H435M365 101H435M365 107H435M365 113H435M365 119H435M365 125H435M365 131H435" stroke="#1A1A1A" stroke-width="1.5"/>
<path d="M260 640V710" stroke="#1A1A1A" stroke-width="2.5" stroke-linecap="square"/>
<path d="M220 645H260M220 651H260M220 657H260M220 663H260M220 669H260M220 675H260M220 681H260M220 687H260M220 693H260M220 699H260M220 705H260" stroke="#1A1A1A" stroke-width="1.5"/>
<path d="M260 645H300M260 651H300M260 657H300M260 663H300M260 669H300M260 675H300M260 681H300M260 687H300M260 693H300M260 699H300M260 705H300" stroke="#1A1A1A" stroke-width="1.5"/>
<path d="M536.5 640V710" stroke="#1A1A1A" stroke-width="2.5" stroke-linecap="square"/>
<path d="M506 645H536M506 651H536M506 657H536M506 663H536M506 669H536M506 675H536M506 681H536M506 687H536M506 693H536M506 699H536M506 705H536" stroke="#1A1A1A" stroke-width="1.5"/>
<path d="M537 645H567M537 651H567M537 657H567M537 663H567M537 669H567M537 675H567M537 681H567M537 687H567M537 693H567M537 699H567M537 705H567" stroke="#1A1A1A" stroke-width="1.5"/>
<path d="M223 180H217V210H223V180Z" fill="#FCFCFC" stroke="#1A1A1A" stroke-width="1.5"/>
<path d="M220 180V210" stroke="#1A1A1A"/>
<path d="M223 290H217V320H223V290Z" fill="#FCFCFC" stroke="#1A1A1A" stroke-width="1.5"/>
<path d="M220 290V320" stroke="#1A1A1A"/>
<path d="M223 385H217V415H223V385Z" fill="#FCFCFC" stroke="#1A1A1A" stroke-width="1.5"/>
<path d="M220 385V415" stroke="#1A1A1A"/>
<path d="M223 475H217V505H223V475Z" fill="#FCFCFC" stroke="#1A1A1A" stroke-width="1.5"/>
<path d="M220 475V505" stroke="#1A1A1A"/>
<path d="M60 660V690" stroke="#1A1A1A"/>
<path d="M60 715V745" stroke="#1A1A1A"/>
<path d="M583 180H577V210H583V180Z" fill="#FCFCFC" stroke="#1A1A1A" stroke-width="1.5"/>
<path d="M580 180V210" stroke="#1A1A1A"/>
<path d="M583 290H577V320H583V290Z" fill="#FCFCFC" stroke="#1A1A1A" stroke-width="1.5"/>
<path d="M580 290V320" stroke="#1A1A1A"/>
<path d="M583 385H577V415H583V385Z" fill="#FCFCFC" stroke="#1A1A1A" stroke-width="1.5"/>
<path d="M580 385V415" stroke="#1A1A1A"/>
<path d="M583 475H577V505H583V475Z" fill="#FCFCFC" stroke="#1A1A1A" stroke-width="1.5"/>
<path d="M580 475V505" stroke="#1A1A1A"/>
<path d="M760 660V690" stroke="#1A1A1A"/>
<path d="M760 775V805" stroke="#1A1A1A"/>
<path d="M135 637H105V643H135V637Z" fill="#FCFCFC" stroke="#1A1A1A" stroke-width="1.5"/>
<path d="M105 640H135" stroke="#1A1A1A"/>
<path d="M215 637H185V643H215V637Z" fill="#FCFCFC" stroke="#1A1A1A" stroke-width="1.5"/>
<path d="M185 640H215" stroke="#1A1A1A"/>
<path d="M482 637H452V643H482V637Z" fill="#FCFCFC" stroke="#1A1A1A" stroke-width="1.5"/>
<path d="M452 640H482" stroke="#1A1A1A"/>
<path d="M675 637H645V643H675V637Z" fill="#FCFCFC" stroke="#1A1A1A" stroke-width="1.5"/>
<path d="M645 640H675" stroke="#1A1A1A"/>
<path d="M735 637H705V643H735V637Z" fill="#FCFCFC" stroke="#1A1A1A" stroke-width="1.5"/>
<path d="M705 640H735" stroke="#1A1A1A"/>
<path d="M115 827H85V833H115V827Z" fill="#FCFCFC" stroke="#1A1A1A" stroke-width="1.5"/>
<path d="M85 830H115" stroke="#1A1A1A"/>
<path d="M175 827H145V833H175V827Z" fill="#FCFCFC" stroke="#1A1A1A" stroke-width="1.5"/>
<path d="M145 830H175" stroke="#1A1A1A"/>
<path d="M260 827H230V833H260V827Z" fill="#FCFCFC" stroke="#1A1A1A" stroke-width="1.5"/>
<path d="M230 830H260" stroke="#1A1A1A"/>
<path d="M355 827H325V833H355V827Z" fill="#FCFCFC" stroke="#1A1A1A" stroke-width="1.5"/>
<path d="M325 830H355" stroke="#1A1A1A"/>
<path d="M482 827H452V833H482V827Z" fill="#FCFCFC" stroke="#1A1A1A" stroke-width="1.5"/>
<path d="M452 830H482" stroke="#1A1A1A"/>
<path d="M545 827H515V833H545V827Z" fill="#FCFCFC" stroke="#1A1A1A" stroke-width="1.5"/>
<path d="M515 830H545" stroke="#1A1A1A"/>
<path d="M675 827H645V833H675V827Z" fill="#FCFCFC" stroke="#1A1A1A" stroke-width="1.5"/>
<path d="M645 830H675" stroke="#1A1A1A"/>
<path d="M735 827H705V833H735V827Z" fill="#FCFCFC" stroke="#1A1A1A" stroke-width="1.5"/>
<path d="M705 830H735" stroke="#1A1A1A"/>
<path d="M370.581 45V43.0057L375.24 38.6911C375.637 38.3075 375.969 37.9624 376.238 37.6555C376.51 37.3487 376.717 37.0483 376.858 36.7543C376.998 36.456 377.069 36.1342 377.069 35.7891C377.069 35.4055 376.981 35.0753 376.806 34.7983C376.632 34.517 376.393 34.3018 376.091 34.1527C375.788 33.9993 375.445 33.9226 375.061 33.9226C374.661 33.9226 374.311 34.0036 374.013 34.1655C373.715 34.3274 373.485 34.5597 373.323 34.8622C373.161 35.1648 373.08 35.5249 373.08 35.9425H370.453C370.453 35.0859 370.647 34.3423 371.034 33.7116C371.422 33.081 371.966 32.593 372.664 32.2479C373.363 31.9027 374.169 31.7301 375.081 31.7301C376.018 31.7301 376.834 31.8963 377.529 32.2287C378.228 32.5568 378.771 33.0128 379.159 33.5966C379.547 34.1804 379.74 34.8494 379.74 35.6037C379.74 36.098 379.642 36.5859 379.446 37.0675C379.255 37.549 378.912 38.0838 378.417 38.6719C377.923 39.2557 377.226 39.9567 376.327 40.7749L374.416 42.6477V42.7372H379.913V45H370.581ZM389.741 37.2145C389.434 37.2145 389.161 37.2741 388.923 37.3935C388.684 37.5128 388.496 37.679 388.36 37.892C388.228 38.1009 388.162 38.348 388.162 38.6335H385.714C385.714 38.1009 385.816 37.6151 386.021 37.1761C386.225 36.733 386.511 36.3516 386.877 36.032C387.244 35.7081 387.67 35.4588 388.156 35.2841C388.646 35.1094 389.174 35.022 389.741 35.022C390.729 35.022 391.56 35.2436 392.234 35.6868C392.911 36.1257 393.423 36.7202 393.768 37.4702C394.117 38.2159 394.292 39.0533 394.292 39.9822V40.2188C394.292 41.152 394.119 41.9936 393.774 42.7436C393.429 43.4936 392.918 44.0881 392.24 44.527C391.567 44.9616 390.734 45.179 389.741 45.179C388.948 45.179 388.249 45.0234 387.644 44.7124C387.039 44.397 386.566 43.9517 386.225 43.3764C385.884 42.7969 385.714 42.1087 385.714 41.3118H388.162C388.162 41.6143 388.226 41.8913 388.354 42.1428C388.482 42.3942 388.663 42.5945 388.897 42.7436C389.136 42.8928 389.417 42.9695 389.741 42.9737C390.248 42.9695 390.642 42.8267 390.923 42.5455C391.209 42.2642 391.407 41.9126 391.518 41.4908C391.633 41.0646 391.69 40.6406 391.69 40.2188V39.9822C391.69 39.5178 391.631 39.0746 391.511 38.6527C391.396 38.2308 391.196 37.8857 390.911 37.6172C390.629 37.3487 390.239 37.2145 389.741 37.2145ZM392.477 39.2855V40.8963H389.006V39.2855H392.477ZM395.126 37.3232V35.1818H404.024V37.3232H400.86V45H398.265V37.3232H395.126ZM408.123 45.1854C407.496 45.1854 406.938 45.0767 406.448 44.8594C405.958 44.6378 405.57 44.3118 405.285 43.8814C405.003 43.4467 404.863 42.9055 404.863 42.2578C404.863 41.7124 404.963 41.2543 405.163 40.8835C405.363 40.5128 405.636 40.2145 405.981 39.9886C406.327 39.7628 406.719 39.5923 407.157 39.4773C407.601 39.3622 408.065 39.2812 408.551 39.2344C409.122 39.1747 409.582 39.1193 409.932 39.0682C410.281 39.0128 410.535 38.9318 410.692 38.8253C410.85 38.7187 410.929 38.5611 410.929 38.3523V38.3139C410.929 37.9091 410.801 37.5959 410.545 37.3743C410.294 37.1527 409.936 37.0419 409.471 37.0419C408.981 37.0419 408.591 37.1506 408.302 37.3679C408.012 37.581 407.82 37.8494 407.726 38.1733L405.208 37.9688C405.336 37.3722 405.587 36.8565 405.962 36.4219C406.337 35.983 406.821 35.6463 407.413 35.4119C408.01 35.1733 408.7 35.054 409.484 35.054C410.03 35.054 410.552 35.1179 411.05 35.2457C411.553 35.3736 411.998 35.5717 412.386 35.8402C412.778 36.1087 413.087 36.4538 413.313 36.8757C413.539 37.2933 413.652 37.794 413.652 38.3778V45H411.069V43.6385H410.993C410.835 43.9453 410.624 44.2159 410.36 44.4503C410.096 44.6804 409.778 44.8615 409.407 44.9936C409.037 45.1214 408.608 45.1854 408.123 45.1854ZM408.903 43.3061C409.303 43.3061 409.657 43.2273 409.964 43.0696C410.27 42.9077 410.511 42.6903 410.686 42.4176C410.861 42.1449 410.948 41.8359 410.948 41.4908V40.4489C410.863 40.5043 410.746 40.5554 410.596 40.6023C410.452 40.6449 410.287 40.6854 410.104 40.7237C409.921 40.7578 409.738 40.7898 409.555 40.8196C409.371 40.8452 409.205 40.8686 409.056 40.8899C408.736 40.9368 408.457 41.0114 408.219 41.1136C407.98 41.2159 407.795 41.3544 407.662 41.5291C407.53 41.6996 407.464 41.9126 407.464 42.1683C407.464 42.5391 407.599 42.8224 407.867 43.0185C408.14 43.2102 408.485 43.3061 408.903 43.3061ZM415.125 45L418.558 39.8928L415.144 35.1818H418.251L420.801 39.0234H421.223V35.1818H423.946V39.0234H424.355L426.906 35.1818H430.012L426.605 39.8928L430.031 45H426.855L424.33 41.1648H423.946V45H421.223V41.1648H420.84L418.302 45H415.125Z" fill="#1A1A1A"/>
<path d="M276.21 229V226.784L281.388 221.99C281.828 221.564 282.197 221.18 282.496 220.839C282.799 220.499 283.028 220.165 283.185 219.838C283.341 219.507 283.419 219.149 283.419 218.766C283.419 218.339 283.322 217.973 283.128 217.665C282.934 217.352 282.669 217.113 282.332 216.947C281.996 216.777 281.615 216.692 281.189 216.692C280.744 216.692 280.356 216.782 280.024 216.962C279.693 217.142 279.437 217.4 279.257 217.736C279.077 218.072 278.987 218.472 278.987 218.936H276.068C276.068 217.984 276.284 217.158 276.714 216.457C277.145 215.757 277.749 215.214 278.526 214.831C279.302 214.447 280.197 214.256 281.21 214.256C282.252 214.256 283.159 214.44 283.93 214.81C284.707 215.174 285.311 215.681 285.741 216.33C286.172 216.978 286.388 217.722 286.388 218.56C286.388 219.109 286.279 219.651 286.061 220.186C285.848 220.721 285.467 221.315 284.918 221.969C284.368 222.617 283.594 223.396 282.595 224.305L280.472 226.386V226.486H286.58V229H276.21ZM295.136 214.455V229H292.061V217.374H291.975L288.645 219.462V216.734L292.245 214.455H295.136ZM298.373 226.443V224.021L304.445 214.455H306.533V217.807H305.298L301.469 223.865V223.979H310.099V226.443H298.373ZM305.354 229V225.705L305.411 224.632V214.455H308.295V229H305.354Z" fill="#1A1A1A"/>
<path d="M275.896 304V301.784L281.073 296.99C281.514 296.564 281.883 296.18 282.181 295.839C282.484 295.499 282.714 295.165 282.87 294.838C283.026 294.507 283.105 294.149 283.105 293.766C283.105 293.339 283.008 292.973 282.813 292.665C282.619 292.352 282.354 292.113 282.018 291.947C281.682 291.777 281.301 291.692 280.874 291.692C280.429 291.692 280.041 291.782 279.71 291.962C279.378 292.142 279.123 292.4 278.943 292.736C278.763 293.072 278.673 293.472 278.673 293.936H275.754C275.754 292.984 275.969 292.158 276.4 291.457C276.831 290.757 277.435 290.214 278.211 289.831C278.988 289.447 279.883 289.256 280.896 289.256C281.937 289.256 282.844 289.44 283.616 289.81C284.392 290.174 284.996 290.681 285.427 291.33C285.858 291.978 286.073 292.722 286.073 293.56C286.073 294.109 285.964 294.651 285.747 295.186C285.534 295.721 285.152 296.315 284.603 296.969C284.054 297.617 283.28 298.396 282.281 299.305L280.157 301.386V301.486H286.265V304H275.896ZM294.822 289.455V304H291.746V292.374H291.661L288.33 294.462V291.734L291.931 289.455H294.822ZM303.655 304.199C302.594 304.199 301.65 304.017 300.821 303.652C299.997 303.283 299.346 302.776 298.868 302.132C298.395 301.483 298.151 300.735 298.137 299.888H301.233C301.252 300.243 301.368 300.555 301.581 300.825C301.799 301.09 302.088 301.296 302.448 301.443C302.807 301.59 303.212 301.663 303.662 301.663C304.131 301.663 304.545 301.58 304.905 301.415C305.265 301.249 305.547 301.019 305.75 300.726C305.954 300.432 306.056 300.094 306.056 299.71C306.056 299.322 305.947 298.979 305.729 298.68C305.516 298.377 305.208 298.141 304.806 297.97C304.408 297.8 303.934 297.714 303.385 297.714H302.029V295.456H303.385C303.849 295.456 304.259 295.375 304.614 295.214C304.974 295.054 305.253 294.831 305.452 294.547C305.651 294.258 305.75 293.922 305.75 293.538C305.75 293.174 305.663 292.854 305.487 292.58C305.317 292.3 305.075 292.082 304.763 291.926C304.455 291.77 304.095 291.692 303.683 291.692C303.267 291.692 302.886 291.768 302.54 291.919C302.194 292.066 301.917 292.277 301.709 292.551C301.501 292.826 301.389 293.148 301.375 293.517H298.428C298.442 292.679 298.681 291.94 299.145 291.301C299.609 290.662 300.234 290.162 301.02 289.803C301.811 289.438 302.703 289.256 303.698 289.256C304.701 289.256 305.58 289.438 306.333 289.803C307.085 290.167 307.67 290.66 308.087 291.28C308.508 291.895 308.717 292.587 308.712 293.354C308.717 294.168 308.463 294.848 307.952 295.392C307.445 295.937 306.785 296.282 305.97 296.429V296.543C307.04 296.68 307.855 297.052 308.414 297.658C308.977 298.259 309.256 299.012 309.252 299.916C309.256 300.745 309.017 301.481 308.534 302.125C308.056 302.769 307.396 303.276 306.553 303.645C305.71 304.014 304.744 304.199 303.655 304.199Z" fill="#1A1A1A"/>
<path d="M276.189 399V396.784L281.366 391.99C281.807 391.564 282.176 391.18 282.474 390.839C282.777 390.499 283.007 390.165 283.163 389.838C283.319 389.507 283.398 389.149 283.398 388.766C283.398 388.339 283.3 387.973 283.106 387.665C282.912 387.352 282.647 387.113 282.311 386.947C281.975 386.777 281.594 386.692 281.167 386.692C280.722 386.692 280.334 386.782 280.003 386.962C279.671 387.142 279.416 387.4 279.236 387.736C279.056 388.072 278.966 388.472 278.966 388.936H276.047C276.047 387.984 276.262 387.158 276.693 386.457C277.124 385.757 277.728 385.214 278.504 384.831C279.281 384.447 280.175 384.256 281.189 384.256C282.23 384.256 283.137 384.44 283.909 384.81C284.685 385.174 285.289 385.681 285.72 386.33C286.151 386.978 286.366 387.722 286.366 388.56C286.366 389.109 286.257 389.651 286.04 390.186C285.827 390.721 285.445 391.315 284.896 391.969C284.347 392.617 283.573 393.396 282.574 394.305L280.45 396.386V396.486H286.558V399H276.189ZM295.115 384.455V399H292.039V387.374H291.954L288.623 389.462V386.734L292.224 384.455H295.115ZM298.572 399V396.784L303.749 391.99C304.189 391.564 304.559 391.18 304.857 390.839C305.16 390.499 305.39 390.165 305.546 389.838C305.702 389.507 305.78 389.149 305.78 388.766C305.78 388.339 305.683 387.973 305.489 387.665C305.295 387.352 305.03 387.113 304.694 386.947C304.358 386.777 303.976 386.692 303.55 386.692C303.105 386.692 302.717 386.782 302.385 386.962C302.054 387.142 301.798 387.4 301.618 387.736C301.439 388.072 301.349 388.472 301.349 388.936H298.43C298.43 387.984 298.645 387.158 299.076 386.457C299.507 385.757 300.11 385.214 300.887 384.831C301.663 384.447 302.558 384.256 303.572 384.256C304.613 384.256 305.52 384.44 306.292 384.81C307.068 385.174 307.672 385.681 308.103 386.33C308.534 386.978 308.749 387.722 308.749 388.56C308.749 389.109 308.64 389.651 308.422 390.186C308.209 390.721 307.828 391.315 307.279 391.969C306.73 392.617 305.956 393.396 304.956 394.305L302.833 396.386V396.486H308.941V399H298.572Z" fill="#1A1A1A"/>
<path d="M277.595 489V486.784L282.773 481.99C283.213 481.564 283.582 481.18 283.881 480.839C284.184 480.499 284.413 480.165 284.569 479.838C284.726 479.507 284.804 479.149 284.804 478.766C284.804 478.339 284.707 477.973 284.513 477.665C284.318 477.352 284.053 477.113 283.717 476.947C283.381 476.777 283 476.692 282.574 476.692C282.129 476.692 281.74 476.782 281.409 476.962C281.077 477.142 280.822 477.4 280.642 477.736C280.462 478.072 280.372 478.472 280.372 478.936H277.453C277.453 477.984 277.668 477.158 278.099 476.457C278.53 475.757 279.134 475.214 279.91 474.831C280.687 474.447 281.582 474.256 282.595 474.256C283.637 474.256 284.543 474.44 285.315 474.81C286.092 475.174 286.695 475.681 287.126 476.33C287.557 476.978 287.773 477.722 287.773 478.56C287.773 479.109 287.664 479.651 287.446 480.186C287.233 480.721 286.852 481.315 286.302 481.969C285.753 482.617 284.979 483.396 283.98 484.305L281.856 486.386V486.486H287.964V489H277.595ZM296.521 474.455V489H293.445V477.374H293.36L290.029 479.462V476.734L293.63 474.455H296.521ZM306.306 474.455V489H303.231V477.374H303.145L299.814 479.462V476.734L303.415 474.455H306.306Z" fill="#1A1A1A"/>
<path d="M491.042 194V191.784L496.22 186.99C496.66 186.564 497.029 186.18 497.328 185.839C497.631 185.499 497.86 185.165 498.017 184.838C498.173 184.507 498.251 184.149 498.251 183.766C498.251 183.339 498.154 182.973 497.96 182.665C497.766 182.352 497.501 182.113 497.164 181.947C496.828 181.777 496.447 181.692 496.021 181.692C495.576 181.692 495.188 181.782 494.856 181.962C494.525 182.142 494.269 182.4 494.089 182.736C493.909 183.072 493.819 183.472 493.819 183.936H490.9C490.9 182.984 491.116 182.158 491.547 181.457C491.977 180.757 492.581 180.214 493.358 179.831C494.134 179.447 495.029 179.256 496.042 179.256C497.084 179.256 497.991 179.44 498.762 179.81C499.539 180.174 500.143 180.681 500.574 181.33C501.004 181.978 501.22 182.722 501.22 183.56C501.22 184.109 501.111 184.651 500.893 185.186C500.68 185.721 500.299 186.315 499.75 186.969C499.2 187.617 498.426 188.396 497.427 189.305L495.304 191.386V191.486H501.412V194H491.042ZM509.968 179.455V194H506.893V182.374H506.808L503.477 184.462V181.734L507.077 179.455H509.968ZM518.738 194.199C517.734 194.199 516.839 194.014 516.053 193.645C515.272 193.276 514.651 192.767 514.192 192.118C513.733 191.469 513.494 190.726 513.475 189.888H516.458C516.491 190.451 516.728 190.908 517.168 191.259C517.608 191.609 518.132 191.784 518.738 191.784C519.221 191.784 519.647 191.678 520.016 191.464C520.39 191.247 520.681 190.946 520.89 190.562C521.103 190.174 521.209 189.729 521.209 189.227C521.209 188.716 521.1 188.266 520.882 187.878C520.669 187.49 520.373 187.187 519.995 186.969C519.616 186.751 519.183 186.64 518.695 186.635C518.269 186.635 517.855 186.723 517.452 186.898C517.054 187.073 516.744 187.312 516.522 187.615L513.787 187.125L514.476 179.455H523.368V181.969H517.012L516.635 185.612H516.721C516.976 185.252 517.362 184.954 517.878 184.717C518.394 184.481 518.972 184.362 519.611 184.362C520.487 184.362 521.268 184.568 521.955 184.98C522.641 185.392 523.184 185.958 523.581 186.678C523.979 187.393 524.176 188.216 524.171 189.149C524.176 190.129 523.948 191 523.489 191.763C523.034 192.52 522.398 193.117 521.578 193.553C520.764 193.983 519.817 194.199 518.738 194.199Z" fill="#1A1A1A"/>
<path d="M490.886 304V301.784L496.064 296.99C496.504 296.564 496.873 296.18 497.172 295.839C497.475 295.499 497.704 295.165 497.86 294.838C498.017 294.507 498.095 294.149 498.095 293.766C498.095 293.339 497.998 292.973 497.804 292.665C497.609 292.352 497.344 292.113 497.008 291.947C496.672 291.777 496.291 291.692 495.865 291.692C495.42 291.692 495.031 291.782 494.7 291.962C494.368 292.142 494.113 292.4 493.933 292.736C493.753 293.072 493.663 293.472 493.663 293.936H490.744C490.744 292.984 490.959 292.158 491.39 291.457C491.821 290.757 492.425 290.214 493.201 289.831C493.978 289.447 494.873 289.256 495.886 289.256C496.928 289.256 497.834 289.44 498.606 289.81C499.383 290.174 499.986 290.681 500.417 291.33C500.848 291.978 501.064 292.722 501.064 293.56C501.064 294.109 500.955 294.651 500.737 295.186C500.524 295.721 500.143 296.315 499.593 296.969C499.044 297.617 498.27 298.396 497.271 299.305L495.147 301.386V301.486H501.255V304H490.886ZM509.812 289.455V304H506.737V292.374H506.651L503.32 294.462V291.734L506.921 289.455H509.812ZM518.851 304.199C518.103 304.194 517.381 304.069 516.685 303.822C515.994 303.576 515.373 303.176 514.824 302.622C514.275 302.068 513.839 301.334 513.517 300.42C513.2 299.507 513.042 298.384 513.042 297.054C513.046 295.832 513.186 294.741 513.461 293.78C513.74 292.814 514.138 291.995 514.654 291.322C515.175 290.65 515.797 290.139 516.522 289.788C517.246 289.433 518.058 289.256 518.958 289.256C519.928 289.256 520.785 289.445 521.529 289.824C522.272 290.198 522.869 290.707 523.319 291.351C523.773 291.995 524.048 292.717 524.142 293.517H521.11C520.991 293.01 520.743 292.613 520.364 292.324C519.985 292.035 519.516 291.891 518.958 291.891C518.011 291.891 517.291 292.303 516.799 293.126C516.311 293.95 516.062 295.07 516.053 296.486H516.152C516.37 296.055 516.664 295.688 517.033 295.385C517.407 295.077 517.831 294.843 518.304 294.682C518.783 294.516 519.287 294.433 519.817 294.433C520.679 294.433 521.446 294.637 522.118 295.044C522.791 295.446 523.321 296 523.709 296.706C524.097 297.411 524.292 298.219 524.292 299.128C524.292 300.113 524.062 300.989 523.603 301.756C523.148 302.523 522.511 303.124 521.692 303.56C520.878 303.991 519.931 304.204 518.851 304.199ZM518.837 301.784C519.31 301.784 519.734 301.67 520.108 301.443C520.482 301.216 520.776 300.908 520.989 300.52C521.202 300.132 521.309 299.696 521.309 299.213C521.309 298.73 521.202 298.297 520.989 297.913C520.781 297.53 520.492 297.224 520.123 296.997C519.753 296.77 519.332 296.656 518.858 296.656C518.503 296.656 518.174 296.723 517.871 296.855C517.573 296.988 517.31 297.172 517.083 297.409C516.86 297.646 516.685 297.92 516.557 298.233C516.429 298.541 516.365 298.87 516.365 299.22C516.365 299.689 516.472 300.117 516.685 300.506C516.903 300.894 517.196 301.204 517.566 301.436C517.94 301.668 518.364 301.784 518.837 301.784Z" fill="#1A1A1A"/>
<path d="M491.54 399V396.784L496.718 391.99C497.158 391.564 497.528 391.18 497.826 390.839C498.129 390.499 498.358 390.165 498.515 389.838C498.671 389.507 498.749 389.149 498.749 388.766C498.749 388.339 498.652 387.973 498.458 387.665C498.264 387.352 497.999 387.113 497.662 386.947C497.326 386.777 496.945 386.692 496.519 386.692C496.074 386.692 495.686 386.782 495.354 386.962C495.023 387.142 494.767 387.4 494.587 387.736C494.407 388.072 494.317 388.472 494.317 388.936H491.398C491.398 387.984 491.614 387.158 492.045 386.457C492.475 385.757 493.079 385.214 493.856 384.831C494.632 384.447 495.527 384.256 496.54 384.256C497.582 384.256 498.489 384.44 499.26 384.81C500.037 385.174 500.641 385.681 501.072 386.33C501.502 386.978 501.718 387.722 501.718 388.56C501.718 389.109 501.609 389.651 501.391 390.186C501.178 390.721 500.797 391.315 500.248 391.969C499.698 392.617 498.924 393.396 497.925 394.305L495.802 396.386V396.486H501.91V399H491.54ZM510.466 384.455V399H507.391V387.374H507.306L503.975 389.462V386.734L507.575 384.455H510.466ZM514.498 399L520.528 387.068V386.969H513.504V384.455H523.71V387.004L517.673 399H514.498Z" fill="#1A1A1A"/>
<path d="M490.876 489V486.784L496.054 481.99C496.494 481.564 496.863 481.18 497.162 480.839C497.465 480.499 497.694 480.165 497.851 479.838C498.007 479.507 498.085 479.149 498.085 478.766C498.085 478.339 497.988 477.973 497.794 477.665C497.6 477.352 497.335 477.113 496.998 476.947C496.662 476.777 496.281 476.692 495.855 476.692C495.41 476.692 495.022 476.782 494.69 476.962C494.359 477.142 494.103 477.4 493.923 477.736C493.743 478.072 493.653 478.472 493.653 478.936H490.734C490.734 477.984 490.95 477.158 491.381 476.457C491.811 475.757 492.415 475.214 493.192 474.831C493.968 474.447 494.863 474.256 495.876 474.256C496.918 474.256 497.825 474.44 498.596 474.81C499.373 475.174 499.977 475.681 500.407 476.33C500.838 476.978 501.054 477.722 501.054 478.56C501.054 479.109 500.945 479.651 500.727 480.186C500.514 480.721 500.133 481.315 499.584 481.969C499.034 482.617 498.26 483.396 497.261 484.305L495.138 486.386V486.486H501.246V489H490.876ZM509.802 474.455V489H506.727V477.374H506.642L503.311 479.462V476.734L506.911 474.455H509.802ZM518.685 489.199C517.591 489.199 516.618 489.021 515.766 488.666C514.919 488.306 514.253 487.816 513.77 487.196C513.287 486.576 513.046 485.873 513.046 485.087C513.046 484.481 513.183 483.924 513.458 483.418C513.737 482.906 514.116 482.482 514.594 482.146C515.073 481.805 515.608 481.588 516.199 481.493V481.393C515.423 481.237 514.793 480.861 514.31 480.264C513.827 479.663 513.586 478.964 513.586 478.169C513.586 477.416 513.806 476.746 514.246 476.159C514.687 475.567 515.29 475.103 516.057 474.767C516.829 474.426 517.705 474.256 518.685 474.256C519.665 474.256 520.539 474.426 521.306 474.767C522.078 475.108 522.684 475.574 523.124 476.166C523.564 476.753 523.787 477.421 523.792 478.169C523.787 478.969 523.541 479.668 523.053 480.264C522.565 480.861 521.94 481.237 521.178 481.393V481.493C521.76 481.588 522.288 481.805 522.762 482.146C523.24 482.482 523.619 482.906 523.898 483.418C524.182 483.924 524.327 484.481 524.331 485.087C524.327 485.873 524.083 486.576 523.6 487.196C523.117 487.816 522.449 488.306 521.597 488.666C520.75 489.021 519.779 489.199 518.685 489.199ZM518.685 486.94C519.173 486.94 519.599 486.853 519.964 486.678C520.328 486.498 520.612 486.251 520.816 485.939C521.024 485.622 521.128 485.257 521.128 484.845C521.128 484.424 521.022 484.052 520.809 483.73C520.596 483.403 520.307 483.148 519.942 482.963C519.578 482.774 519.159 482.679 518.685 482.679C518.216 482.679 517.797 482.774 517.428 482.963C517.059 483.148 516.768 483.403 516.555 483.73C516.346 484.052 516.242 484.424 516.242 484.845C516.242 485.257 516.344 485.622 516.547 485.939C516.751 486.251 517.037 486.498 517.407 486.678C517.776 486.853 518.202 486.94 518.685 486.94ZM518.685 480.442C519.092 480.442 519.455 480.359 519.772 480.193C520.089 480.027 520.338 479.798 520.518 479.504C520.698 479.211 520.787 478.872 520.787 478.489C520.787 478.11 520.698 477.778 520.518 477.494C520.338 477.205 520.091 476.981 519.779 476.82C519.466 476.654 519.102 476.571 518.685 476.571C518.273 476.571 517.909 476.654 517.591 476.82C517.274 476.981 517.026 477.205 516.846 477.494C516.671 477.778 516.583 478.11 516.583 478.489C516.583 478.872 516.673 479.211 516.853 479.504C517.033 479.798 517.281 480.027 517.599 480.193C517.916 480.359 518.278 480.442 518.685 480.442Z" fill="#1A1A1A"/>
<path d="M121.394 674V671.784L126.571 666.99C127.012 666.564 127.381 666.18 127.679 665.839C127.982 665.499 128.212 665.165 128.368 664.838C128.525 664.507 128.603 664.149 128.603 663.766C128.603 663.339 128.506 662.973 128.311 662.665C128.117 662.352 127.852 662.113 127.516 661.947C127.18 661.777 126.799 661.692 126.373 661.692C125.927 661.692 125.539 661.782 125.208 661.962C124.876 662.142 124.621 662.4 124.441 662.736C124.261 663.072 124.171 663.472 124.171 663.936H121.252C121.252 662.984 121.467 662.158 121.898 661.457C122.329 660.757 122.933 660.214 123.709 659.831C124.486 659.447 125.381 659.256 126.394 659.256C127.435 659.256 128.342 659.44 129.114 659.81C129.891 660.174 130.494 660.681 130.925 661.33C131.356 661.978 131.571 662.722 131.571 663.56C131.571 664.109 131.462 664.651 131.245 665.186C131.032 665.721 130.65 666.315 130.101 666.969C129.552 667.617 128.778 668.396 127.779 669.305L125.655 671.386V671.486H131.763V674H121.394ZM139.695 674.32C138.473 674.315 137.422 674.014 136.541 673.418C135.665 672.821 134.991 671.957 134.517 670.825C134.048 669.694 133.816 668.332 133.821 666.741C133.821 665.155 134.055 663.804 134.524 662.686C134.998 661.569 135.672 660.719 136.548 660.136C137.429 659.549 138.478 659.256 139.695 659.256C140.911 659.256 141.958 659.549 142.834 660.136C143.714 660.723 144.392 661.576 144.865 662.693C145.339 663.806 145.573 665.155 145.568 666.741C145.568 668.337 145.331 669.701 144.858 670.832C144.389 671.964 143.717 672.828 142.841 673.425C141.965 674.021 140.916 674.32 139.695 674.32ZM139.695 671.77C140.528 671.77 141.193 671.351 141.69 670.513C142.188 669.675 142.434 668.418 142.429 666.741C142.429 665.638 142.315 664.72 142.088 663.986C141.866 663.252 141.548 662.7 141.136 662.331C140.729 661.962 140.249 661.777 139.695 661.777C138.866 661.777 138.203 662.191 137.706 663.02C137.209 663.848 136.958 665.089 136.953 666.741C136.953 667.859 137.064 668.792 137.287 669.54C137.514 670.283 137.834 670.842 138.246 671.216C138.658 671.585 139.141 671.77 139.695 671.77ZM153.024 659.256C153.772 659.256 154.492 659.381 155.183 659.632C155.879 659.883 156.499 660.283 157.044 660.832C157.593 661.382 158.026 662.111 158.343 663.02C158.665 663.924 158.829 665.035 158.833 666.351C158.833 667.587 158.694 668.69 158.414 669.661C158.14 670.626 157.744 671.448 157.228 672.125C156.712 672.802 156.09 673.318 155.36 673.673C154.631 674.024 153.817 674.199 152.917 674.199C151.947 674.199 151.09 674.012 150.346 673.638C149.603 673.259 149.004 672.745 148.549 672.097C148.1 671.443 147.827 670.709 147.733 669.895H150.765C150.884 670.425 151.132 670.837 151.511 671.131C151.89 671.42 152.359 671.564 152.917 671.564C153.864 671.564 154.584 671.152 155.076 670.328C155.569 669.5 155.817 668.366 155.822 666.926H155.723C155.505 667.352 155.211 667.719 154.842 668.027C154.473 668.33 154.049 668.564 153.571 668.73C153.097 668.896 152.593 668.979 152.058 668.979C151.201 668.979 150.436 668.777 149.764 668.375C149.092 667.973 148.561 667.419 148.173 666.713C147.785 666.008 147.591 665.203 147.591 664.298C147.586 663.323 147.811 662.454 148.265 661.692C148.72 660.929 149.354 660.333 150.169 659.902C150.988 659.466 151.94 659.251 153.024 659.256ZM153.045 661.67C152.567 661.67 152.141 661.784 151.767 662.011C151.397 662.239 151.104 662.544 150.886 662.928C150.673 663.311 150.569 663.74 150.574 664.213C150.574 664.691 150.678 665.122 150.886 665.506C151.099 665.884 151.388 666.187 151.752 666.415C152.122 666.637 152.543 666.749 153.017 666.749C153.372 666.749 153.701 666.682 154.004 666.55C154.307 666.417 154.57 666.235 154.792 666.003C155.02 665.766 155.197 665.494 155.325 665.186C155.453 664.878 155.517 664.552 155.517 664.206C155.512 663.747 155.403 663.325 155.19 662.942C154.977 662.558 154.683 662.25 154.309 662.018C153.935 661.786 153.514 661.67 153.045 661.67Z" fill="#1A1A1A"/>
<path d="M333.994 659.455V674H331.011V659.455H333.994ZM322.226 674L326.785 666.33L322.417 659.455H326.203L329.47 665.442H335.613L338.795 659.455H342.567L338.305 666.308L342.78 674H339.108L336.032 668.283H329.023L325.869 674H322.226Z" fill="#1A1A1A"/>
<path d="M450.886 674V671.784L456.064 666.99C456.504 666.564 456.873 666.18 457.172 665.839C457.475 665.499 457.704 665.165 457.86 664.838C458.017 664.507 458.095 664.149 458.095 663.766C458.095 663.339 457.998 662.973 457.804 662.665C457.609 662.352 457.344 662.113 457.008 661.947C456.672 661.777 456.291 661.692 455.865 661.692C455.42 661.692 455.031 661.782 454.7 661.962C454.368 662.142 454.113 662.4 453.933 662.736C453.753 663.072 453.663 663.472 453.663 663.936H450.744C450.744 662.984 450.959 662.158 451.39 661.457C451.821 660.757 452.425 660.214 453.201 659.831C453.978 659.447 454.873 659.256 455.886 659.256C456.928 659.256 457.834 659.44 458.606 659.81C459.383 660.174 459.986 660.681 460.417 661.33C460.848 661.978 461.064 662.722 461.064 663.56C461.064 664.109 460.955 664.651 460.737 665.186C460.524 665.721 460.143 666.315 459.593 666.969C459.044 667.617 458.27 668.396 457.271 669.305L455.147 671.386V671.486H461.255V674H450.886ZM469.812 659.455V674H466.737V662.374H466.651L463.32 664.462V661.734L466.921 659.455H469.812ZM478.532 659.256C479.28 659.256 479.999 659.381 480.691 659.632C481.387 659.883 482.007 660.283 482.551 660.832C483.101 661.382 483.534 662.111 483.851 663.02C484.173 663.924 484.337 665.035 484.341 666.351C484.341 667.587 484.202 668.69 483.922 669.661C483.648 670.626 483.252 671.448 482.736 672.125C482.22 672.802 481.597 673.318 480.868 673.673C480.139 674.024 479.325 674.199 478.425 674.199C477.454 674.199 476.597 674.012 475.854 673.638C475.111 673.259 474.512 672.745 474.057 672.097C473.607 671.443 473.335 670.709 473.24 669.895H476.273C476.391 670.425 476.64 670.837 477.019 671.131C477.398 671.42 477.866 671.564 478.425 671.564C479.372 671.564 480.092 671.152 480.584 670.328C481.077 669.5 481.325 668.366 481.33 666.926H481.23C481.013 667.352 480.719 667.719 480.35 668.027C479.98 668.33 479.557 668.564 479.078 668.73C478.605 668.896 478.101 668.979 477.566 668.979C476.709 668.979 475.944 668.777 475.272 668.375C474.599 667.973 474.069 667.419 473.681 666.713C473.292 666.008 473.098 665.203 473.098 664.298C473.094 663.323 473.319 662.454 473.773 661.692C474.228 660.929 474.862 660.333 475.676 659.902C476.496 659.466 477.447 659.251 478.532 659.256ZM478.553 661.67C478.075 661.67 477.649 661.784 477.275 662.011C476.905 662.239 476.612 662.544 476.394 662.928C476.181 663.311 476.077 663.74 476.081 664.213C476.081 664.691 476.185 665.122 476.394 665.506C476.607 665.884 476.896 666.187 477.26 666.415C477.63 666.637 478.051 666.749 478.525 666.749C478.88 666.749 479.209 666.682 479.512 666.55C479.815 666.417 480.078 666.235 480.3 666.003C480.527 665.766 480.705 665.494 480.833 665.186C480.961 664.878 481.025 664.552 481.025 664.206C481.02 663.747 480.911 663.325 480.698 662.942C480.485 662.558 480.191 662.25 479.817 662.018C479.443 661.786 479.022 661.67 478.553 661.67Z" fill="#1A1A1A"/>
<path d="M673.103 674V671.784L678.28 666.99C678.721 666.564 679.09 666.18 679.388 665.839C679.691 665.499 679.921 665.165 680.077 664.838C680.233 664.507 680.312 664.149 680.312 663.766C680.312 663.339 680.215 662.973 680.02 662.665C679.826 662.352 679.561 662.113 679.225 661.947C678.889 661.777 678.508 661.692 678.081 661.692C677.636 661.692 677.248 661.782 676.917 661.962C676.585 662.142 676.33 662.4 676.15 662.736C675.97 663.072 675.88 663.472 675.88 663.936H672.961C672.961 662.984 673.176 662.158 673.607 661.457C674.038 660.757 674.642 660.214 675.418 659.831C676.195 659.447 677.09 659.256 678.103 659.256C679.144 659.256 680.051 659.44 680.823 659.81C681.599 660.174 682.203 660.681 682.634 661.33C683.065 661.978 683.28 662.722 683.28 663.56C683.28 664.109 683.171 664.651 682.954 665.186C682.741 665.721 682.359 666.315 681.81 666.969C681.261 667.617 680.487 668.396 679.488 669.305L677.364 671.386V671.486H683.472V674H673.103ZM691.404 674.32C690.182 674.315 689.131 674.014 688.25 673.418C687.374 672.821 686.7 671.957 686.226 670.825C685.757 669.694 685.525 668.332 685.53 666.741C685.53 665.155 685.764 663.804 686.233 662.686C686.707 661.569 687.381 660.719 688.257 660.136C689.138 659.549 690.187 659.256 691.404 659.256C692.62 659.256 693.667 659.549 694.543 660.136C695.423 660.723 696.101 661.576 696.574 662.693C697.048 663.806 697.282 665.155 697.277 666.741C697.277 668.337 697.04 669.701 696.567 670.832C696.098 671.964 695.426 672.828 694.55 673.425C693.674 674.021 692.625 674.32 691.404 674.32ZM691.404 671.77C692.237 671.77 692.902 671.351 693.399 670.513C693.896 669.675 694.143 668.418 694.138 666.741C694.138 665.638 694.024 664.72 693.797 663.986C693.575 663.252 693.257 662.7 692.845 662.331C692.438 661.962 691.958 661.777 691.404 661.777C690.575 661.777 689.912 662.191 689.415 663.02C688.918 663.848 688.667 665.089 688.662 666.741C688.662 667.859 688.773 668.792 688.996 669.54C689.223 670.283 689.543 670.842 689.955 671.216C690.367 671.585 690.85 671.77 691.404 671.77ZM705.798 659.455V674H702.723V662.374H702.638L699.307 664.462V661.734L702.907 659.455H705.798Z" fill="#1A1A1A"/>
<path d="M102.732 725.438H100.243C100.197 725.116 100.105 724.83 99.9645 724.58C99.8243 724.326 99.6444 724.11 99.4247 723.932C99.205 723.754 98.9512 723.617 98.6634 723.523C98.3793 723.428 98.0705 723.381 97.7372 723.381C97.1349 723.381 96.6103 723.53 96.1634 723.83C95.7164 724.125 95.3698 724.557 95.1236 725.125C94.8774 725.689 94.7543 726.375 94.7543 727.182C94.7543 728.011 94.8774 728.708 95.1236 729.273C95.3736 729.837 95.7221 730.263 96.169 730.551C96.616 730.839 97.133 730.983 97.7202 730.983C98.0497 730.983 98.3546 730.939 98.6349 730.852C98.919 730.765 99.1709 730.638 99.3906 730.472C99.6103 730.301 99.7921 730.095 99.9361 729.852C100.084 729.61 100.186 729.333 100.243 729.023L102.732 729.034C102.667 729.568 102.506 730.083 102.249 730.58C101.995 731.072 101.652 731.513 101.22 731.903C100.792 732.29 100.281 732.597 99.6861 732.824C99.0952 733.047 98.4266 733.159 97.6804 733.159C96.6425 733.159 95.7145 732.924 94.8963 732.455C94.0819 731.985 93.438 731.305 92.9645 730.415C92.4948 729.525 92.2599 728.447 92.2599 727.182C92.2599 725.913 92.4986 724.833 92.9759 723.943C93.4531 723.053 94.1009 722.375 94.919 721.909C95.7372 721.439 96.6577 721.205 97.6804 721.205C98.3546 721.205 98.9796 721.299 99.5554 721.489C100.135 721.678 100.648 721.955 101.095 722.318C101.542 722.678 101.906 723.119 102.186 723.642C102.47 724.165 102.652 724.763 102.732 725.438ZM104.45 733V724.273H106.871V727.659H107.553L109.928 724.273H112.768L109.683 728.602L112.803 733H109.928L107.774 729.903H106.871V733H104.45ZM113.314 733L113.303 731.08H113.592C113.797 731.08 113.973 731.03 114.121 730.932C114.272 730.83 114.397 730.665 114.496 730.438C114.594 730.21 114.672 729.909 114.729 729.534C114.786 729.155 114.823 728.689 114.842 728.136L114.984 724.273H121.621V733H119.314V726.176H117.161L117.024 728.841C116.99 729.572 116.901 730.201 116.757 730.727C116.617 731.254 116.422 731.686 116.172 732.023C115.922 732.356 115.621 732.602 115.268 732.761C114.916 732.92 114.507 733 114.041 733H113.314ZM125.986 733.165C125.429 733.165 124.933 733.068 124.497 732.875C124.062 732.678 123.717 732.388 123.463 732.006C123.213 731.619 123.088 731.138 123.088 730.562C123.088 730.078 123.177 729.67 123.355 729.341C123.533 729.011 123.776 728.746 124.082 728.545C124.389 728.345 124.738 728.193 125.128 728.091C125.522 727.989 125.935 727.917 126.366 727.875C126.874 727.822 127.283 727.773 127.594 727.727C127.904 727.678 128.13 727.606 128.27 727.511C128.41 727.417 128.48 727.277 128.48 727.091V727.057C128.48 726.697 128.366 726.419 128.139 726.222C127.916 726.025 127.598 725.926 127.185 725.926C126.749 725.926 126.402 726.023 126.145 726.216C125.887 726.405 125.717 726.644 125.634 726.932L123.395 726.75C123.509 726.22 123.732 725.761 124.065 725.375C124.399 724.985 124.829 724.686 125.355 724.477C125.885 724.265 126.499 724.159 127.196 724.159C127.681 724.159 128.145 724.216 128.588 724.33C129.035 724.443 129.431 724.619 129.776 724.858C130.124 725.097 130.399 725.403 130.599 725.778C130.8 726.15 130.901 726.595 130.901 727.114V733H128.605V731.79H128.537C128.397 732.062 128.209 732.303 127.974 732.511C127.74 732.716 127.457 732.877 127.128 732.994C126.798 733.108 126.418 733.165 125.986 733.165ZM126.679 731.494C127.035 731.494 127.349 731.424 127.622 731.284C127.895 731.14 128.109 730.947 128.264 730.705C128.42 730.462 128.497 730.187 128.497 729.881V728.955C128.421 729.004 128.317 729.049 128.185 729.091C128.056 729.129 127.91 729.165 127.747 729.199C127.584 729.229 127.421 729.258 127.259 729.284C127.096 729.307 126.948 729.328 126.815 729.347C126.531 729.388 126.283 729.455 126.071 729.545C125.859 729.636 125.694 729.759 125.577 729.915C125.459 730.066 125.401 730.256 125.401 730.483C125.401 730.812 125.52 731.064 125.759 731.239C126.001 731.409 126.308 731.494 126.679 731.494ZM132.097 735.557V731.08H132.767C132.96 730.958 133.116 730.765 133.233 730.5C133.354 730.235 133.453 729.922 133.528 729.562C133.608 729.203 133.669 728.814 133.71 728.398C133.756 727.977 133.795 727.553 133.83 727.125L134.057 724.273H140.75V731.08H142.102V735.557H139.795V733H134.46V735.557H132.097ZM135.176 731.08H138.466V726.136H136.114L136.023 727.125C135.958 728.057 135.866 728.848 135.744 729.5C135.623 730.148 135.434 730.674 135.176 731.08Z" fill="#1A1A1A"/>
<path d="M688.197 736V733.784L693.374 728.99C693.814 728.564 694.184 728.18 694.482 727.839C694.785 727.499 695.015 727.165 695.171 726.838C695.327 726.507 695.405 726.149 695.405 725.766C695.405 725.339 695.308 724.973 695.114 724.665C694.92 724.352 694.655 724.113 694.319 723.947C693.983 723.777 693.601 723.692 693.175 723.692C692.73 723.692 692.342 723.782 692.01 723.962C691.679 724.142 691.423 724.4 691.243 724.736C691.064 725.072 690.974 725.472 690.974 725.936H688.055C688.055 724.984 688.27 724.158 688.701 723.457C689.132 722.757 689.735 722.214 690.512 721.831C691.288 721.447 692.183 721.256 693.197 721.256C694.238 721.256 695.145 721.44 695.917 721.81C696.693 722.174 697.297 722.681 697.728 723.33C698.159 723.978 698.374 724.722 698.374 725.56C698.374 726.109 698.265 726.651 698.047 727.186C697.834 727.721 697.453 728.315 696.904 728.969C696.355 729.617 695.581 730.396 694.581 731.305L692.458 733.386V733.486H698.566V736H688.197ZM706.497 736.32C705.276 736.315 704.225 736.014 703.344 735.418C702.468 734.821 701.793 733.957 701.32 732.825C700.851 731.694 700.619 730.332 700.624 728.741C700.624 727.155 700.858 725.804 701.327 724.686C701.8 723.569 702.475 722.719 703.351 722.136C704.232 721.549 705.28 721.256 706.497 721.256C707.714 721.256 708.761 721.549 709.637 722.136C710.517 722.723 711.194 723.576 711.668 724.693C712.141 725.806 712.376 727.155 712.371 728.741C712.371 730.337 712.134 731.701 711.661 732.832C711.192 733.964 710.52 734.828 709.644 735.425C708.768 736.021 707.719 736.32 706.497 736.32ZM706.497 733.77C707.331 733.77 707.996 733.351 708.493 732.513C708.99 731.675 709.236 730.418 709.232 728.741C709.232 727.638 709.118 726.72 708.891 725.986C708.668 725.252 708.351 724.7 707.939 724.331C707.532 723.962 707.051 723.777 706.497 723.777C705.669 723.777 705.006 724.191 704.509 725.02C704.012 725.848 703.761 727.089 703.756 728.741C703.756 729.859 703.867 730.792 704.09 731.54C704.317 732.283 704.637 732.842 705.048 733.216C705.46 733.585 705.943 733.77 706.497 733.77ZM714.564 736V733.784L719.741 728.99C720.182 728.564 720.551 728.18 720.849 727.839C721.152 727.499 721.382 727.165 721.538 726.838C721.694 726.507 721.773 726.149 721.773 725.766C721.773 725.339 721.675 724.973 721.481 724.665C721.287 724.352 721.022 724.113 720.686 723.947C720.35 723.777 719.969 723.692 719.542 723.692C719.097 723.692 718.709 723.782 718.378 723.962C718.046 724.142 717.791 724.4 717.611 724.736C717.431 725.072 717.341 725.472 717.341 725.936H714.422C714.422 724.984 714.637 724.158 715.068 723.457C715.499 722.757 716.103 722.214 716.879 721.831C717.656 721.447 718.55 721.256 719.564 721.256C720.605 721.256 721.512 721.44 722.284 721.81C723.06 722.174 723.664 722.681 724.095 723.33C724.526 723.978 724.741 724.722 724.741 725.56C724.741 726.109 724.632 726.651 724.415 727.186C724.202 727.721 723.82 728.315 723.271 728.969C722.722 729.617 721.948 730.396 720.949 731.305L718.825 733.386V733.486H724.933V736H714.564Z" fill="#1A1A1A"/>
<path d="M115.603 789V786.784L120.78 781.99C121.221 781.564 121.59 781.18 121.888 780.839C122.191 780.499 122.421 780.165 122.577 779.838C122.733 779.507 122.812 779.149 122.812 778.766C122.812 778.339 122.715 777.973 122.52 777.665C122.326 777.352 122.061 777.113 121.725 776.947C121.389 776.777 121.008 776.692 120.581 776.692C120.136 776.692 119.748 776.782 119.417 776.962C119.085 777.142 118.83 777.4 118.65 777.736C118.47 778.072 118.38 778.472 118.38 778.936H115.461C115.461 777.984 115.676 777.158 116.107 776.457C116.538 775.757 117.142 775.214 117.918 774.831C118.695 774.447 119.59 774.256 120.603 774.256C121.644 774.256 122.551 774.44 123.323 774.81C124.099 775.174 124.703 775.681 125.134 776.33C125.565 776.978 125.78 777.722 125.78 778.56C125.78 779.109 125.671 779.651 125.454 780.186C125.241 780.721 124.859 781.315 124.31 781.969C123.761 782.617 122.987 783.396 121.988 784.305L119.864 786.386V786.486H125.972V789H115.603ZM134.529 774.455V789H131.453V777.374H131.368L128.037 779.462V776.734L131.638 774.455H134.529ZM143.689 789.32C142.467 789.315 141.416 789.014 140.535 788.418C139.659 787.821 138.985 786.957 138.511 785.825C138.042 784.694 137.81 783.332 137.815 781.741C137.815 780.155 138.05 778.804 138.518 777.686C138.992 776.569 139.666 775.719 140.542 775.136C141.423 774.549 142.472 774.256 143.689 774.256C144.906 774.256 145.952 774.549 146.828 775.136C147.709 775.723 148.386 776.576 148.859 777.693C149.333 778.806 149.567 780.155 149.562 781.741C149.562 783.337 149.326 784.701 148.852 785.832C148.383 786.964 147.711 787.828 146.835 788.425C145.959 789.021 144.91 789.32 143.689 789.32ZM143.689 786.77C144.522 786.77 145.187 786.351 145.684 785.513C146.182 784.675 146.428 783.418 146.423 781.741C146.423 780.638 146.309 779.72 146.082 778.986C145.86 778.252 145.542 777.7 145.131 777.331C144.723 776.962 144.243 776.777 143.689 776.777C142.86 776.777 142.197 777.191 141.7 778.02C141.203 778.848 140.952 780.089 140.947 781.741C140.947 782.859 141.059 783.792 141.281 784.54C141.508 785.283 141.828 785.842 142.24 786.216C142.652 786.585 143.135 786.77 143.689 786.77Z" fill="#1A1A1A"/>
<path d="M226.384 789V786.784L231.562 781.99C232.002 781.564 232.371 781.18 232.67 780.839C232.973 780.499 233.202 780.165 233.358 779.838C233.515 779.507 233.593 779.149 233.593 778.766C233.593 778.339 233.496 777.973 233.302 777.665C233.108 777.352 232.842 777.113 232.506 776.947C232.17 776.777 231.789 776.692 231.363 776.692C230.918 776.692 230.529 776.782 230.198 776.962C229.867 777.142 229.611 777.4 229.431 777.736C229.251 778.072 229.161 778.472 229.161 778.936H226.242C226.242 777.984 226.457 777.158 226.888 776.457C227.319 775.757 227.923 775.214 228.699 774.831C229.476 774.447 230.371 774.256 231.384 774.256C232.426 774.256 233.332 774.44 234.104 774.81C234.881 775.174 235.484 775.681 235.915 776.33C236.346 776.978 236.562 777.722 236.562 778.56C236.562 779.109 236.453 779.651 236.235 780.186C236.022 780.721 235.641 781.315 235.091 781.969C234.542 782.617 233.768 783.396 232.769 784.305L230.645 786.386V786.486H236.753V789H226.384ZM244.685 789.32C243.463 789.315 242.412 789.014 241.531 788.418C240.655 787.821 239.981 786.957 239.507 785.825C239.039 784.694 238.807 783.332 238.811 781.741C238.811 780.155 239.046 778.804 239.514 777.686C239.988 776.569 240.663 775.719 241.539 775.136C242.419 774.549 243.468 774.256 244.685 774.256C245.902 774.256 246.948 774.549 247.824 775.136C248.705 775.723 249.382 776.576 249.855 777.693C250.329 778.806 250.563 780.155 250.558 781.741C250.558 783.337 250.322 784.701 249.848 785.832C249.379 786.964 248.707 787.828 247.831 788.425C246.955 789.021 245.906 789.32 244.685 789.32ZM244.685 786.77C245.518 786.77 246.183 786.351 246.681 785.513C247.178 784.675 247.424 783.418 247.419 781.741C247.419 780.638 247.306 779.72 247.078 778.986C246.856 778.252 246.539 777.7 246.127 777.331C245.719 776.962 245.239 776.777 244.685 776.777C243.856 776.777 243.193 777.191 242.696 778.02C242.199 778.848 241.948 780.089 241.943 781.741C241.943 782.859 242.055 783.792 242.277 784.54C242.504 785.283 242.824 785.842 243.236 786.216C243.648 786.585 244.131 786.77 244.685 786.77ZM258.177 789.199C257.084 789.199 256.111 789.021 255.258 788.666C254.411 788.306 253.746 787.816 253.263 787.196C252.78 786.576 252.538 785.873 252.538 785.087C252.538 784.481 252.675 783.924 252.95 783.418C253.229 782.906 253.608 782.482 254.086 782.146C254.565 781.805 255.1 781.588 255.692 781.493V781.393C254.915 781.237 254.285 780.861 253.802 780.264C253.319 779.663 253.078 778.964 253.078 778.169C253.078 777.416 253.298 776.746 253.738 776.159C254.179 775.567 254.782 775.103 255.55 774.767C256.321 774.426 257.197 774.256 258.177 774.256C259.157 774.256 260.031 774.426 260.798 774.767C261.57 775.108 262.176 775.574 262.616 776.166C263.057 776.753 263.279 777.421 263.284 778.169C263.279 778.969 263.033 779.668 262.545 780.264C262.058 780.861 261.433 781.237 260.67 781.393V781.493C261.253 781.588 261.781 781.805 262.254 782.146C262.732 782.482 263.111 782.906 263.39 783.418C263.675 783.924 263.819 784.481 263.824 785.087C263.819 785.873 263.575 786.576 263.092 787.196C262.609 787.816 261.942 788.306 261.089 788.666C260.242 789.021 259.271 789.199 258.177 789.199ZM258.177 786.94C258.665 786.94 259.091 786.853 259.456 786.678C259.82 786.498 260.104 786.251 260.308 785.939C260.516 785.622 260.621 785.257 260.621 784.845C260.621 784.424 260.514 784.052 260.301 783.73C260.088 783.403 259.799 783.148 259.434 782.963C259.07 782.774 258.651 782.679 258.177 782.679C257.709 782.679 257.29 782.774 256.92 782.963C256.551 783.148 256.26 783.403 256.047 783.73C255.838 784.052 255.734 784.424 255.734 784.845C255.734 785.257 255.836 785.622 256.04 785.939C256.243 786.251 256.53 786.498 256.899 786.678C257.268 786.853 257.694 786.94 258.177 786.94ZM258.177 780.442C258.585 780.442 258.947 780.359 259.264 780.193C259.581 780.027 259.83 779.798 260.01 779.504C260.19 779.211 260.28 778.872 260.28 778.489C260.28 778.11 260.19 777.778 260.01 777.494C259.83 777.205 259.584 776.981 259.271 776.82C258.959 776.654 258.594 776.571 258.177 776.571C257.765 776.571 257.401 776.654 257.084 776.82C256.766 776.981 256.518 777.205 256.338 777.494C256.163 777.778 256.075 778.11 256.075 778.489C256.075 778.872 256.165 779.211 256.345 779.504C256.525 779.798 256.773 780.027 257.091 780.193C257.408 780.359 257.77 780.442 258.177 780.442Z" fill="#1A1A1A"/>
<path d="M322.243 789V786.784L327.421 781.99C327.861 781.564 328.231 781.18 328.529 780.839C328.832 780.499 329.062 780.165 329.218 779.838C329.374 779.507 329.452 779.149 329.452 778.766C329.452 778.339 329.355 777.973 329.161 777.665C328.967 777.352 328.702 777.113 328.366 776.947C328.029 776.777 327.648 776.692 327.222 776.692C326.777 776.692 326.389 776.782 326.057 776.962C325.726 777.142 325.47 777.4 325.29 777.736C325.11 778.072 325.02 778.472 325.02 778.936H322.101C322.101 777.984 322.317 777.158 322.748 776.457C323.179 775.757 323.782 775.214 324.559 774.831C325.335 774.447 326.23 774.256 327.243 774.256C328.285 774.256 329.192 774.44 329.964 774.81C330.74 775.174 331.344 775.681 331.775 776.33C332.206 776.978 332.421 777.722 332.421 778.56C332.421 779.109 332.312 779.651 332.094 780.186C331.881 780.721 331.5 781.315 330.951 781.969C330.402 782.617 329.627 783.396 328.628 784.305L326.505 786.386V786.486H332.613V789H322.243ZM340.544 789.32C339.323 789.315 338.271 789.014 337.391 788.418C336.515 787.821 335.84 786.957 335.367 785.825C334.898 784.694 334.666 783.332 334.671 781.741C334.671 780.155 334.905 778.804 335.374 777.686C335.847 776.569 336.522 775.719 337.398 775.136C338.279 774.549 339.327 774.256 340.544 774.256C341.761 774.256 342.807 774.549 343.683 775.136C344.564 775.723 345.241 776.576 345.715 777.693C346.188 778.806 346.423 780.155 346.418 781.741C346.418 783.337 346.181 784.701 345.708 785.832C345.239 786.964 344.566 787.828 343.691 788.425C342.815 789.021 341.766 789.32 340.544 789.32ZM340.544 786.77C341.378 786.77 342.043 786.351 342.54 785.513C343.037 784.675 343.283 783.418 343.279 781.741C343.279 780.638 343.165 779.72 342.938 778.986C342.715 778.252 342.398 777.7 341.986 777.331C341.579 776.962 341.098 776.777 340.544 776.777C339.716 776.777 339.053 777.191 338.556 778.02C338.058 778.848 337.807 780.089 337.803 781.741C337.803 782.859 337.914 783.792 338.137 784.54C338.364 785.283 338.683 785.842 339.095 786.216C339.507 786.585 339.99 786.77 340.544 786.77ZM348.795 789L354.825 777.068V776.969H347.801V774.455H358.007V777.004L351.97 789H348.795Z" fill="#1A1A1A"/>
<path d="M425.182 763.672H415V761.544H423.432V757.428H415V755.3H425.182V763.672ZM412.136 765.682H422.636V767.77H421.354V767.865C421.559 767.957 421.768 768.092 421.98 768.267C422.196 768.446 422.375 768.678 422.517 768.963C422.663 769.252 422.736 769.61 422.736 770.037C422.736 770.594 422.59 771.108 422.298 771.578C422.01 772.049 421.574 772.425 420.991 772.707C420.411 772.989 419.683 773.13 418.808 773.13C417.956 773.13 417.237 772.992 416.651 772.717C416.067 772.445 415.625 772.074 415.323 771.603C415.025 771.136 414.876 770.612 414.876 770.032C414.876 769.621 414.944 769.272 415.08 768.983C415.215 768.698 415.386 768.465 415.592 768.282C415.8 768.1 416.011 767.961 416.223 767.865V767.8H412.136V765.682ZM418.818 767.755C418.364 767.755 417.968 767.818 417.63 767.944C417.292 768.07 417.028 768.252 416.839 768.491C416.654 768.73 416.561 769.02 416.561 769.361C416.561 769.706 416.656 769.997 416.844 770.236C417.037 770.475 417.302 770.655 417.64 770.778C417.981 770.904 418.374 770.967 418.818 770.967C419.259 770.967 419.647 770.906 419.982 770.783C420.316 770.66 420.578 770.48 420.767 770.241C420.956 770.002 421.05 769.709 421.05 769.361C421.05 769.016 420.959 768.725 420.777 768.486C420.595 768.251 420.336 768.07 420.001 767.944C419.667 767.818 419.272 767.755 418.818 767.755ZM417.794 776.565L422.636 779.314V781.402H415V779.384H419.857L415 776.644V774.541H422.636V776.565H417.794ZM414.851 786.58C414.851 785.795 415.01 785.119 415.328 784.552C415.65 783.988 416.104 783.554 416.69 783.249C417.28 782.944 417.978 782.792 418.783 782.792C419.569 782.792 420.258 782.944 420.852 783.249C421.445 783.554 421.907 783.983 422.239 784.537C422.57 785.094 422.736 785.747 422.736 786.496C422.736 786.999 422.655 787.468 422.492 787.903C422.333 788.34 422.093 788.721 421.771 789.046C421.45 789.374 421.045 789.629 420.558 789.812C420.074 789.994 419.508 790.085 418.858 790.085H418.276V783.637H419.589V788.092C419.894 788.092 420.164 788.025 420.399 787.893C420.634 787.76 420.818 787.576 420.951 787.341C421.087 787.109 421.155 786.839 421.155 786.53C421.155 786.209 421.08 785.924 420.931 785.675C420.785 785.43 420.588 785.238 420.339 785.099C420.094 784.959 419.821 784.888 419.519 784.885H418.271C417.893 784.885 417.567 784.954 417.292 785.094C417.017 785.236 416.805 785.437 416.656 785.695C416.506 785.954 416.432 786.26 416.432 786.615C416.432 786.85 416.465 787.066 416.531 787.261C416.598 787.457 416.697 787.624 416.83 787.763C416.962 787.903 417.125 788.009 417.317 788.082L417.188 790.04C416.717 789.941 416.306 789.737 415.955 789.429C415.607 789.124 415.335 788.73 415.139 788.246C414.947 787.765 414.851 787.21 414.851 786.58ZM417.342 795.981L422.636 798.05V799.66L415 796.682V795.275L422.636 792.367V793.973L417.342 795.981ZM422.636 793.491H415V791.467H422.636V793.491ZM415 798.577H422.636V800.575H415V798.577ZM419.663 807.528H417.998V803.541H419.663V807.528ZM422.636 804.237H415V802.213H422.636V804.237ZM422.636 808.855H415V806.847H422.636V808.855ZM414.856 812.676C414.856 812.189 414.94 811.755 415.109 811.373C415.282 810.992 415.535 810.691 415.87 810.469C416.208 810.25 416.629 810.141 417.133 810.141C417.557 810.141 417.913 810.218 418.202 810.374C418.49 810.53 418.722 810.742 418.898 811.011C419.073 811.279 419.206 811.584 419.295 811.925C419.385 812.27 419.448 812.631 419.484 813.009C419.531 813.453 419.574 813.811 419.614 814.083C419.657 814.355 419.72 814.552 419.803 814.675C419.885 814.797 420.008 814.859 420.17 814.859H420.2C420.515 814.859 420.759 814.759 420.931 814.56C421.103 814.365 421.19 814.086 421.19 813.725C421.19 813.344 421.105 813.041 420.936 812.815C420.77 812.59 420.562 812.441 420.31 812.368L420.469 810.409C420.933 810.508 421.334 810.704 421.672 810.996C422.013 811.287 422.275 811.664 422.457 812.124C422.643 812.588 422.736 813.125 422.736 813.735C422.736 814.159 422.686 814.565 422.587 814.953C422.487 815.344 422.333 815.69 422.124 815.992C421.915 816.297 421.647 816.537 421.319 816.713C420.994 816.889 420.605 816.976 420.151 816.976H415V814.968H416.059V814.908C415.82 814.786 415.61 814.622 415.428 814.416C415.249 814.211 415.108 813.964 415.005 813.675C414.906 813.387 414.856 813.054 414.856 812.676ZM416.317 813.283C416.317 813.594 416.379 813.869 416.501 814.108C416.627 814.347 416.796 814.534 417.009 814.67C417.221 814.806 417.461 814.873 417.729 814.873H418.54C418.497 814.807 418.457 814.716 418.42 814.6C418.387 814.487 418.356 814.36 418.326 814.217C418.299 814.075 418.275 813.932 418.251 813.79C418.232 813.647 418.213 813.518 418.197 813.402C418.16 813.153 418.102 812.936 418.023 812.751C417.943 812.565 417.835 812.421 417.7 812.318C417.567 812.215 417.401 812.164 417.202 812.164C416.914 812.164 416.694 812.268 416.541 812.477C416.392 812.689 416.317 812.958 416.317 813.283ZM415 823.094H420.976V821.662C420.976 821.274 420.886 820.979 420.707 820.777C420.528 820.575 420.316 820.476 420.071 820.479C419.822 820.476 419.612 820.572 419.44 820.767C419.271 820.966 419.186 821.258 419.186 821.642V823.8H417.754V821.642C417.754 820.989 417.854 820.424 418.053 819.947C418.251 819.47 418.528 819.102 418.883 818.843C419.241 818.585 419.657 818.457 420.131 818.46C420.628 818.457 421.064 818.585 421.438 818.843C421.816 819.102 422.109 819.471 422.318 819.952C422.53 820.436 422.636 821.006 422.636 821.662V825.068H415V823.094ZM415 818.242L418.977 820.365V822.388L415 820.27V818.242Z" fill="#1A1A1A"/>
<path d="M449.05 789V786.784L454.228 781.99C454.668 781.564 455.037 781.18 455.336 780.839C455.639 780.499 455.868 780.165 456.025 779.838C456.181 779.507 456.259 779.149 456.259 778.766C456.259 778.339 456.162 777.973 455.968 777.665C455.774 777.352 455.508 777.113 455.172 776.947C454.836 776.777 454.455 776.692 454.029 776.692C453.584 776.692 453.195 776.782 452.864 776.962C452.533 777.142 452.277 777.4 452.097 777.736C451.917 778.072 451.827 778.472 451.827 778.936H448.908C448.908 777.984 449.123 777.158 449.554 776.457C449.985 775.757 450.589 775.214 451.365 774.831C452.142 774.447 453.037 774.256 454.05 774.256C455.092 774.256 455.998 774.44 456.77 774.81C457.547 775.174 458.15 775.681 458.581 776.33C459.012 776.978 459.228 777.722 459.228 778.56C459.228 779.109 459.119 779.651 458.901 780.186C458.688 780.721 458.307 781.315 457.757 781.969C457.208 782.617 456.434 783.396 455.435 784.305L453.311 786.386V786.486H459.419V789H449.05ZM467.351 789.32C466.129 789.315 465.078 789.014 464.197 788.418C463.321 787.821 462.647 786.957 462.173 785.825C461.705 784.694 461.473 783.332 461.477 781.741C461.477 780.155 461.712 778.804 462.18 777.686C462.654 776.569 463.329 775.719 464.205 775.136C465.085 774.549 466.134 774.256 467.351 774.256C468.568 774.256 469.614 774.549 470.49 775.136C471.371 775.723 472.048 776.576 472.521 777.693C472.995 778.806 473.229 780.155 473.224 781.741C473.224 783.337 472.988 784.701 472.514 785.832C472.045 786.964 471.373 787.828 470.497 788.425C469.621 789.021 468.572 789.32 467.351 789.32ZM467.351 786.77C468.184 786.77 468.849 786.351 469.347 785.513C469.844 784.675 470.09 783.418 470.085 781.741C470.085 780.638 469.972 779.72 469.744 778.986C469.522 778.252 469.205 777.7 468.793 777.331C468.385 776.962 467.905 776.777 467.351 776.777C466.522 776.777 465.859 777.191 465.362 778.02C464.865 778.848 464.614 780.089 464.609 781.741C464.609 782.859 464.721 783.792 464.943 784.54C465.17 785.283 465.49 785.842 465.902 786.216C466.314 786.585 466.797 786.77 467.351 786.77ZM480.73 789.199C479.726 789.199 478.831 789.014 478.045 788.645C477.264 788.276 476.644 787.767 476.184 787.118C475.725 786.469 475.486 785.726 475.467 784.888H478.45C478.483 785.451 478.72 785.908 479.16 786.259C479.6 786.609 480.124 786.784 480.73 786.784C481.213 786.784 481.639 786.678 482.008 786.464C482.382 786.247 482.673 785.946 482.882 785.562C483.095 785.174 483.201 784.729 483.201 784.227C483.201 783.716 483.092 783.266 482.875 782.878C482.662 782.49 482.366 782.187 481.987 781.969C481.608 781.751 481.175 781.64 480.687 781.635C480.261 781.635 479.847 781.723 479.444 781.898C479.047 782.073 478.736 782.312 478.514 782.615L475.779 782.125L476.468 774.455H485.36V776.969H479.004L478.627 780.612H478.713C478.968 780.252 479.354 779.954 479.87 779.717C480.386 779.481 480.964 779.362 481.603 779.362C482.479 779.362 483.261 779.568 483.947 779.98C484.634 780.392 485.176 780.958 485.574 781.678C485.971 782.393 486.168 783.216 486.163 784.149C486.168 785.129 485.94 786 485.481 786.763C485.027 787.52 484.39 788.117 483.571 788.553C482.756 788.983 481.809 789.199 480.73 789.199Z" fill="#1A1A1A"/>
<path d="M511.218 789V786.784L516.396 781.99C516.836 781.564 517.205 781.18 517.504 780.839C517.807 780.499 518.036 780.165 518.192 779.838C518.349 779.507 518.427 779.149 518.427 778.766C518.427 778.339 518.33 777.973 518.136 777.665C517.942 777.352 517.676 777.113 517.34 776.947C517.004 776.777 516.623 776.692 516.197 776.692C515.752 776.692 515.363 776.782 515.032 776.962C514.701 777.142 514.445 777.4 514.265 777.736C514.085 778.072 513.995 778.472 513.995 778.936H511.076C511.076 777.984 511.291 777.158 511.722 776.457C512.153 775.757 512.757 775.214 513.533 774.831C514.31 774.447 515.205 774.256 516.218 774.256C517.26 774.256 518.166 774.44 518.938 774.81C519.715 775.174 520.318 775.681 520.749 776.33C521.18 776.978 521.396 777.722 521.396 778.56C521.396 779.109 521.287 779.651 521.069 780.186C520.856 780.721 520.475 781.315 519.925 781.969C519.376 782.617 518.602 783.396 517.603 784.305L515.479 786.386V786.486H521.587V789H511.218ZM529.519 789.32C528.297 789.315 527.246 789.014 526.365 788.418C525.489 787.821 524.815 786.957 524.341 785.825C523.873 784.694 523.641 783.332 523.645 781.741C523.645 780.155 523.88 778.804 524.348 777.686C524.822 776.569 525.497 775.719 526.373 775.136C527.253 774.549 528.302 774.256 529.519 774.256C530.736 774.256 531.782 774.549 532.658 775.136C533.539 775.723 534.216 776.576 534.689 777.693C535.163 778.806 535.397 780.155 535.392 781.741C535.392 783.337 535.156 784.701 534.682 785.832C534.213 786.964 533.541 787.828 532.665 788.425C531.789 789.021 530.74 789.32 529.519 789.32ZM529.519 786.77C530.352 786.77 531.017 786.351 531.515 785.513C532.012 784.675 532.258 783.418 532.253 781.741C532.253 780.638 532.14 779.72 531.912 778.986C531.69 778.252 531.373 777.7 530.961 777.331C530.553 776.962 530.073 776.777 529.519 776.777C528.69 776.777 528.027 777.191 527.53 778.02C527.033 778.848 526.782 780.089 526.777 781.741C526.777 782.859 526.889 783.792 527.111 784.54C527.338 785.283 527.658 785.842 528.07 786.216C528.482 786.585 528.965 786.77 529.519 786.77ZM537.365 786.443V784.021L543.438 774.455H545.526V777.807H544.29L540.462 783.865V783.979H549.091V786.443H537.365ZM544.347 789V785.705L544.403 784.632V774.455H547.287V789H544.347Z" fill="#1A1A1A"/>
<path d="M671.404 789V786.784L676.581 781.99C677.021 781.564 677.391 781.18 677.689 780.839C677.992 780.499 678.222 780.165 678.378 779.838C678.534 779.507 678.612 779.149 678.612 778.766C678.612 778.339 678.515 777.973 678.321 777.665C678.127 777.352 677.862 777.113 677.526 776.947C677.19 776.777 676.808 776.692 676.382 776.692C675.937 776.692 675.549 776.782 675.218 776.962C674.886 777.142 674.63 777.4 674.45 777.736C674.271 778.072 674.181 778.472 674.181 778.936H671.262C671.262 777.984 671.477 777.158 671.908 776.457C672.339 775.757 672.942 775.214 673.719 774.831C674.495 774.447 675.39 774.256 676.404 774.256C677.445 774.256 678.352 774.44 679.124 774.81C679.9 775.174 680.504 775.681 680.935 776.33C681.366 776.978 681.581 777.722 681.581 778.56C681.581 779.109 681.472 779.651 681.254 780.186C681.041 780.721 680.66 781.315 680.111 781.969C679.562 782.617 678.788 783.396 677.789 784.305L675.665 786.386V786.486H681.773V789H671.404ZM689.704 789.32C688.483 789.315 687.432 789.014 686.551 788.418C685.675 787.821 685 786.957 684.527 785.825C684.058 784.694 683.826 783.332 683.831 781.741C683.831 780.155 684.065 778.804 684.534 777.686C685.007 776.569 685.682 775.719 686.558 775.136C687.439 774.549 688.488 774.256 689.704 774.256C690.921 774.256 691.968 774.549 692.844 775.136C693.724 775.723 694.401 776.576 694.875 777.693C695.348 778.806 695.583 780.155 695.578 781.741C695.578 783.337 695.341 784.701 694.868 785.832C694.399 786.964 693.727 787.828 692.851 788.425C691.975 789.021 690.926 789.32 689.704 789.32ZM689.704 786.77C690.538 786.77 691.203 786.351 691.7 785.513C692.197 784.675 692.443 783.418 692.439 781.741C692.439 780.638 692.325 779.72 692.098 778.986C691.875 778.252 691.558 777.7 691.146 777.331C690.739 776.962 690.258 776.777 689.704 776.777C688.876 776.777 688.213 777.191 687.716 778.02C687.219 778.848 686.968 780.089 686.963 781.741C686.963 782.859 687.074 783.792 687.297 784.54C687.524 785.283 687.844 785.842 688.256 786.216C688.667 786.585 689.15 786.77 689.704 786.77ZM703.147 789.199C702.087 789.199 701.142 789.017 700.313 788.652C699.49 788.283 698.838 787.776 698.36 787.132C697.887 786.483 697.643 785.735 697.629 784.888H700.725C700.744 785.243 700.86 785.555 701.073 785.825C701.291 786.09 701.58 786.296 701.94 786.443C702.3 786.59 702.704 786.663 703.154 786.663C703.623 786.663 704.037 786.58 704.397 786.415C704.757 786.249 705.039 786.019 705.242 785.726C705.446 785.432 705.548 785.094 705.548 784.71C705.548 784.322 705.439 783.979 705.221 783.68C705.008 783.377 704.7 783.141 704.298 782.97C703.9 782.8 703.427 782.714 702.877 782.714H701.521V780.456H702.877C703.341 780.456 703.751 780.375 704.106 780.214C704.466 780.054 704.745 779.831 704.944 779.547C705.143 779.258 705.242 778.922 705.242 778.538C705.242 778.174 705.155 777.854 704.98 777.58C704.809 777.3 704.568 777.082 704.255 776.926C703.947 776.77 703.588 776.692 703.176 776.692C702.759 776.692 702.378 776.768 702.032 776.919C701.686 777.066 701.41 777.277 701.201 777.551C700.993 777.826 700.882 778.148 700.867 778.517H697.92C697.934 777.679 698.173 776.94 698.637 776.301C699.101 775.662 699.726 775.162 700.512 774.803C701.303 774.438 702.195 774.256 703.19 774.256C704.194 774.256 705.072 774.438 705.825 774.803C706.578 775.167 707.162 775.66 707.579 776.28C708 776.895 708.209 777.587 708.204 778.354C708.209 779.168 707.955 779.848 707.444 780.392C706.937 780.937 706.277 781.282 705.463 781.429V781.543C706.533 781.68 707.347 782.052 707.906 782.658C708.469 783.259 708.749 784.012 708.744 784.916C708.749 785.745 708.509 786.481 708.026 787.125C707.548 787.769 706.888 788.276 706.045 788.645C705.202 789.014 704.236 789.199 703.147 789.199Z" fill="#1A1A1A"/>
<path d="M62.5 709.5L179 710" stroke="#1A1A1A" stroke-width="2.5"/>
<path d="M366 640V711" stroke="#1A1A1A" stroke-width="2"/>
<path d="M434 640V711" stroke="#1A1A1A" stroke-width="2"/>
<path d="M666 710V750" stroke="#1A1A1A" stroke-width="2"/>
<path d="M666 722V737" stroke="#FCFCFC" stroke-width="7"/>
<path d="M577.5 641.5V710.5M576 749.5V828" stroke="#1A1A1A" stroke-width="2.5"/>
<path d="M400.5 93V130.5" stroke="#1A1A1A" stroke-width="2.5" stroke-linecap="square"/>
<path d="M609 756L617.188 768.568" stroke="#FCFCFC" stroke-width="7"/>
<path d="M220 173.75H364" stroke="#1A1A1A" stroke-width="2.5"/>
</g>
<defs>
<clipPath id="clip0_9_2">
<rect width="820" height="900" fill="white"/>
</clipPath>
</defs>
</svg>
